<?xml version="1.0" encoding="UTF-8" standalone="no"?>
<svg width="601px" height="69px" viewBox="0 0 601 69" version="1.1" xmlns="http://www.w3.org/2000/svg" xmlns:xlink="http://www.w3.org/1999/xlink">
    <!-- Generator: Sketch 44.1 (41455) - http://www.bohemiancoding.com/sketch -->
    <title>Logos_Without3DS/ SOLIDWORKS</title>
    <desc>Created with Sketch.</desc>
    <defs></defs>
    <g id="Page-1" stroke="none" stroke-width="1" fill="none" fill-rule="evenodd">
        <g id="Logos_Without3DS/-SOLIDWORKS" fill="#DA322A">
            <path d="M97.287,-0.473 C120.751,-0.473 128.241,15.136 125.181,33.756 C122.11,52.396 109.488,67.973 86.052,67.973 C62.576,67.973 55.115,52.396 58.139,33.756 C61.217,15.136 73.818,-0.473 97.287,-0.473 Z M110.669,33.756 C113.169,18.521 108.751,10.784 95.444,10.784 C82.112,10.784 75.14,18.521 72.653,33.756 C70.138,48.998 74.576,56.726 87.875,56.726 C101.189,56.726 108.188,48.998 110.669,33.756 Z M4.114,13.842 C5.309,6.214 11.842,-0.473 19.326,-0.473 L52.998,-0.473 L52.998,6.52 C52.52,9.682 50.753,12.853 47.624,12.853 L22.144,12.853 C19.61,12.853 18.157,13.517 17.953,15.136 C17.821,16.091 18.264,16.765 20.061,18.054 L42.357,33.895 C47.134,37.279 49.601,42.562 48.426,49.941 C47.18,57.795 40.991,65.172 28.461,65.172 L-0.136,65.172 L-0.136,56.077 C0.349,53.111 1.782,51.871 4.374,51.871 L28.779,51.871 C33.124,51.871 34.409,50.856 34.795,48.41 C35.056,46.638 33.993,45.603 31.764,44.084 L10.77,29.438 C4.905,25.331 3.288,19.082 4.114,13.842 Z M174.183,54.492 C176.717,54.492 177.686,55.679 177.162,58.585 L175.974,65.172 L129.772,65.172 L141.753,-0.473 L154.025,-0.473 C155.344,-0.473 156.127,0.715 155.914,1.786 L146.304,54.492 L174.183,54.492 Z M548.91,-0.068 C549.505,-0.068 550.148,0.012 550.7,0.446 C551.237,0.845 551.521,1.6 551.509,2.22 C551.509,3.79 550.565,4.599 550.565,4.599 L516.767,33.272 L542.077,60.779 C542.077,60.779 543.049,61.961 543.049,63.155 C543.049,63.799 542.765,64.541 542.194,64.968 C541.664,65.351 541.06,65.436 540.409,65.465 L537.212,65.465 L510.474,36.399 L505.113,65.436 L497.911,65.436 L510.117,-0.19 L513.353,-0.19 C514.083,-0.19 514.833,0.045 515.429,0.52 C516,0.911 516.674,1.89 516.383,3.311 L511.914,28.827 L545.677,-0.068 L548.91,-0.068 Z M258.065,-0.473 C278.902,-0.473 286.701,12.648 283.253,31.276 C278.869,55.566 264.62,65.152 244.174,65.152 L216.5,65.152 L224.792,19.809 C224.946,18.751 226.099,17.577 227.723,17.577 L239.798,17.577 L233.037,54.492 L247.233,54.492 C257.775,54.492 264.745,44.634 267.094,31.76 C269.645,17.69 265.679,10.181 255.319,10.181 L229.171,10.181 C222.112,10.181 221.75,5.044 222.564,0.577 L222.744,-0.473 L258.065,-0.473 Z M465.685,-0.19 C475.647,-0.19 484.412,-0.038 489.511,5.796 C492.417,9.14 492.63,15.308 491.82,19.082 C490.805,23.752 486.401,35.434 469.843,36.924 L483.786,60.779 C483.786,60.779 484.718,62.226 484.718,63.155 C484.743,63.799 484.457,64.541 483.887,64.968 C483.344,65.351 482.753,65.465 482.096,65.465 L478.448,65.465 L462.095,37.311 L448.936,37.235 L443.827,65.465 L436.61,65.465 L448.804,-0.19 L465.685,-0.19 Z M473.167,29.637 C483.449,26.864 488.525,15.176 482.867,9.789 C481.559,8.49 479.535,7.886 476.438,7.297 C475.621,7.136 474.276,7.03 472.77,6.951 C468.989,6.752 457.824,6.917 454.402,6.931 L450.096,30.825 C452.664,30.857 455.602,30.876 457.678,30.908 C463.522,30.908 469.155,30.71 473.167,29.637 Z M574.11,-0.19 L601.217,-0.19 L601.217,4.784 C601.239,5.592 600.395,6.62 599.619,6.752 L599.659,6.931 L599.607,6.752 C599.407,6.811 575.289,6.845 575.262,6.845 C570.313,6.845 567.276,10.068 567.25,14.101 C567.276,16.486 568.627,18.698 570.798,20.841 L588.29,38.058 C588.317,38.058 594.567,43.311 594.567,50.114 L594.567,50.14 C594.512,55.036 593.165,65.418 580.516,65.465 L553.71,65.465 L553.71,60.542 L553.631,60.501 L553.71,60.501 C553.697,59.685 554.493,58.658 555.294,58.511 C555.515,58.432 579.375,58.432 579.396,58.411 C584.331,58.432 587.387,55.162 587.387,51.154 C587.387,48.774 586.308,46.26 584.118,44.12 L565.669,26.041 C563.805,24.41 560.059,20.297 560.059,15.136 C560.125,10.228 561.451,-0.15 574.11,-0.19 Z M208.963,-0.473 C210.277,-0.473 211.055,0.715 210.856,1.766 L199.268,65.152 L184.68,65.152 L196.681,-0.473 L208.963,-0.473 Z M409.558,-0.316 C429.274,1.976 435.145,19.554 431.167,36.373 C426.741,55.029 413.288,69.756 391.828,68.11 C371.847,65.788 366.15,48.183 370.376,31.388 C375.001,12.741 388.413,-1.985 409.558,-0.349 L409.558,-0.316 Z M424.127,35.806 C428.579,17.053 419.856,7.608 407.897,6.387 C395.849,5.73 382.083,12.834 377.341,31.959 C372.704,50.711 381.416,59.818 393.221,61.33 L394.421,61.391 C406.609,62.048 419.581,54.937 424.127,35.806 Z M370.376,2.403 C370.376,3.034 370.23,3.333 370.037,3.79 L344.724,60.74 C343.424,63.712 340.924,65.436 337.931,65.436 L333.19,65.436 L325.884,29.637 L308.254,61.039 C307.431,62.339 306.517,63.414 305.435,64.202 C304.246,65.066 302.795,65.465 301.189,65.436 L295.61,65.436 L295.61,-0.19 L299.903,-0.19 C300.585,-0.19 301.289,-0.068 301.912,0.446 C302.563,0.951 302.839,1.866 302.839,2.597 L302.636,57.231 L322.743,22.193 L327.018,22.193 C329.619,22.048 331.79,23.905 332.169,26.618 L338.816,57.545 L364.287,-0.19 L367.604,-0.19 C368.252,-0.19 368.904,-0.071 369.494,0.396 C370.104,0.865 370.403,1.753 370.376,2.403 Z" id="Combined-Shape"></path>
        </g>
    </g>
</svg>