<?xml version="1.0" encoding="utf-8"?>
<!-- Generator: Adobe Illustrator 16.0.4, SVG Export Plug-In . SVG Version: 6.00 Build 0)  -->
<!DOCTYPE svg PUBLIC "-//W3C//DTD SVG 1.1//EN" "http://www.w3.org/Graphics/SVG/1.1/DTD/svg11.dtd">
<svg version="1.1" xmlns="http://www.w3.org/2000/svg" xmlns:xlink="http://www.w3.org/1999/xlink" x="0px" y="0px" width="792px"
	 height="612px" viewBox="0 0 792 612" enable-background="new 0 0 792 612" xml:space="preserve">
<g id="back" display="none">
	<rect x="0" display="inline" width="792" height="612"/>
</g>
<g id="better_original" display="none">
	<g display="inline">
		<path fill="#FFFFFF" stroke="#FFFFFF" stroke-width="0.25" stroke-miterlimit="10" d="M570.192,371l30.453-22.105l18.156,2.887
			l14.293-10.371l-4.492,28.273l-13.996,10.16l1.246,1.699l14.695-10.668l4.961-31.223l32.32-23.457l5.148-32.434l41.594-31.266
			c0.531,0.363,1.18,0.578,1.875,0.578c1.828,0,3.312-1.484,3.312-3.309c0-1.273-0.73-2.371-1.781-2.926l0.801-5.043l-11.699-15.336
			l-2.586,8.348l-27.234,18.188l-1.812,5.324l-10.652,8.48c-0.52-0.336-1.133-0.539-1.797-0.539c-1.27,0-2.367,0.73-2.918,1.785
			l-5.648-0.895c-0.164-0.953-0.727-1.762-1.512-2.254l4.664-19.707l15.137-10.992l9.18,3.957l22.797-16.551l8.109,7.914
			l-1.125-22.934c0.422-0.168,0.812-0.414,1.141-0.742c0.621-0.629,0.969-1.457,0.969-2.34c0-1.832-1.484-3.316-3.316-3.316
			c-0.34,0-0.664,0.062-0.984,0.164l-2.922-4.027c0.387-0.543,0.625-1.203,0.625-1.922c0-1.82-1.496-3.312-3.316-3.312
			c-1.836,0-3.316,1.492-3.316,3.312c0,0.352,0.062,0.672,0.16,0.984l-24.312,17.652l-11.508-0.207l-3.625,6.785l-28.199-5.621
			l-32.836,23.836l-0.758,4.77l-40.188,29.176l1.23,1.711l38.488-27.934l-3.285,20.691l-18.652,13.543l-25.652,3.508l0.27,2.09
			l26.191-3.578l17.371-12.613l-0.914,5.758l-55.156,40.035l1.254,1.703l22.316-16.199l-7.504,18.066l-36.52,26.512
			c-0.727-0.59-1.641-0.965-2.648-0.965c-2.312,0-4.188,1.879-4.188,4.191c0,2.309,1.875,4.191,4.188,4.191s4.188-1.883,4.188-4.191
			c0-0.539-0.113-1.047-0.301-1.523l37-26.852l9.059-21.805l30.27-21.969l5.891-37.121l31.383-22.781l25.688,5.121l-9.535,6.922
			l-11.621-2.227l-24.75,17.965c-0.539-0.391-1.199-0.621-1.918-0.621c-1.828,0-3.316,1.492-3.316,3.316
			c0,1.828,1.488,3.312,3.316,3.312s3.32-1.484,3.32-3.312c0-0.348-0.07-0.672-0.172-0.98l7.191-5.223l5.898,0.574l-1.793,11.309
			l-16.32,11.844c-0.543-0.383-1.203-0.617-1.922-0.617c-1.82,0-3.309,1.484-3.309,3.316c0,1.824,1.488,3.309,3.309,3.309
			c1.836,0,3.32-1.484,3.32-3.309c0-0.344-0.062-0.672-0.168-0.984l17.035-12.363l1.949-12.301l4.965,0.477l27.906-20.25
			l3.504-6.562l10.93,0.203l24.879-18.062c0.539,0.383,1.203,0.617,1.918,0.617c0.348,0,0.668-0.062,0.98-0.164l2.918,4.031
			c-0.383,0.543-0.613,1.195-0.613,1.918c0,1.516,1.023,2.773,2.41,3.172l0.859,17.578l-5.535-5.402l-23.266,16.895l-9.184-3.961
			l-16.738,12.152l-4.848,20.48c-1.68,0.156-3.004,1.559-3.004,3.281c0,1.828,1.48,3.316,3.309,3.316c1.277,0,2.375-0.73,2.93-1.781
			l5.645,0.898c0.266,1.559,1.625,2.766,3.258,2.766c1.828,0,3.32-1.492,3.32-3.316c0-0.402-0.082-0.77-0.215-1.125l11.145-8.875
			l1.781-5.227l27.266-18.203l1.59-5.148l8.672,11.355l-0.66,4.145c-1.566,0.266-2.77,1.617-2.77,3.262
			c0,0.359,0.074,0.703,0.188,1.027l-56.477,42.469c-0.531-0.371-1.176-0.586-1.871-0.586c-1.832,0-3.316,1.484-3.316,3.316
			c0,1.828,1.484,3.316,3.316,3.316c1.824,0,3.316-1.488,3.316-3.316c0-0.367-0.082-0.707-0.188-1.039l12.457-9.363l-2.016,12.684
			l-29.238,21.23l-25.812,1.645l-19.59,14.223c-0.727-0.59-1.641-0.965-2.648-0.965c-2.309,0-4.191,1.875-4.191,4.188
			c0,2.309,1.883,4.195,4.191,4.195c2.312,0,4.188-1.887,4.188-4.195c0-0.531-0.109-1.047-0.289-1.516l19.094-13.863l21.855-1.391
			l-11.891,8.629c-0.723-0.594-1.633-0.965-2.637-0.965c-2.312,0-4.191,1.879-4.191,4.191c0,2.309,1.879,4.191,4.191,4.191
			c2.305,0,4.191-1.883,4.191-4.191c0-0.535-0.117-1.051-0.301-1.52l42.609-30.934l-2.188,13.77l-31.961,23.207l-15.645,11.352
			l-18.16-2.883l-31.176,22.625 M516.895,350.211c-0.254,0.105-0.527,0.16-0.812,0.16c-0.289,0-0.559-0.055-0.812-0.16
			c-0.742-0.316-1.266-1.059-1.266-1.914c0-0.863,0.523-1.602,1.266-1.914c0.254-0.105,0.523-0.164,0.812-0.164
			c1.082,0,1.949,0.84,2.043,1.902c0.004,0.059,0.035,0.109,0.035,0.176C518.161,349.152,517.637,349.895,516.895,350.211
			 M612.114,247.688c-0.031,0.027-0.062,0.039-0.094,0.062c-0.176,0.105-0.367,0.176-0.586,0.176c-0.66,0-1.203-0.539-1.203-1.203
			c0-0.156,0.039-0.305,0.09-0.438c0.035-0.09,0.086-0.16,0.145-0.238c0.027-0.035,0.035-0.07,0.074-0.105
			c0.176-0.203,0.418-0.336,0.703-0.383c0.066-0.012,0.125-0.039,0.191-0.039c0.66,0,1.203,0.539,1.203,1.203
			C612.637,247.129,612.418,247.469,612.114,247.688 M608.711,267.473L608.711,267.473c-0.086,0.176-0.223,0.324-0.391,0.434
			c-0.027,0.027-0.059,0.043-0.094,0.062c-0.18,0.102-0.363,0.176-0.59,0.176c-0.66,0-1.195-0.535-1.195-1.199
			c0-0.16,0.031-0.305,0.086-0.434c0.031-0.094,0.094-0.164,0.141-0.238c0.023-0.039,0.047-0.082,0.074-0.105
			c0.18-0.207,0.422-0.34,0.699-0.391c0.07-0.012,0.133-0.039,0.195-0.039c0.668,0,1.211,0.539,1.211,1.207
			C608.848,267.137,608.786,267.309,608.711,267.473 M634.149,239.602l-9.793-0.957l14.242-10.336l8.785,1.684L634.149,239.602z
			 M703.875,195.609c-0.664,0-1.207-0.539-1.207-1.207c0-0.383,0.203-0.711,0.48-0.934c0.012-0.004,0.02-0.008,0.027-0.012
			c0.203-0.156,0.43-0.254,0.699-0.254c0.383,0,0.715,0.195,0.934,0.488c0.008,0.004,0.008,0.008,0.02,0.02
			c0.148,0.203,0.25,0.426,0.25,0.691C705.079,195.07,704.54,195.609,703.875,195.609 M709.274,203.504
			c0-0.664,0.535-1.207,1.199-1.207c0.191,0,0.371,0.062,0.527,0.137c0.184,0.09,0.328,0.223,0.438,0.387
			c0.023,0.031,0.047,0.059,0.066,0.098c0.102,0.172,0.168,0.363,0.168,0.578v0.008c0,0.18-0.047,0.348-0.113,0.504
			c-0.195,0.402-0.605,0.695-1.086,0.695C709.809,204.703,709.274,204.164,709.274,203.504 M651.54,268.824L651.54,268.824
			c-0.113,0.043-0.242,0.082-0.375,0.082s-0.262-0.035-0.383-0.086c-0.109-0.031-0.203-0.094-0.297-0.16
			c-0.238-0.168-0.402-0.406-0.465-0.699c-0.02-0.082-0.059-0.164-0.059-0.262c0-0.152,0.039-0.297,0.094-0.426
			c0.168-0.449,0.602-0.773,1.109-0.773c0.672,0,1.203,0.535,1.203,1.199C652.368,268.234,652.02,268.672,651.54,268.824
			 M662.997,270.781c-0.137,0-0.266-0.027-0.391-0.078c-0.109-0.039-0.203-0.094-0.297-0.164c-0.301-0.215-0.512-0.555-0.512-0.957
			c0-0.668,0.539-1.203,1.199-1.203c0.664,0,1.203,0.535,1.203,1.203C664.2,270.246,663.661,270.781,662.997,270.781
			 M655.661,296.945c-0.039,0.031-0.074,0.051-0.109,0.07c-0.176,0.105-0.367,0.176-0.586,0.176c-0.504,0-0.934-0.301-1.109-0.73
			c-0.062-0.145-0.098-0.305-0.098-0.469c0-0.16,0.035-0.301,0.094-0.434c0.027-0.086,0.082-0.152,0.129-0.227
			c0.035-0.039,0.047-0.082,0.074-0.113c0.086-0.098,0.188-0.176,0.301-0.246c0,0,0,0,0-0.004c0.121-0.066,0.25-0.109,0.391-0.141
			c0.07-0.012,0.141-0.035,0.219-0.035c0.66,0,1.199,0.535,1.199,1.199C656.165,296.395,655.958,296.723,655.661,296.945
			 M593.168,339.406c-0.316,0.742-1.055,1.266-1.922,1.266c-0.57,0-1.09-0.234-1.465-0.605c-0.371-0.379-0.613-0.895-0.613-1.473
			c0-1.148,0.938-2.074,2.078-2.074c0.008,0,0.008,0.004,0.02,0.004c0.289,0.004,0.559,0.062,0.809,0.168
			c0.684,0.297,1.148,0.957,1.215,1.73c0.008,0.055,0.035,0.117,0.035,0.172C593.325,338.879,593.27,339.156,593.168,339.406
			 M623.641,333.68c0,1.145-0.926,2.078-2.074,2.078s-2.078-0.934-2.078-2.078c0-1.148,0.93-2.074,2.078-2.074
			c1.086,0,1.941,0.836,2.039,1.895c0.004,0.031,0.004,0.062,0.016,0.09C623.622,333.617,623.641,333.645,623.641,333.68
			 M717.352,250.539c-0.086,0.098-0.188,0.172-0.301,0.234l-0.008,0.008c-0.121,0.074-0.242,0.113-0.383,0.145
			c-0.074,0.008-0.141,0.039-0.215,0.039c-0.66,0-1.203-0.539-1.203-1.199c0-0.262,0.102-0.492,0.238-0.688l0,0
			c0.219-0.305,0.559-0.516,0.965-0.516c0.664,0,1.203,0.535,1.203,1.203c0,0.152-0.035,0.297-0.09,0.434
			c-0.031,0.086-0.086,0.148-0.133,0.227C717.391,250.457,717.379,250.504,717.352,250.539"/>
		<path fill="#FFFFFF" stroke="#FFFFFF" stroke-width="0.25" stroke-miterlimit="10" d="M603.852,311.406l15.609,0.43l28.258-19.934
			c0.551,0.402,1.219,0.648,1.945,0.648c1.832,0,3.316-1.484,3.316-3.316c0-1.824-1.484-3.316-3.316-3.316
			c-1.824,0.004-3.309,1.492-3.309,3.316c0,0.332,0.062,0.637,0.148,0.938l-27.684,19.531l-15.629-0.43l-46.445,33.715
			c-0.727-0.594-1.633-0.965-2.645-0.965c-2.309,0-4.191,1.879-4.191,4.191c0,2.309,1.883,4.191,4.191,4.191
			c2.312,0,4.191-1.883,4.191-4.191c0-0.539-0.113-1.051-0.297-1.52L603.852,311.406z M648.614,288.688L648.614,288.688
			c0.094-0.176,0.23-0.32,0.387-0.43c0.031-0.023,0.059-0.035,0.09-0.059c0.172-0.098,0.363-0.168,0.574-0.168
			c0.672,0,1.207,0.539,1.207,1.203c0,0.156-0.031,0.301-0.09,0.434c-0.035,0.098-0.098,0.172-0.148,0.246
			c-0.027,0.035-0.043,0.074-0.07,0.102c-0.219,0.258-0.531,0.422-0.898,0.422c-0.664,0-1.199-0.543-1.199-1.203
			C648.465,289.035,648.528,288.855,648.614,288.688 M554.911,348.125c-0.242,0.105-0.523,0.16-0.809,0.16s-0.559-0.055-0.812-0.16
			c-0.738-0.32-1.262-1.055-1.262-1.91c0-0.859,0.523-1.602,1.262-1.918c0.254-0.105,0.527-0.156,0.812-0.156
			c1.082,0,1.949,0.832,2.039,1.895c0.008,0.059,0.035,0.113,0.035,0.18C556.176,347.07,555.657,347.805,554.911,348.125"/>
		<polygon fill="#479FD8" points="616.27,387.254 612.086,387.254 607.895,387.254 612.086,387.254 		"/>
		<path fill="none" stroke="#FFFFFF" stroke-width="2" stroke-miterlimit="10" d="M89.18,301.387c0-2.191-1.781-3.965-3.973-3.965
			c-2.188,0-3.965,1.773-3.965,3.965c0,2.195,1.777,3.969,3.965,3.969C87.399,305.355,89.18,303.582,89.18,301.387z"/>
		<path fill="none" stroke="#FFFFFF" stroke-width="2" stroke-miterlimit="10" d="M232.395,305.387c0-2.188-1.773-3.965-3.965-3.965
			s-3.961,1.777-3.961,3.965c0,2.191,1.77,3.969,3.961,3.969S232.395,307.578,232.395,305.387z"/>
		<path fill="none" stroke="#FFFFFF" stroke-width="2" stroke-miterlimit="10" d="M313.583,291.602c0-2.188-1.781-3.965-3.969-3.965
			c-2.195,0-3.965,1.777-3.965,3.965c0,2.195,1.77,3.965,3.965,3.965C311.801,295.566,313.583,293.797,313.583,291.602z"/>
		<path fill="none" stroke="#FFFFFF" stroke-width="2" stroke-miterlimit="10" d="M492.614,284.895
			c-12.234,12.105-10.109,10-20.711,20.492H355.336"/>
		<path fill="none" stroke="#FFFFFF" stroke-width="2" stroke-miterlimit="10" d="M355.336,305.387c0-2.188-1.777-3.965-3.961-3.965
			c-2.203,0-3.969,1.777-3.969,3.965c0,2.191,1.766,3.969,3.969,3.969C353.559,309.355,355.336,307.578,355.336,305.387z"/>
		<path fill="none" stroke="#FFFFFF" stroke-width="2" stroke-miterlimit="10" d="M582.79,383.066
			c-12.234,12.109-10.109,10.004-20.711,20.496H445.516"/>
		<path fill="none" stroke="#FFFFFF" stroke-width="2" stroke-miterlimit="10" d="M445.516,403.562c0-2.191-1.777-3.969-3.965-3.969
			c-2.195,0-3.969,1.777-3.969,3.969s1.773,3.961,3.969,3.961C443.739,407.523,445.516,405.754,445.516,403.562z"/>
		<path fill="none" stroke="#FFFFFF" stroke-width="2" stroke-miterlimit="10" d="M262.458,383.066c0-2.195-1.773-3.965-3.969-3.965
			c-2.188,0-3.969,1.77-3.969,3.965c0,2.188,1.781,3.965,3.969,3.965C260.684,387.031,262.458,385.254,262.458,383.066z"/>
		<path fill="none" stroke="#FFFFFF" stroke-width="2" stroke-miterlimit="10" d="M521.836,372.523c0-2.191-1.773-3.965-3.965-3.965
			c-2.195,0-3.961,1.773-3.961,3.965c0,2.188,1.766,3.965,3.961,3.965C520.063,376.488,521.836,374.711,521.836,372.523z"/>
		<path fill="none" stroke="#FFFFFF" stroke-width="2" stroke-miterlimit="10" d="M540.661,315.215l-4.082,2.996H187.067
			c-8.551-7.98-9.438-8.809-17.977-16.789H89.18"/>
		<path fill="none" stroke="#FFFFFF" stroke-width="2" stroke-miterlimit="10" d="M552.606,284.211l-5.32,0.68H343.235
			c-8.238,8.152-12.469,12.34-20.711,20.492h-90.129"/>
		<polyline fill="none" stroke="#FFFFFF" stroke-width="2" stroke-miterlimit="10" points="616.079,380.07 611.965,383.066 
			262.458,383.066 		"/>
		<polyline fill="none" stroke="#FFFFFF" stroke-width="2" stroke-miterlimit="10" points="560.766,272.016 557.379,274.465 
			557.375,274.469 328.043,274.469 312.809,289.543 		"/>
		<polyline fill="none" stroke="#FFFFFF" stroke-width="2" stroke-miterlimit="10" points="570.415,369.527 566.333,372.523 
			520.848,372.523 		"/>
	</g>
	<g display="inline">
		<path fill="#FFFFFF" d="M71.239,336.836h4.699l1.594,17.773l8.383-17.773h3.879l3.273,17.305l6.105-17.305h4.98l-9.715,27.434
			h-4.203l-3.453-18.164l-8.574,18.164h-4.488L71.239,336.836z"/>
		<path fill="#FFFFFF" d="M122.676,336.145c3.77,0,6.879,1.215,9.324,3.637c2.449,2.426,3.676,5.504,3.676,9.23
			c0,2.863-0.723,5.555-2.172,8.086c-1.449,2.527-3.375,4.473-5.781,5.828s-5.172,2.031-8.289,2.031
			c-3.902,0-7.023-1.156-9.355-3.469c-2.328-2.312-3.496-5.359-3.496-9.137c0-4.289,1.395-7.977,4.18-11.059
			C113.872,337.859,117.844,336.145,122.676,336.145z M122.493,341.012c-1.965,0-3.758,0.477-5.383,1.426
			c-1.621,0.953-2.93,2.32-3.926,4.105c-0.992,1.781-1.492,3.625-1.492,5.527c0,2.25,0.691,4.16,2.07,5.727
			c1.383,1.566,3.363,2.352,5.949,2.352c3,0,5.543-1.059,7.637-3.172s3.145-4.68,3.145-7.703c0-2.5-0.738-4.5-2.211-6.004
			S124.879,341.012,122.493,341.012z"/>
		<path fill="#FFFFFF" d="M144.129,336.836h5.184l-3.141,22.715h8.512l-0.598,4.719h-13.707L144.129,336.836z"/>
		<path fill="#FFFFFF" d="M162.508,336.836h13.371l-0.629,4.867h-8.18l-0.824,5.668h8.266l-0.629,4.832h-8.262l-1.668,12.066h-5.195
			L162.508,336.836z"/>
		<path fill="#FFFFFF" d="M183.067,336.836h4.812c2.926,0,4.988,0.254,6.191,0.766c1.48,0.633,2.609,1.516,3.379,2.648
			c0.77,1.129,1.152,2.453,1.152,3.969c0,1.668-0.449,3.176-1.352,4.523c-0.895,1.352-2.102,2.332-3.617,2.945
			c-1.512,0.617-4.031,0.949-7.555,1l-1.594,11.582h-5.164L183.067,336.836z M186.704,347.84c2.797-0.012,4.617-0.309,5.473-0.879
			c0.852-0.57,1.277-1.422,1.277-2.555c0-0.633-0.168-1.168-0.496-1.602c-0.332-0.438-0.828-0.742-1.48-0.914
			c-0.652-0.176-1.949-0.262-3.879-0.262L186.704,347.84z"/>
		<path fill="#FFFFFF" d="M215.665,336.836h4.348l6.832,27.434h-4.996l-1.453-5.84h-10.887l-3.121,5.84h-5.539L215.665,336.836z
			 M219.125,353.582l-2.191-9.035l-4.836,9.035H219.125z"/>
		<path fill="#FFFFFF" d="M259.879,340.387l-3.75,3.477c-0.805-0.934-1.793-1.648-2.965-2.152s-2.438-0.754-3.805-0.754
			c-1.918,0-3.75,0.488-5.5,1.473c-1.754,0.98-3.121,2.277-4.094,3.895c-0.977,1.613-1.465,3.332-1.465,5.16
			c0,2.484,0.859,4.547,2.574,6.195c1.715,1.645,3.914,2.469,6.602,2.469c2.871,0,5.355-0.836,7.457-2.5l3.043,4.008
			c-3.121,2.203-6.734,3.301-10.836,3.301c-2.887,0-5.34-0.547-7.359-1.641c-2.016-1.094-3.641-2.703-4.867-4.82
			c-1.223-2.117-1.836-4.418-1.836-6.891c0-2.648,0.723-5.188,2.172-7.617c1.453-2.434,3.41-4.348,5.887-5.746
			c2.473-1.398,5.168-2.098,8.094-2.098C253.333,336.145,256.879,337.559,259.879,340.387z"/>
		<path fill="#FFFFFF" d="M268.274,336.836h5.172l-1.281,9.227l8.754-9.227h6.387l-11.953,12.535l9.445,14.898h-5.762l-7.711-12.16
			l-1.684,12.16h-5.113L268.274,336.836z"/>
		<path fill="#FFFFFF" d="M306.672,336.836h4.766c2.941,0,5.008,0.254,6.211,0.766c1.492,0.633,2.617,1.512,3.383,2.637
			c0.758,1.125,1.137,2.457,1.137,3.996c0,1.902-0.562,3.535-1.691,4.895c-1.133,1.359-2.84,2.309-5.117,2.844l5.973,12.297h-5.336
			l-5.855-11.973h-0.418l-1.652,11.973h-5.145L306.672,336.836z M310.336,347.801c2.789-0.012,4.602-0.301,5.445-0.867
			c0.84-0.566,1.262-1.414,1.262-2.547c0-0.645-0.168-1.184-0.504-1.621c-0.344-0.438-0.832-0.738-1.465-0.914
			c-0.641-0.176-1.93-0.262-3.883-0.262L310.336,347.801z"/>
		<path fill="#FFFFFF" d="M343.028,336.145c3.77,0,6.875,1.215,9.324,3.637c2.449,2.426,3.676,5.504,3.676,9.23
			c0,2.863-0.727,5.555-2.172,8.086c-1.453,2.527-3.375,4.473-5.781,5.828s-5.172,2.031-8.289,2.031
			c-3.91,0-7.023-1.156-9.355-3.469c-2.328-2.312-3.496-5.359-3.496-9.137c0-4.289,1.391-7.977,4.18-11.059
			C334.219,337.859,338.188,336.145,343.028,336.145z M342.844,341.012c-1.969,0-3.758,0.477-5.383,1.426
			c-1.621,0.953-2.934,2.32-3.926,4.105c-0.996,1.781-1.492,3.625-1.492,5.527c0,2.25,0.691,4.16,2.07,5.727
			c1.383,1.566,3.363,2.352,5.949,2.352c2.992,0,5.539-1.059,7.637-3.172c2.094-2.113,3.145-4.68,3.145-7.703
			c0-2.5-0.738-4.5-2.211-6.004S345.231,341.012,342.844,341.012z"/>
		<path fill="#FFFFFF" d="M364.442,336.836h4.258c2.59,0,4.512,0.277,5.77,0.84c1.262,0.559,2.277,1.43,3.047,2.609
			c0.77,1.184,1.156,2.453,1.156,3.824c0,1.145-0.277,2.223-0.816,3.234c-0.547,1.016-1.332,1.863-2.359,2.547
			c2.453,1.703,3.68,3.965,3.68,6.789c0,1.465-0.387,2.809-1.168,4.027c-0.777,1.219-1.738,2.117-2.879,2.695
			c-1.145,0.578-2.797,0.867-4.961,0.867h-9.473L364.442,336.836z M366.551,359.402l3.09,0.109c1.547,0,2.676-0.305,3.383-0.914
			c0.707-0.605,1.059-1.441,1.059-2.496c0-0.773-0.219-1.465-0.656-2.07c-0.438-0.609-1.02-1.039-1.746-1.289
			c-0.73-0.25-2.125-0.379-4.184-0.391L366.551,359.402z M368.122,347.727h0.922c1.375,0,2.312-0.102,2.805-0.309
			c0.488-0.203,0.906-0.586,1.254-1.145c0.344-0.562,0.516-1.184,0.516-1.867c0-0.633-0.152-1.18-0.457-1.641
			c-0.309-0.461-0.703-0.77-1.199-0.934c-0.496-0.16-1.5-0.242-3.016-0.242L368.122,347.727z"/>
		<path fill="#FFFFFF" d="M401.075,336.145c3.766,0,6.875,1.215,9.324,3.637c2.453,2.426,3.672,5.504,3.672,9.23
			c0,2.863-0.723,5.555-2.172,8.086c-1.445,2.527-3.375,4.473-5.781,5.828s-5.164,2.031-8.289,2.031
			c-3.902,0-7.02-1.156-9.352-3.469s-3.496-5.359-3.496-9.137c0-4.289,1.395-7.977,4.176-11.059
			C392.266,337.859,396.239,336.145,401.075,336.145z M400.887,341.012c-1.961,0-3.758,0.477-5.379,1.426
			c-1.625,0.953-2.93,2.32-3.926,4.105c-0.992,1.781-1.492,3.625-1.492,5.527c0,2.25,0.688,4.16,2.07,5.727
			c1.379,1.566,3.363,2.352,5.949,2.352c2.996,0,5.543-1.059,7.637-3.172c2.098-2.113,3.141-4.68,3.141-7.703
			c0-2.5-0.734-4.5-2.211-6.004C405.204,341.766,403.274,341.012,400.887,341.012z"/>
		<path fill="#FFFFFF" d="M418.911,336.836h16.746l-0.594,4.887h-5.719l-3.082,22.547h-5.113l3.086-22.547h-5.957L418.911,336.836z"
			/>
		<path fill="#FFFFFF" d="M440.219,336.836h5.035l-3.844,27.434h-4.941L440.219,336.836z"/>
		<path fill="#FFFFFF" d="M476.407,340.387l-3.75,3.477c-0.809-0.934-1.797-1.648-2.965-2.152s-2.438-0.754-3.805-0.754
			c-1.914,0-3.746,0.488-5.5,1.473c-1.754,0.98-3.121,2.277-4.094,3.895c-0.98,1.613-1.465,3.332-1.465,5.16
			c0,2.484,0.859,4.547,2.574,6.195c1.715,1.645,3.918,2.469,6.602,2.469c2.871,0,5.355-0.836,7.461-2.5l3.039,4.008
			c-3.125,2.203-6.734,3.301-10.836,3.301c-2.887,0-5.336-0.547-7.355-1.641c-2.023-1.094-3.648-2.703-4.867-4.82
			c-1.227-2.117-1.84-4.418-1.84-6.891c0-2.648,0.723-5.188,2.176-7.617c1.445-2.434,3.406-4.348,5.883-5.746
			c2.469-1.398,5.172-2.098,8.094-2.098C469.86,336.145,473.407,337.559,476.407,340.387z"/>
		<path fill="#FFFFFF" d="M498.641,340.66l-3.75,3.316c-1.543-1.988-2.977-2.98-4.309-2.98c-0.656,0-1.207,0.195-1.641,0.586
			s-0.652,0.859-0.652,1.406c0,0.512,0.203,1.074,0.598,1.699c0.395,0.621,1.605,1.996,3.617,4.121
			c1.066,1.129,1.773,1.934,2.109,2.406c0.805,1.094,1.387,2.117,1.742,3.066c0.355,0.953,0.531,1.918,0.531,2.898
			c0,2.203-0.781,4.047-2.348,5.539s-3.578,2.238-6.027,2.238c-3.727,0-6.77-1.77-9.117-5.312l3.953-3.191
			c1.59,2.426,3.316,3.637,5.164,3.637c0.883,0,1.629-0.285,2.23-0.855c0.602-0.574,0.906-1.262,0.906-2.07
			c0-0.637-0.184-1.281-0.551-1.941c-0.371-0.66-1.414-1.902-3.145-3.73c-1.828-1.926-3.023-3.383-3.598-4.363
			c-0.77-1.332-1.156-2.637-1.156-3.914c0-1.691,0.555-3.211,1.66-4.551c1.395-1.68,3.266-2.52,5.633-2.52
			C493.735,336.145,496.454,337.648,498.641,340.66z"/>
	</g>
	<g display="inline">
		<path fill="#FFFFFF" d="M345.509,390.421h17.119l-0.298,3.357l-13.856,24.766l-4.195-2.312l11.93-21.055h-11.296L345.509,390.421z
			"/>
		<path fill="#FFFFFF" d="M368.809,390.421h17.119l-0.298,3.357l-13.856,24.766l-4.195-2.312l11.93-21.055h-11.296L368.809,390.421z
			"/>
		<path fill="#FFFFFF" d="M395.56,398.832h-4.998c0.074-1.856,0.484-3.479,1.23-4.869c0.746-1.389,1.74-2.441,2.984-3.158
			c1.243-0.716,2.654-1.075,4.233-1.075c2.287,0,4.177,0.736,5.669,2.21c1.492,1.473,2.238,3.304,2.238,5.493
			c0,1.74-0.585,3.627-1.754,5.659c-1.168,2.033-4.034,5.393-8.597,10.08h9.231l-0.615,4.681h-16.952l0.466-3.6
			c4.712-4.781,7.771-7.979,9.176-9.595c1.89-2.198,3.059-3.819,3.506-4.863c0.36-0.807,0.541-1.589,0.541-2.347
			c0-0.857-0.283-1.568-0.849-2.134c-0.566-0.565-1.259-0.848-2.08-0.848c-0.87,0-1.598,0.326-2.182,0.979
			S395.808,397.228,395.56,398.832z"/>
		<path fill="#FFFFFF" d="M418.68,390.421h8.133l-3.729,27.433h-5.025l3.093-22.64h-4.101L418.68,390.421z"/>
	</g>
</g>
<g id="original" display="none">
	<g display="inline">
		<path fill="#479FD8" stroke="#479FD8" stroke-width="0.25" stroke-miterlimit="10" d="M583.33,372.33l27.89-20.246l16.626,2.643
			l13.09-9.498l-4.115,25.894L624,380.429l1.149,1.555l13.457-9.767l4.54-28.595l29.6-21.485l4.716-29.7l38.094-28.635
			c0.488,0.333,1.08,0.532,1.715,0.532c1.673,0,3.035-1.36,3.035-3.032c0-1.168-0.669-2.171-1.631-2.679l0.733-4.62l-10.714-14.046
			l-2.37,7.647l-24.94,16.656l-1.657,4.876l-9.76,7.767c-0.476-0.31-1.036-0.494-1.642-0.494c-1.167,0-2.169,0.666-2.678,1.636
			l-5.169-0.822c-0.153-0.873-0.667-1.611-1.387-2.064l4.271-18.047l13.864-10.066l8.406,3.623l20.877-15.158l7.428,7.248
			l-1.031-21.003c0.387-0.156,0.742-0.38,1.042-0.681c0.575-0.574,0.89-1.334,0.89-2.144c0-1.676-1.359-3.036-3.035-3.036
			c-0.313,0-0.613,0.058-0.9,0.152l-2.678-3.691c0.354-0.498,0.572-1.1,0.572-1.757c0-1.669-1.369-3.036-3.036-3.036
			c-1.683,0-3.043,1.366-3.043,3.036c0,0.321,0.062,0.615,0.151,0.901l-22.264,16.166l-10.543-0.19l-3.319,6.215l-25.823-5.147
			l-30.072,21.829l-0.693,4.368l-36.806,26.718l1.128,1.569l35.246-25.584l-3.008,18.952l-17.086,12.401l-23.488,3.213l0.243,1.916
			l23.99-3.28l15.911-11.55l-0.839,5.273l-50.515,36.665l1.146,1.561l20.441-14.837l-6.874,16.545l-33.448,24.282
			c-0.665-0.542-1.498-0.886-2.422-0.886c-2.116,0-3.833,1.723-3.833,3.84c0,2.114,1.717,3.836,3.833,3.836
			c2.117,0,3.833-1.723,3.833-3.836c0-0.493-0.1-0.958-0.271-1.394l33.885-24.594l8.295-19.97l27.718-20.12l5.397-33.994
			l28.738-20.864l23.528,4.69l-8.73,6.338l-10.647-2.039l-22.666,16.454c-0.494-0.358-1.1-0.57-1.753-0.57
			c-1.677,0-3.038,1.366-3.038,3.036c0,1.676,1.361,3.036,3.038,3.036c1.67,0,3.038-1.36,3.038-3.036
			c0-0.316-0.063-0.613-0.158-0.896l6.591-4.785l5.398,0.527l-1.646,10.356l-14.944,10.846c-0.498-0.351-1.098-0.564-1.755-0.564
			c-1.672,0-3.032,1.359-3.032,3.036c0,1.671,1.36,3.031,3.032,3.031c1.677,0,3.036-1.36,3.036-3.031
			c0-0.314-0.058-0.615-0.152-0.901l15.601-11.322l1.789-11.266l4.545,0.438l25.557-18.546l3.21-6.01l10.007,0.184L704,213.069
			c0.494,0.353,1.101,0.566,1.761,0.566c0.313,0,0.61-0.058,0.896-0.15l2.675,3.692c-0.351,0.495-0.564,1.095-0.564,1.754
			c0,1.388,0.941,2.543,2.207,2.906l0.79,16.099l-5.07-4.949l-21.308,15.474l-8.41-3.627l-15.333,11.129l-4.436,18.755
			c-1.539,0.144-2.755,1.428-2.755,3.006c0,1.674,1.362,3.036,3.036,3.036c1.168,0,2.172-0.668,2.68-1.631l5.17,0.824
			c0.242,1.426,1.486,2.532,2.987,2.532c1.67,0,3.036-1.366,3.036-3.036c0-0.369-0.077-0.707-0.194-1.031l10.204-8.128l1.632-4.786
			l24.971-16.672l1.455-4.714l7.941,10.399l-0.604,3.796c-1.432,0.241-2.531,1.481-2.531,2.987c0,0.329,0.065,0.643,0.166,0.942
			l-51.72,38.893c-0.49-0.34-1.08-0.539-1.714-0.539c-1.677,0-3.037,1.362-3.037,3.039c0,1.673,1.36,3.036,3.037,3.036
			c1.669,0,3.035-1.362,3.035-3.036c0-0.335-0.072-0.649-0.168-0.95l11.406-8.576l-1.845,11.616l-26.782,19.442l-23.633,1.505
			l-17.945,13.025c-0.662-0.54-1.502-0.882-2.422-0.882c-2.115,0-3.841,1.719-3.841,3.836c0,2.113,1.726,3.84,3.841,3.84
			c2.118,0,3.835-1.727,3.835-3.84c0-0.489-0.101-0.958-0.269-1.39l17.487-12.696l20.016-1.272l-10.888,7.901
			c-0.659-0.542-1.494-0.882-2.417-0.882c-2.117,0-3.84,1.718-3.84,3.837c0,2.115,1.723,3.838,3.84,3.838
			c2.116,0,3.838-1.723,3.838-3.838c0-0.492-0.106-0.961-0.275-1.393l39.024-28.33l-2.001,12.613l-29.271,21.252l-14.329,10.395
			l-16.633-2.639l-28.55,20.719 M534.517,353.291c-0.229,0.096-0.482,0.146-0.742,0.146c-0.268,0-0.513-0.05-0.742-0.146
			c-0.681-0.29-1.16-0.969-1.16-1.753c0-0.79,0.479-1.467,1.16-1.754c0.229-0.097,0.475-0.148,0.742-0.148
			c0.993,0,1.784,0.769,1.868,1.742c0.005,0.051,0.036,0.101,0.036,0.16C535.679,352.322,535.199,353.001,534.517,353.291
			 M621.721,259.396c-0.027,0.025-0.058,0.039-0.085,0.06c-0.162,0.095-0.336,0.16-0.534,0.16c-0.61,0-1.104-0.495-1.104-1.104
			c0-0.144,0.034-0.278,0.08-0.4c0.035-0.081,0.085-0.145,0.134-0.218c0.022-0.031,0.035-0.065,0.066-0.096
			c0.165-0.188,0.388-0.31,0.646-0.352c0.06-0.011,0.115-0.034,0.177-0.034c0.605,0,1.1,0.491,1.1,1.1
			C622.202,258.884,622,259.198,621.721,259.396 M618.604,277.518L618.604,277.518c-0.076,0.16-0.203,0.296-0.356,0.396
			c-0.026,0.024-0.052,0.039-0.084,0.056c-0.162,0.094-0.333,0.162-0.537,0.162c-0.605,0-1.099-0.488-1.099-1.099
			c0-0.145,0.026-0.277,0.08-0.397c0.029-0.083,0.084-0.149,0.126-0.218c0.023-0.034,0.044-0.072,0.072-0.096
			c0.161-0.19,0.385-0.31,0.64-0.356c0.063-0.013,0.117-0.037,0.181-0.037c0.608,0,1.104,0.493,1.104,1.104
			C618.73,277.208,618.675,277.366,618.604,277.518 M641.905,251.991l-8.969-0.873l13.04-9.466l8.048,1.539L641.905,251.991z
			 M705.761,211.703c-0.611,0-1.106-0.493-1.106-1.104c0-0.352,0.182-0.653,0.44-0.856c0.011-0.004,0.015-0.008,0.025-0.013
			c0.184-0.141,0.393-0.23,0.641-0.23c0.353,0,0.653,0.179,0.855,0.446c0.005,0.004,0.009,0.009,0.014,0.02
			c0.139,0.183,0.23,0.391,0.23,0.634C706.861,211.21,706.368,211.703,705.761,211.703 M710.703,218.932
			c0-0.608,0.492-1.103,1.101-1.103c0.175,0,0.34,0.055,0.484,0.125c0.164,0.081,0.295,0.203,0.401,0.352
			c0.019,0.03,0.04,0.053,0.06,0.09c0.09,0.158,0.154,0.333,0.154,0.531v0.004c0,0.167-0.042,0.32-0.106,0.461
			c-0.178,0.371-0.551,0.638-0.993,0.638C711.195,220.031,710.703,219.538,710.703,218.932 M657.831,278.755L657.831,278.755
			c-0.107,0.039-0.223,0.075-0.342,0.075c-0.125,0-0.241-0.032-0.353-0.079c-0.103-0.028-0.189-0.088-0.274-0.148
			c-0.216-0.151-0.365-0.371-0.423-0.638c-0.018-0.077-0.053-0.151-0.053-0.241c0-0.141,0.035-0.271,0.082-0.388
			c0.155-0.415,0.553-0.711,1.021-0.711c0.61,0,1.1,0.491,1.1,1.099C658.588,278.215,658.268,278.616,657.831,278.755
			 M668.326,280.549c-0.132,0-0.245-0.028-0.358-0.076c-0.103-0.034-0.188-0.085-0.275-0.147c-0.275-0.199-0.47-0.51-0.47-0.877
			c0-0.611,0.495-1.104,1.104-1.104c0.605,0,1.1,0.493,1.1,1.104C669.425,280.056,668.931,280.549,668.326,280.549 M661.601,304.508
			c-0.032,0.028-0.063,0.047-0.096,0.064c-0.163,0.099-0.34,0.163-0.538,0.163c-0.462,0-0.855-0.275-1.017-0.667
			c-0.059-0.135-0.087-0.282-0.087-0.432c0-0.145,0.028-0.275,0.08-0.397c0.031-0.077,0.08-0.141,0.122-0.207
			c0.03-0.037,0.042-0.075,0.07-0.102c0.074-0.092,0.167-0.162,0.269-0.227c0,0,0.006,0,0.006-0.004
			c0.107-0.06,0.226-0.1,0.357-0.13c0.062-0.009,0.126-0.032,0.199-0.032c0.605,0,1.099,0.491,1.099,1.1
			C662.066,304.003,661.876,304.306,661.601,304.508 M604.37,343.394c-0.291,0.683-0.966,1.161-1.756,1.161
			c-0.522,0-1.003-0.213-1.345-0.555c-0.342-0.346-0.56-0.819-0.56-1.347c0-1.052,0.856-1.902,1.904-1.902
			c0.004,0,0.008,0.004,0.016,0.004c0.267,0.004,0.513,0.058,0.742,0.153c0.621,0.271,1.049,0.878,1.113,1.584
			c0.004,0.051,0.031,0.107,0.031,0.16C604.516,342.913,604.466,343.165,604.37,343.394 M632.278,338.151
			c0,1.047-0.847,1.901-1.899,1.901c-1.051,0-1.9-0.854-1.9-1.901c0-1.053,0.85-1.901,1.9-1.901c0.993,0,1.782,0.767,1.871,1.738
			c0.003,0.025,0.003,0.055,0.012,0.079C632.261,338.095,632.278,338.119,632.278,338.151 M718.098,262.007
			c-0.076,0.092-0.171,0.16-0.271,0.218l-0.006,0.004c-0.111,0.068-0.226,0.106-0.352,0.132c-0.068,0.009-0.127,0.039-0.198,0.039
			c-0.604,0-1.1-0.496-1.1-1.1c0-0.241,0.091-0.451,0.218-0.63l0,0c0.202-0.279,0.512-0.474,0.882-0.474
			c0.607,0,1.103,0.493,1.103,1.104c0,0.139-0.035,0.271-0.081,0.397c-0.03,0.077-0.081,0.134-0.125,0.207
			C718.139,261.935,718.126,261.977,718.098,262.007"/>
		<path fill="#479FD8" stroke="#479FD8" stroke-width="0.25" stroke-miterlimit="10" d="M614.157,317.753l14.293,0.393
			l25.882-18.255c0.504,0.368,1.114,0.594,1.78,0.594c1.678,0,3.036-1.361,3.036-3.036c0-1.673-1.358-3.041-3.036-3.041
			c-1.67,0.005-3.032,1.367-3.032,3.041c0,0.301,0.06,0.581,0.137,0.856l-25.354,17.889l-14.312-0.396l-42.535,30.879
			c-0.665-0.544-1.496-0.883-2.421-0.883c-2.111,0-3.838,1.718-3.838,3.836c0,2.116,1.727,3.839,3.838,3.839
			c2.117,0,3.838-1.723,3.838-3.839c0-0.491-0.101-0.96-0.275-1.392L614.157,317.753z M655.151,296.945L655.151,296.945
			c0.086-0.158,0.208-0.291,0.353-0.393c0.028-0.019,0.054-0.032,0.083-0.053c0.159-0.09,0.333-0.154,0.525-0.154
			c0.613,0,1.106,0.495,1.106,1.104c0,0.141-0.028,0.275-0.084,0.397c-0.034,0.087-0.087,0.156-0.133,0.222
			c-0.026,0.035-0.04,0.069-0.064,0.096c-0.204,0.235-0.487,0.384-0.825,0.384c-0.604,0-1.097-0.495-1.097-1.099
			C655.015,297.263,655.073,297.101,655.151,296.945 M569.333,351.38c-0.224,0.097-0.478,0.148-0.737,0.148
			c-0.263,0-0.513-0.051-0.743-0.148c-0.681-0.292-1.157-0.965-1.157-1.75s0.477-1.465,1.157-1.755
			c0.23-0.098,0.48-0.146,0.743-0.146c0.99,0,1.784,0.765,1.866,1.738c0.006,0.054,0.033,0.103,0.033,0.163
			C570.495,350.415,570.019,351.087,569.333,351.38"/>
		<path fill="#479FD8" d="M105.251,357.059c-2.023,11.324-7.511,17.946-19.558,17.946c-9.897,0-16.099-5.783-14.846-16.812
			c0-0.66,0.06-1.313,0.179-2.031l4.174-23.55h7.338l-4.001,22.538c-0.175,0.775-0.237,1.429-0.237,2.09
			c-0.655,6.792,1.734,10.907,8.223,10.907c7.28,0,10.378-5.186,11.69-12.581l4.053-22.954h7.28L105.251,357.059z"/>
		<polygon fill="#479FD8" points="143.039,374.35 125.153,344.659 119.963,374.35 113.104,374.35 120.441,332.61 126.286,332.61 
			144.173,362.364 149.358,332.61 156.218,332.61 148.884,374.35 		"/>
		<polygon fill="#479FD8" points="168.722,332.612 176.06,332.612 168.722,374.352 161.392,374.352 		"/>
		<path fill="#479FD8" d="M205.681,331.953c11.746,0,20.096,7.401,20.096,19.147c0,13.352-9.125,23.904-23.673,23.904
			c-13.472,0-20.627-8.644-20.627-19.438C181.476,342.395,190.957,331.953,205.681,331.953 M202.402,368.147
			c9.182,0,15.441-6.738,15.441-16.453c0-7.692-4.949-12.88-12.818-12.88c-9.3,0-15.625,7.092-15.625,16.336
			C189.4,363.14,194.829,368.147,202.402,368.147"/>
		<polygon fill="#479FD8" points="260.223,374.35 242.337,344.659 237.145,374.35 230.29,374.35 237.625,332.61 243.471,332.61 
			261.354,362.364 266.542,332.61 273.399,332.61 266.068,374.35 		"/>
		<polygon fill="#479FD8" points="294.373,374.467 288.828,374.467 279.046,332.612 286.505,332.612 293.301,363.496 
			310.776,332.612 318.463,332.612 		"/>
		<polygon fill="#479FD8" points="325.008,332.612 332.343,332.612 325.008,374.352 317.675,374.352 		"/>
		<polygon fill="#479FD8" points="344.796,332.612 352.131,332.612 345.992,367.497 365.184,367.497 363.996,374.352 
			337.459,374.352 		"/>
		<polygon fill="#479FD8" points="377.874,332.612 385.212,332.612 379.065,367.497 398.264,367.497 397.071,374.352 
			370.539,374.352 		"/>
		<polygon fill="#479FD8" points="410.957,332.612 435.4,332.612 434.205,339.467 417.101,339.467 415.25,349.902 430.57,349.902 
			429.381,356.758 414.061,356.758 412.148,367.497 429.853,367.497 428.662,374.352 403.62,374.352 		"/>
		<polygon fill="#479FD8" points="480.404,356.523 461.028,356.523 457.864,374.352 450.533,374.352 457.864,332.612 465.2,332.612 
			462.217,349.662 481.595,349.662 484.578,332.612 491.85,332.612 484.521,374.352 477.243,374.352 		"/>
		<path fill="#479FD8" d="M499.05,344.298c0-6.441,5.187-12.342,15.025-12.342c5.069,0,9.187,1.964,11.33,4.654l-4.473,5.12
			c-1.671-1.727-4.054-2.917-7.272-2.917c-4.352,0-6.74,2.208-6.74,4.949c0,7.336,15.504,6.734,15.504,18.542
			c0,7.452-5.607,12.696-14.551,12.696c-6.734,0-11.746-2.976-13.534-7.028l4.711-4.657c1.964,3.1,5.068,4.83,8.823,4.83
			c3.643,0,6.683-1.785,6.683-5.126C514.556,355.624,499.05,355.866,499.05,344.298"/>
		<polygon fill="#479FD8" points="625.528,387.214 621.696,387.214 617.859,387.214 621.696,387.214 		"/>
		<circle fill="none" stroke="#479FD8" stroke-width="2" stroke-miterlimit="10" cx="139.174" cy="308.578" r="3.633"/>
		<path fill="none" stroke="#479FD8" stroke-width="2" stroke-miterlimit="10" d="M273.967,312.239c0-2.005-1.625-3.631-3.629-3.631
			c-2.007,0-3.632,1.626-3.632,3.631c0,2.009,1.625,3.634,3.632,3.634C272.343,315.873,273.967,314.248,273.967,312.239z"/>
		<path fill="none" stroke="#479FD8" stroke-width="2" stroke-miterlimit="10" d="M348.318,299.615c0-2.004-1.626-3.633-3.63-3.633
			c-2.012,0-3.634,1.629-3.634,3.633c0,2.009,1.622,3.629,3.634,3.629C346.692,303.245,348.318,301.625,348.318,299.615z"/>
		<path fill="none" stroke="#479FD8" stroke-width="2" stroke-miterlimit="10" d="M512.278,293.471
			c-11.201,11.089-9.257,9.161-18.966,18.768H386.561"/>
		<path fill="none" stroke="#479FD8" stroke-width="2" stroke-miterlimit="10" d="M386.559,312.239c0-2.005-1.625-3.631-3.629-3.631
			c-2.012,0-3.631,1.626-3.631,3.631c0,2.009,1.619,3.634,3.631,3.634C384.934,315.873,386.559,314.248,386.559,312.239z"/>
		<path fill="none" stroke="#479FD8" stroke-width="2" stroke-miterlimit="10" d="M594.865,383.38
			c-11.2,11.091-9.255,9.163-18.968,18.77H469.149"/>
		<path fill="none" stroke="#479FD8" stroke-width="2" stroke-miterlimit="10" d="M469.147,402.15c0-2.007-1.627-3.635-3.631-3.635
			c-2.009,0-3.632,1.628-3.632,3.635c0,2.008,1.623,3.63,3.632,3.63C467.52,405.78,469.147,404.158,469.147,402.15z"/>
		<path fill="none" stroke="#479FD8" stroke-width="2" stroke-miterlimit="10" d="M301.497,383.38c0-2.01-1.623-3.629-3.631-3.629
			c-2.005,0-3.632,1.62-3.632,3.629c0,2.004,1.627,3.631,3.632,3.631C299.874,387.011,301.497,385.385,301.497,383.38z"/>
		<path fill="none" stroke="#479FD8" stroke-width="2" stroke-miterlimit="10" d="M539.045,373.724c0-2.005-1.624-3.631-3.631-3.631
			c-2.012,0-3.632,1.626-3.632,3.631c0,2.004,1.62,3.631,3.632,3.631C537.421,377.355,539.045,375.729,539.045,373.724z"/>
		<path fill="none" stroke="#479FD8" stroke-width="2" stroke-miterlimit="10" d="M556.285,321.24l-3.737,2.744H232.457
			c-7.831-7.308-8.64-8.065-16.462-15.375h-73.188"/>
		<path fill="none" stroke="#479FD8" stroke-width="2" stroke-miterlimit="10" d="M567.222,292.846l-4.869,0.624H375.477
			c-7.544,7.466-11.418,11.302-18.966,18.768h-82.544"/>
		<polyline fill="none" stroke="#479FD8" stroke-width="2" stroke-miterlimit="10" points="625.355,380.635 621.585,383.38 
			301.497,383.38 		"/>
		<polyline fill="none" stroke="#479FD8" stroke-width="2" stroke-miterlimit="10" points="574.699,281.676 571.595,283.921 
			571.592,283.924 361.564,283.924 347.615,297.728 		"/>
		<polyline fill="none" stroke="#479FD8" stroke-width="2" stroke-miterlimit="10" points="583.535,370.98 579.796,373.724 
			538.141,373.724 		"/>
	</g>
</g>
<g id="new" display="none">
	<path display="inline" fill="#479FD8" stroke="#479FD8" stroke-width="0.25" stroke-miterlimit="10" d="M614.157,317.753
		l14.293,0.393l25.882-18.255c0.504,0.368,1.114,0.594,1.78,0.594c1.678,0,3.036-1.361,3.036-3.036c0-1.673-1.358-3.041-3.036-3.041
		c-1.67,0.005-3.032,1.367-3.032,3.041c0,0.301,0.06,0.581,0.137,0.856l-25.354,17.889l-14.312-0.396l-42.535,30.879
		c-0.665-0.544-1.496-0.883-2.421-0.883c-2.111,0-3.838,1.718-3.838,3.836c0,2.116,1.727,3.839,3.838,3.839
		c2.117,0,3.838-1.723,3.838-3.839c0-0.491-0.101-0.96-0.275-1.392L614.157,317.753z M655.151,296.945L655.151,296.945
		c0.086-0.158,0.208-0.291,0.353-0.393c0.028-0.019,0.054-0.032,0.083-0.053c0.159-0.09,0.333-0.154,0.525-0.154
		c0.613,0,1.106,0.495,1.106,1.104c0,0.141-0.028,0.275-0.084,0.397c-0.034,0.087-0.087,0.156-0.133,0.222
		c-0.026,0.035-0.04,0.069-0.064,0.096c-0.204,0.235-0.487,0.384-0.825,0.384c-0.604,0-1.097-0.495-1.097-1.099
		C655.015,297.263,655.073,297.101,655.151,296.945 M569.333,351.38c-0.224,0.097-0.478,0.148-0.737,0.148
		c-0.263,0-0.513-0.051-0.743-0.148c-0.681-0.292-1.157-0.965-1.157-1.75s0.477-1.465,1.157-1.755
		c0.23-0.098,0.48-0.146,0.743-0.146c0.99,0,1.784,0.765,1.866,1.738c0.006,0.054,0.033,0.103,0.033,0.163
		C570.495,350.415,570.019,351.087,569.333,351.38"/>
	<path display="inline" fill="#479FD8" stroke="#479FD8" stroke-width="0.25" stroke-miterlimit="10" d="M718.675,258.622
		l0.733-4.62l-10.714-14.046l-2.37,7.647l-24.94,16.656l-1.657,4.876l-9.76,7.767c-0.476-0.31-1.036-0.494-1.642-0.494
		c-1.167,0-2.169,0.666-2.678,1.636l-5.169-0.822c-0.153-0.873-0.667-1.611-1.387-2.064l4.271-18.047l13.864-10.066l8.406,3.623
		l20.877-15.158l7.428,7.248l-1.031-21.003c0.387-0.156,0.742-0.38,1.042-0.681c0.575-0.574,0.89-1.334,0.89-2.144
		c0-1.676-1.359-3.036-3.035-3.036c-0.313,0-0.613,0.058-0.9,0.152l-2.678-3.691c0.354-0.498,0.572-1.1,0.572-1.757
		c0-1.669-1.369-3.036-3.036-3.036c-1.683,0-3.043,1.366-3.043,3.036c0,0.321,0.062,0.615,0.151,0.901l-22.264,16.166l-10.543-0.19
		l-3.319,6.215l-25.823-5.147l-30.072,21.829l-0.693,4.368l-34.849,25.298l-160.729-0.006l-40.949-31.216l-225.3,0.075
		c-0.112-0.451-0.308-0.891-0.597-1.286c-1.246-1.712-3.65-2.091-5.362-0.846c-1.707,1.243-2.089,3.651-0.843,5.363
		s3.654,2.085,5.36,0.842c0.748-0.544,1.22-1.308,1.438-2.139l224.71-0.073l38.256,29.278l-139.239-0.027l-21.995-16.812
		l-87.938,0.075c-0.112-0.451-0.308-0.891-0.597-1.286c-1.246-1.712-3.65-2.091-5.362-0.846c-1.707,1.243-2.089,3.651-0.843,5.363
		s3.654,2.085,5.36,0.842c0.748-0.544,1.22-1.308,1.438-2.139l87.349-0.073l19.349,14.875l-89.09-0.039
		c-0.218-0.831-0.689-1.595-1.438-2.139c-1.706-1.243-4.114-0.87-5.36,0.842s-0.864,4.12,0.843,5.363
		c1.712,1.245,4.116,0.866,5.362-0.846c0.289-0.396,0.484-0.835,0.597-1.286l91.605,0.041l3.254,0.001l139.525,0.028h2.788
		l156.935,0.005l2.095,0l2.668-1.937l31.128-22.595l-3.008,18.952l-17.086,12.401l-22.776,3.116l-39.162-0.005l-3.27,0l-62.19-0.008
		L191.24,291.84c-0.218-0.831-0.689-1.595-1.438-2.139c-1.706-1.243-4.114-0.87-5.36,0.842s-0.864,4.12,0.843,5.363
		c1.712,1.246,4.116,0.866,5.362-0.846c0.289-0.396,0.484-0.835,0.597-1.286l268.338,0.059l-13.312,9.732l-243.152-0.073
		c-0.218-0.831-0.689-1.595-1.438-2.139c-1.706-1.243-4.114-0.87-5.36,0.842s-0.864,4.12,0.843,5.363
		c1.712,1.246,4.116,0.866,5.362-0.846c0.289-0.396,0.484-0.835,0.597-1.286l243.742,0.075l15.992-11.667l64.27,0.009h0.961
		l38.854,0.005l23.434-3.204l15.911-11.55l-0.839,5.273l-49.911,36.227l-335.311-0.073c-0.218-0.831-0.689-1.595-1.438-2.139
		c-1.706-1.243-4.114-0.87-5.36,0.842s-0.864,4.12,0.843,5.363c1.712,1.246,4.116,0.866,5.362-0.846
		c0.289-0.396,0.484-0.835,0.597-1.286l314.062-0.12L501.25,345.89l-90.33-0.054l-14.829-10.538l-48.473,0.035l-3.287,0.001
		l-109.195,0.04c-0.112-0.451-0.308-0.891-0.597-1.286c-1.246-1.712-3.65-2.091-5.362-0.846c-1.707,1.243-2.089,3.651-0.843,5.363
		s3.654,2.085,5.36,0.842c0.748-0.544,1.22-1.308,1.438-2.139l106.471-0.038l-26.353,18.702l-60.12-0.073
		c-0.218-0.831-0.689-1.595-1.438-2.139c-1.706-1.243-4.114-0.87-5.36,0.842s-0.864,4.12,0.843,5.363
		c1.712,1.245,4.116,0.866,5.362-0.846c0.289-0.396,0.484-0.835,0.597-1.286l60.71,0.075l29.048-20.64l50.604-0.034l12.129,8.596
		l3.113,1.969l1.726,0.001l89.379,0.025l35.721-25.488l18.469,0.194l20.486-14.776l-6.874,16.545l-33.448,24.282
		c-0.665-0.542-1.498-0.886-2.422-0.886c-2.116,0-3.833,1.723-3.833,3.84c0,2.114,1.717,3.836,3.833,3.836
		c2.117,0,3.833-1.723,3.833-3.836c0-0.493-0.1-0.958-0.271-1.394l33.885-24.594l8.295-19.97l27.718-20.12l5.397-33.994
		l28.738-20.864l23.528,4.69l-8.73,6.338l-10.647-2.039l-22.666,16.454c-0.494-0.358-1.1-0.57-1.753-0.57
		c-1.677,0-3.038,1.366-3.038,3.036c0,1.676,1.361,3.036,3.038,3.036c1.67,0,3.038-1.36,3.038-3.036
		c0-0.316-0.063-0.613-0.158-0.896l6.591-4.785l5.398,0.527l-1.646,10.356l-14.944,10.846c-0.498-0.351-1.098-0.564-1.755-0.564
		c-1.672,0-3.032,1.359-3.032,3.036c0,1.671,1.36,3.031,3.032,3.031c1.677,0,3.036-1.36,3.036-3.031
		c0-0.314-0.058-0.615-0.152-0.901l15.601-11.322l1.789-11.266l4.545,0.438l25.557-18.546l3.21-6.01l10.007,0.184L704,213.069
		c0.494,0.353,1.101,0.566,1.761,0.566c0.313,0,0.61-0.058,0.896-0.15l2.675,3.692c-0.351,0.495-0.564,1.095-0.564,1.754
		c0,1.388,0.941,2.543,2.207,2.906l0.79,16.099l-5.07-4.949l-21.308,15.474l-8.41-3.627l-15.333,11.129l-4.436,18.755
		c-1.539,0.144-2.755,1.428-2.755,3.006c0,1.674,1.362,3.036,3.036,3.036c1.168,0,2.172-0.668,2.68-1.631l5.17,0.824
		c0.242,1.426,1.486,2.532,2.987,2.532c1.67,0,3.036-1.366,3.036-3.036c0-0.369-0.077-0.707-0.194-1.031l10.204-8.128l1.632-4.786
		l24.971-16.672l1.455-4.714l7.941,10.399l-0.604,3.796c-1.432,0.241-2.531,1.481-2.531,2.987c0,0.329,0.065,0.643,0.166,0.942
		l-51.72,38.893c-0.49-0.34-1.08-0.539-1.714-0.539c-1.677,0-3.037,1.362-3.037,3.039c0,1.673,1.36,3.036,3.037,3.036
		c1.669,0,3.035-1.362,3.035-3.036c0-0.335-0.072-0.649-0.168-0.95l11.406-8.576l-1.845,11.616l-26.782,19.442l-23.633,1.505
		l-17.945,13.025c-0.662-0.54-1.502-0.882-2.422-0.882c-2.115,0-3.841,1.719-3.841,3.836c0,2.113,1.726,3.84,3.841,3.84
		c2.118,0,3.835-1.727,3.835-3.84c0-0.489-0.101-0.958-0.269-1.39l17.487-12.696l20.016-1.272l-10.888,7.901
		c-0.659-0.542-1.494-0.882-2.417-0.882c-2.117,0-3.84,1.718-3.84,3.837c0,2.115,1.723,3.838,3.84,3.838
		c2.116,0,3.838-1.723,3.838-3.838c0-0.492-0.106-0.961-0.275-1.393l39.024-28.33l-2.001,12.613l-29.271,21.252l-14.329,10.395
		l-16.633-2.639l-28.109,20.4l-108.837-0.046l-20.794-14.146l-102.342,0.075c-0.111-0.451-0.307-0.891-0.596-1.286
		c-1.246-1.712-3.65-2.091-5.363-0.846c-1.707,1.243-2.088,3.651-0.842,5.363s3.654,2.085,5.359,0.842
		c0.748-0.544,1.221-1.308,1.438-2.139l101.752-0.073l17.991,12.213l-200.515-0.063c-0.218-0.831-0.689-1.595-1.438-2.139
		c-1.706-1.243-4.114-0.87-5.36,0.842s-0.864,4.12,0.843,5.363c1.712,1.246,4.116,0.866,5.362-0.846
		c0.289-0.396,0.484-0.835,0.597-1.286l224.29,0.075l-0.002-0.007l89.168,0.04l27.887-20.303l16.626,2.643l13.09-9.498l2.212-1.608
		l29.6-21.485l4.716-29.7l38.094-28.635c0.488,0.333,1.08,0.532,1.715,0.532c1.673,0,3.035-1.36,3.035-3.032
		C720.306,260.133,719.637,259.129,718.675,258.622z M145.748,251.4c-0.213,0.154-0.443,0.263-0.688,0.319
		c-0.72,0.167-1.506-0.103-1.968-0.737c-0.463-0.636-0.474-1.46-0.095-2.097c0.129-0.214,0.302-0.401,0.514-0.557
		c0.21-0.152,0.445-0.261,0.683-0.314c0.728-0.168,1.508,0.096,1.971,0.731c0.034,0.048,0.041,0.103,0.068,0.15
		C146.739,249.731,146.547,250.817,145.748,251.4z M159.538,265.776c-0.213,0.154-0.443,0.263-0.688,0.319
		c-0.72,0.167-1.506-0.103-1.968-0.737c-0.463-0.636-0.474-1.46-0.095-2.097c0.129-0.214,0.302-0.401,0.514-0.557
		c0.21-0.152,0.445-0.261,0.683-0.314c0.728-0.168,1.508,0.096,1.971,0.731c0.034,0.048,0.041,0.103,0.068,0.15
		C160.529,264.107,160.337,265.193,159.538,265.776z M177.631,281.895c-0.027,0.048-0.034,0.103-0.068,0.15
		c-0.463,0.636-1.243,0.899-1.971,0.731c-0.237-0.054-0.473-0.162-0.683-0.314c-0.212-0.155-0.385-0.343-0.514-0.557
		c-0.379-0.637-0.368-1.461,0.095-2.097c0.462-0.635,1.248-0.904,1.968-0.737c0.244,0.057,0.475,0.165,0.688,0.319
		C177.945,279.974,178.137,281.06,177.631,281.895z M189.149,293.77c-0.027,0.048-0.034,0.103-0.068,0.15
		c-0.463,0.636-1.243,0.899-1.971,0.731c-0.237-0.054-0.473-0.162-0.683-0.314c-0.212-0.155-0.385-0.343-0.514-0.557
		c-0.379-0.637-0.368-1.461,0.095-2.097c0.462-0.635,1.248-0.904,1.968-0.737c0.244,0.057,0.475,0.165,0.688,0.319
		C189.464,291.849,189.655,292.935,189.149,293.77z M201.027,305.421c-0.027,0.048-0.034,0.103-0.068,0.15
		c-0.463,0.636-1.243,0.899-1.971,0.731c-0.237-0.054-0.473-0.162-0.683-0.314c-0.212-0.155-0.385-0.343-0.514-0.557
		c-0.379-0.637-0.368-1.461,0.095-2.097c0.462-0.635,1.248-0.904,1.968-0.737c0.244,0.057,0.475,0.165,0.688,0.319
		C201.342,303.5,201.533,304.586,201.027,305.421z M218.134,322.452c-0.027,0.048-0.034,0.103-0.068,0.15
		c-0.463,0.636-1.243,0.899-1.971,0.731c-0.237-0.054-0.473-0.162-0.683-0.314c-0.212-0.155-0.385-0.343-0.514-0.557
		c-0.379-0.637-0.368-1.461,0.095-2.097c0.462-0.635,1.248-0.904,1.968-0.737c0.244,0.057,0.475,0.165,0.688,0.319
		C218.448,320.531,218.64,321.617,218.134,322.452z M232.556,337.881c-0.213,0.154-0.443,0.263-0.688,0.319
		c-0.72,0.167-1.506-0.103-1.968-0.737c-0.463-0.636-0.474-1.46-0.095-2.097c0.129-0.214,0.302-0.401,0.514-0.557
		c0.21-0.152,0.445-0.261,0.683-0.314c0.728-0.168,1.508,0.096,1.971,0.731c0.034,0.048,0.041,0.103,0.068,0.15
		C233.547,336.212,233.355,337.298,232.556,337.881z M253.04,357.828c-0.027,0.048-0.034,0.103-0.068,0.15
		c-0.463,0.636-1.243,0.899-1.971,0.731c-0.237-0.054-0.473-0.162-0.683-0.314c-0.212-0.155-0.385-0.343-0.514-0.557
		c-0.379-0.637-0.368-1.461,0.095-2.097c0.462-0.635,1.248-0.904,1.968-0.737c0.244,0.057,0.475,0.165,0.688,0.319
		C253.354,355.907,253.545,356.993,253.04,357.828z M534.517,353.291c-0.229,0.096-0.482,0.146-0.742,0.146
		c-0.268,0-0.513-0.05-0.742-0.146c-0.681-0.29-1.16-0.969-1.16-1.753c0-0.79,0.479-1.467,1.16-1.754
		c0.229-0.097,0.475-0.148,0.742-0.148c0.993,0,1.784,0.769,1.868,1.742c0.005,0.051,0.036,0.101,0.036,0.16
		C535.679,352.322,535.199,353.001,534.517,353.291z M621.721,259.396c-0.027,0.025-0.058,0.039-0.085,0.06
		c-0.162,0.095-0.336,0.16-0.534,0.16c-0.61,0-1.104-0.495-1.104-1.104c0-0.144,0.034-0.278,0.08-0.4
		c0.035-0.081,0.085-0.145,0.134-0.218c0.022-0.031,0.035-0.065,0.066-0.096c0.165-0.188,0.388-0.31,0.646-0.352
		c0.06-0.011,0.115-0.034,0.177-0.034c0.605,0,1.1,0.491,1.1,1.1C622.202,258.884,622,259.198,621.721,259.396z M618.604,277.518
		c-0.076,0.16-0.203,0.296-0.356,0.396c-0.026,0.024-0.052,0.039-0.084,0.056c-0.162,0.094-0.333,0.162-0.537,0.162
		c-0.605,0-1.099-0.488-1.099-1.099c0-0.145,0.026-0.277,0.08-0.397c0.029-0.083,0.084-0.149,0.126-0.218
		c0.023-0.034,0.044-0.072,0.072-0.096c0.161-0.19,0.385-0.31,0.64-0.356c0.063-0.013,0.117-0.037,0.181-0.037
		c0.608,0,1.104,0.493,1.104,1.104C618.73,277.208,618.675,277.366,618.604,277.518z M641.905,251.991l-8.969-0.873l13.04-9.466
		l8.048,1.539L641.905,251.991z M705.761,211.703c-0.611,0-1.106-0.493-1.106-1.104c0-0.352,0.182-0.653,0.44-0.856
		c0.011-0.004,0.015-0.008,0.025-0.013c0.184-0.141,0.393-0.23,0.641-0.23c0.353,0,0.653,0.179,0.855,0.446
		c0.005,0.004,0.009,0.009,0.014,0.02c0.139,0.183,0.23,0.391,0.23,0.634C706.861,211.21,706.368,211.703,705.761,211.703z
		 M710.703,218.932c0-0.608,0.492-1.103,1.101-1.103c0.175,0,0.34,0.055,0.484,0.125c0.164,0.081,0.295,0.203,0.401,0.352
		c0.019,0.03,0.04,0.053,0.06,0.09c0.09,0.158,0.154,0.333,0.154,0.531v0.004c0,0.167-0.042,0.32-0.106,0.461
		c-0.178,0.371-0.551,0.638-0.993,0.638C711.195,220.031,710.703,219.538,710.703,218.932z M657.831,278.755
		c-0.107,0.039-0.223,0.075-0.342,0.075c-0.125,0-0.241-0.032-0.353-0.079c-0.103-0.028-0.189-0.088-0.274-0.148
		c-0.216-0.151-0.365-0.371-0.423-0.638c-0.018-0.077-0.053-0.151-0.053-0.241c0-0.141,0.035-0.271,0.082-0.388
		c0.155-0.415,0.553-0.711,1.021-0.711c0.61,0,1.1,0.491,1.1,1.099C658.588,278.215,658.268,278.616,657.831,278.755z
		 M668.326,280.549c-0.132,0-0.245-0.028-0.358-0.076c-0.103-0.034-0.188-0.085-0.275-0.147c-0.275-0.199-0.47-0.51-0.47-0.877
		c0-0.611,0.495-1.104,1.104-1.104c0.605,0,1.1,0.493,1.1,1.104C669.425,280.056,668.931,280.549,668.326,280.549z M661.601,304.508
		c-0.032,0.028-0.063,0.047-0.096,0.064c-0.163,0.099-0.34,0.163-0.538,0.163c-0.462,0-0.855-0.275-1.017-0.667
		c-0.059-0.135-0.087-0.282-0.087-0.432c0-0.145,0.028-0.275,0.08-0.397c0.031-0.077,0.08-0.141,0.122-0.207
		c0.03-0.037,0.042-0.075,0.07-0.102c0.074-0.092,0.167-0.162,0.269-0.227c0,0,0.006,0,0.006-0.004c0.107-0.06,0.226-0.1,0.357-0.13
		c0.062-0.009,0.126-0.032,0.199-0.032c0.605,0,1.099,0.491,1.099,1.1C662.066,304.003,661.876,304.306,661.601,304.508z
		 M604.37,343.394c-0.291,0.683-0.966,1.161-1.756,1.161c-0.522,0-1.003-0.213-1.345-0.555c-0.342-0.346-0.56-0.819-0.56-1.347
		c0-1.052,0.856-1.902,1.904-1.902c0.004,0,0.008,0.004,0.016,0.004c0.267,0.004,0.513,0.058,0.742,0.153
		c0.621,0.271,1.049,0.878,1.113,1.584c0.004,0.051,0.031,0.107,0.031,0.16C604.516,342.913,604.466,343.165,604.37,343.394z
		 M630.378,340.052c-1.051,0-1.9-0.854-1.9-1.901c0-1.053,0.85-1.901,1.9-1.901c0.993,0,1.782,0.767,1.871,1.738
		c0.003,0.025,0.003,0.055,0.012,0.079c0,0.027,0.017,0.051,0.017,0.083C632.278,339.198,631.431,340.052,630.378,340.052z
		 M348.069,358.842c-0.213,0.154-0.443,0.263-0.688,0.319c-0.719,0.167-1.506-0.103-1.967-0.737
		c-0.463-0.636-0.475-1.46-0.096-2.097c0.129-0.214,0.303-0.401,0.514-0.557c0.211-0.152,0.445-0.261,0.684-0.314
		c0.727-0.168,1.508,0.096,1.971,0.731c0.033,0.048,0.041,0.103,0.068,0.15C349.061,357.173,348.87,358.259,348.069,358.842z
		 M267.782,372.274c-0.027,0.048-0.034,0.103-0.068,0.15c-0.463,0.636-1.243,0.899-1.971,0.731
		c-0.237-0.054-0.473-0.162-0.683-0.314c-0.212-0.155-0.385-0.343-0.514-0.557c-0.379-0.637-0.368-1.461,0.095-2.097
		c0.462-0.635,1.248-0.904,1.968-0.737c0.244,0.057,0.475,0.165,0.688,0.319C268.097,370.354,268.288,371.439,267.782,372.274z
		 M718.292,261.698c-0.03,0.077-0.081,0.134-0.125,0.207c-0.028,0.03-0.041,0.072-0.069,0.103c-0.076,0.092-0.171,0.16-0.271,0.218
		l-0.006,0.004c-0.111,0.068-0.226,0.106-0.352,0.132c-0.068,0.009-0.127,0.039-0.198,0.039c-0.604,0-1.1-0.496-1.1-1.1
		c0-0.241,0.091-0.451,0.218-0.63c0.202-0.279,0.512-0.474,0.882-0.474c0.607,0,1.103,0.493,1.103,1.104
		C718.374,261.439,718.338,261.572,718.292,261.698z"/>
</g>
<g id="sporadic" display="none">
	<path display="inline" fill="#FFFFFF" stroke="#FFFFFF" stroke-width="0.25" stroke-miterlimit="10" d="M614.157,317.753
		l14.293,0.393l25.882-18.255c0.504,0.368,1.114,0.594,1.78,0.594c1.678,0,3.036-1.361,3.036-3.036c0-1.673-1.358-3.041-3.036-3.041
		c-1.67,0.005-3.032,1.367-3.032,3.041c0,0.301,0.06,0.581,0.137,0.856l-25.354,17.889l-14.312-0.396l-42.535,30.879
		c-0.665-0.544-1.496-0.883-2.421-0.883c-2.111,0-3.838,1.718-3.838,3.836c0,2.116,1.727,3.839,3.838,3.839
		c2.117,0,3.838-1.723,3.838-3.839c0-0.491-0.101-0.96-0.275-1.392L614.157,317.753z M655.151,296.945L655.151,296.945
		c0.086-0.158,0.208-0.291,0.353-0.393c0.028-0.019,0.054-0.032,0.083-0.053c0.159-0.09,0.333-0.154,0.525-0.154
		c0.613,0,1.106,0.495,1.106,1.104c0,0.141-0.028,0.275-0.084,0.397c-0.034,0.087-0.087,0.156-0.133,0.222
		c-0.026,0.035-0.04,0.069-0.064,0.096c-0.204,0.235-0.487,0.384-0.825,0.384c-0.604,0-1.097-0.495-1.097-1.099
		C655.015,297.263,655.073,297.101,655.151,296.945 M569.333,351.38c-0.224,0.097-0.478,0.148-0.737,0.148
		c-0.263,0-0.513-0.051-0.743-0.148c-0.681-0.292-1.157-0.965-1.157-1.75s0.477-1.465,1.157-1.755
		c0.23-0.098,0.48-0.146,0.743-0.146c0.99,0,1.784,0.765,1.866,1.738c0.006,0.054,0.033,0.103,0.033,0.163
		C570.495,350.415,570.019,351.087,569.333,351.38"/>
	<path display="inline" fill="#FFFFFF" stroke="#FFFFFF" stroke-width="0.25" stroke-miterlimit="10" d="M718.675,258.622
		l0.733-4.62l-10.714-14.046l-2.37,7.647l-24.94,16.656l-1.657,4.876l-9.76,7.767c-0.476-0.31-1.036-0.494-1.642-0.494
		c-1.167,0-2.169,0.666-2.678,1.636l-5.169-0.822c-0.153-0.873-0.667-1.611-1.387-2.064l4.271-18.047l13.864-10.066l8.406,3.623
		l20.877-15.158l7.428,7.248l-1.031-21.003c0.387-0.156,0.742-0.38,1.042-0.681c0.575-0.574,0.89-1.334,0.89-2.144
		c0-1.676-1.359-3.036-3.035-3.036c-0.313,0-0.613,0.058-0.9,0.152l-2.678-3.691c0.354-0.498,0.572-1.1,0.572-1.757
		c0-1.669-1.369-3.036-3.036-3.036c-1.683,0-3.043,1.366-3.043,3.036c0,0.321,0.062,0.615,0.151,0.901l-22.264,16.166l-10.543-0.19
		l-3.319,6.215l-25.823-5.147l-30.072,21.829l-0.693,4.368l-34.849,25.298l-160.729-0.006l-40.949-31.216l-122.029-0.422
		c-0.112-0.451-0.308-0.891-0.597-1.286c-1.246-1.712-3.65-2.091-5.362-0.846c-1.707,1.243-2.089,3.651-0.843,5.363
		s3.654,2.085,5.36,0.842c0.748-0.544,1.22-1.308,1.438-2.139l121.439,0.424l38.256,29.278l-93.559-0.027l-21.995-16.812
		l-87.938,0.075c-0.112-0.451-0.308-0.891-0.597-1.286c-1.246-1.712-3.65-2.091-5.362-0.846c-1.707,1.243-2.089,3.651-0.843,5.363
		s3.654,2.085,5.36,0.842c0.748-0.544,1.22-1.308,1.438-2.139l87.349-0.073l19.349,14.875l-93.931,0.066
		c-0.218-0.831-0.689-1.595-1.438-2.139c-1.706-1.243-4.114-0.87-5.36,0.842s-0.864,4.12,0.843,5.363
		c1.712,1.245,4.116,0.866,5.362-0.846c0.289-0.396,0.484-0.835,0.597-1.286l96.446-0.065l3.254,0.001l93.846,0.028h2.788
		l156.935,0.005l2.095,0l2.668-1.937l31.128-22.595l-3.008,18.952l-17.086,12.401l-22.776,3.116l-39.162-0.005l-3.27,0l9.185-0.008
		l-386.245-1.507c-0.218-0.831-0.689-1.595-1.438-2.139c-1.706-1.243-4.114-0.87-5.36,0.842s-0.864,4.12,0.843,5.363
		c1.712,1.246,4.116,0.866,5.362-0.846c0.289-0.396,0.484-0.835,0.597-1.286l383.593,1.508l-13.312,9.732l-167.779-0.125
		c-0.218-0.831-0.689-1.595-1.438-2.139c-1.706-1.243-4.114-0.87-5.36,0.842s-0.864,4.12,0.843,5.363
		c1.712,1.246,4.116,0.866,5.362-0.846c0.289-0.396,0.484-0.835,0.597-1.286l168.369,0.127l15.992-11.667l-7.105,0.009h0.961
		l38.854,0.005l23.434-3.204l15.911-11.55l-0.839,5.273l-49.911,36.227l-335.311-0.073c-0.218-0.831-0.689-1.595-1.438-2.139
		c-1.706-1.243-4.114-0.87-5.36,0.842s-0.864,4.12,0.843,5.363c1.712,1.246,4.116,0.866,5.362-0.846
		c0.289-0.396,0.484-0.835,0.597-1.286l314.062-0.12L501.25,345.89l-90.33-0.054l-14.829-10.538l-48.473,0.035l-3.287,0.001
		l-172.429-0.596c-0.112-0.451-0.308-0.891-0.597-1.286c-1.246-1.712-3.65-2.091-5.362-0.846c-1.707,1.243-2.089,3.651-0.843,5.363
		s3.654,2.085,5.36,0.842c0.748-0.544,1.22-1.308,1.438-2.139l169.705,0.598l-26.353,18.702l-60.12-0.073
		c-0.218-0.831-0.689-1.595-1.438-2.139c-1.706-1.243-4.114-0.87-5.36,0.842s-0.864,4.12,0.843,5.363
		c1.712,1.245,4.116,0.866,5.362-0.846c0.289-0.396,0.484-0.835,0.597-1.286l60.71,0.075l29.048-20.64l50.604-0.034l12.129,8.596
		l3.113,1.969l1.726,0.001l89.379,0.025l35.721-25.488l18.469,0.194l20.486-14.776l-6.874,16.545l-33.448,24.282
		c-0.665-0.542-1.498-0.886-2.422-0.886c-2.116,0-3.833,1.723-3.833,3.84c0,2.114,1.717,3.836,3.833,3.836
		c2.117,0,3.833-1.723,3.833-3.836c0-0.493-0.1-0.958-0.271-1.394l33.885-24.594l8.295-19.97l27.718-20.12l5.397-33.994
		l28.738-20.864l23.528,4.69l-8.73,6.338l-10.647-2.039l-22.666,16.454c-0.494-0.358-1.1-0.57-1.753-0.57
		c-1.677,0-3.038,1.366-3.038,3.036c0,1.676,1.361,3.036,3.038,3.036c1.67,0,3.038-1.36,3.038-3.036
		c0-0.316-0.063-0.613-0.158-0.896l6.591-4.785l5.398,0.527l-1.646,10.356l-14.944,10.846c-0.498-0.351-1.098-0.564-1.755-0.564
		c-1.672,0-3.032,1.359-3.032,3.036c0,1.671,1.36,3.031,3.032,3.031c1.677,0,3.036-1.36,3.036-3.031
		c0-0.314-0.058-0.615-0.152-0.901l15.601-11.322l1.789-11.266l4.545,0.438l25.557-18.546l3.21-6.01l10.007,0.184L704,213.069
		c0.494,0.353,1.101,0.566,1.761,0.566c0.313,0,0.61-0.058,0.896-0.15l2.675,3.692c-0.351,0.495-0.564,1.095-0.564,1.754
		c0,1.388,0.941,2.543,2.207,2.906l0.79,16.099l-5.07-4.949l-21.308,15.474l-8.41-3.627l-15.333,11.129l-4.436,18.755
		c-1.539,0.144-2.755,1.428-2.755,3.006c0,1.674,1.362,3.036,3.036,3.036c1.168,0,2.172-0.668,2.68-1.631l5.17,0.824
		c0.242,1.426,1.486,2.532,2.987,2.532c1.67,0,3.036-1.366,3.036-3.036c0-0.369-0.077-0.707-0.194-1.031l10.204-8.128l1.632-4.786
		l24.971-16.672l1.455-4.714l7.941,10.399l-0.604,3.796c-1.432,0.241-2.531,1.481-2.531,2.987c0,0.329,0.065,0.643,0.166,0.942
		l-51.72,38.893c-0.49-0.34-1.08-0.539-1.714-0.539c-1.677,0-3.037,1.362-3.037,3.039c0,1.673,1.36,3.036,3.037,3.036
		c1.669,0,3.035-1.362,3.035-3.036c0-0.335-0.072-0.649-0.168-0.95l11.406-8.576l-1.845,11.616l-26.782,19.442l-23.633,1.505
		l-17.945,13.025c-0.662-0.54-1.502-0.882-2.422-0.882c-2.115,0-3.841,1.719-3.841,3.836c0,2.113,1.726,3.84,3.841,3.84
		c2.118,0,3.835-1.727,3.835-3.84c0-0.489-0.101-0.958-0.269-1.39l17.487-12.696l20.016-1.272l-10.888,7.901
		c-0.659-0.542-1.494-0.882-2.417-0.882c-2.117,0-3.84,1.718-3.84,3.837c0,2.115,1.723,3.838,3.84,3.838
		c2.116,0,3.838-1.723,3.838-3.838c0-0.492-0.106-0.961-0.275-1.393l39.024-28.33l-2.001,12.613l-29.271,21.252l-14.329,10.395
		l-16.633-2.639l-28.109,20.4l-108.837-0.046l-20.794-14.146l-102.342,0.075c-0.111-0.451-0.307-0.891-0.596-1.286
		c-1.246-1.712-3.65-2.091-5.363-0.846c-1.707,1.243-2.088,3.651-0.842,5.363s3.654,2.085,5.359,0.842
		c0.748-0.544,1.221-1.308,1.438-2.139l101.752-0.073l17.991,12.213l-249.248-0.063c-0.218-0.831-0.689-1.595-1.438-2.139
		c-1.706-1.243-4.114-0.87-5.36,0.842s-0.864,4.12,0.843,5.363c1.712,1.246,4.116,0.866,5.362-0.846
		c0.289-0.396,0.484-0.835,0.597-1.286l273.022,0.075l-0.002-0.007l89.168,0.04l27.887-20.303l16.626,2.643l13.09-9.498l2.212-1.608
		l29.6-21.485l4.716-29.7l38.094-28.635c0.488,0.333,1.08,0.532,1.715,0.532c1.673,0,3.035-1.36,3.035-3.032
		C720.306,260.133,719.637,259.129,718.675,258.622z M249.018,250.903c-0.213,0.154-0.443,0.263-0.688,0.319
		c-0.72,0.167-1.506-0.103-1.968-0.737c-0.463-0.636-0.474-1.46-0.095-2.097c0.129-0.214,0.302-0.401,0.514-0.557
		c0.21-0.152,0.445-0.261,0.683-0.314c0.728-0.168,1.508,0.096,1.971,0.731c0.034,0.048,0.041,0.103,0.068,0.15
		C250.009,249.234,249.818,250.32,249.018,250.903z M205.218,265.776c-0.213,0.154-0.443,0.263-0.688,0.319
		c-0.72,0.167-1.506-0.103-1.968-0.737c-0.463-0.636-0.474-1.46-0.095-2.097c0.129-0.214,0.302-0.401,0.514-0.557
		c0.21-0.152,0.445-0.261,0.683-0.314c0.728-0.168,1.508,0.096,1.971,0.731c0.034,0.048,0.041,0.103,0.068,0.15
		C206.209,264.107,206.018,265.193,205.218,265.776z M218.47,282c-0.027,0.048-0.034,0.103-0.068,0.15
		c-0.463,0.636-1.243,0.899-1.971,0.731c-0.237-0.054-0.473-0.162-0.683-0.314c-0.212-0.155-0.385-0.343-0.514-0.557
		c-0.379-0.637-0.368-1.461,0.095-2.097c0.462-0.635,1.248-0.904,1.968-0.737c0.244,0.057,0.475,0.165,0.688,0.319
		C218.784,280.079,218.976,281.165,218.47,282z M145.27,292.32c-0.027,0.048-0.034,0.103-0.068,0.15
		c-0.463,0.636-1.243,0.899-1.971,0.731c-0.237-0.054-0.473-0.162-0.683-0.314c-0.212-0.155-0.385-0.343-0.514-0.557
		c-0.379-0.637-0.368-1.461,0.095-2.097c0.462-0.635,1.248-0.904,1.968-0.737c0.244,0.057,0.475,0.165,0.688,0.319
		C145.584,290.399,145.776,291.485,145.27,292.32z M347.775,305.369c-0.027,0.048-0.034,0.103-0.068,0.15
		c-0.463,0.636-1.243,0.899-1.971,0.731c-0.237-0.054-0.473-0.162-0.683-0.314c-0.212-0.155-0.385-0.343-0.514-0.557
		c-0.379-0.637-0.368-1.461,0.095-2.097c0.462-0.635,1.248-0.904,1.968-0.737c0.244,0.057,0.475,0.165,0.688,0.319
		C348.089,303.448,348.281,304.534,347.775,305.369z M218.134,322.452c-0.027,0.048-0.034,0.103-0.068,0.15
		c-0.463,0.636-1.243,0.899-1.971,0.731c-0.237-0.054-0.473-0.162-0.683-0.314c-0.212-0.155-0.385-0.343-0.514-0.557
		c-0.379-0.637-0.368-1.461,0.095-2.097c0.462-0.635,1.248-0.904,1.968-0.737c0.244,0.057,0.475,0.165,0.688,0.319
		C218.448,320.531,218.64,321.617,218.134,322.452z M169.322,337.246c-0.213,0.154-0.443,0.263-0.688,0.319
		c-0.72,0.167-1.506-0.103-1.968-0.737c-0.463-0.636-0.474-1.46-0.095-2.097c0.129-0.214,0.302-0.401,0.514-0.557
		c0.21-0.152,0.445-0.261,0.683-0.314c0.728-0.168,1.508,0.096,1.971,0.731c0.034,0.048,0.041,0.103,0.068,0.15
		C170.313,335.577,170.122,336.663,169.322,337.246z M253.04,357.828c-0.027,0.048-0.034,0.103-0.068,0.15
		c-0.463,0.636-1.243,0.899-1.971,0.731c-0.237-0.054-0.473-0.162-0.683-0.314c-0.212-0.155-0.385-0.343-0.514-0.557
		c-0.379-0.637-0.368-1.461,0.095-2.097c0.462-0.635,1.248-0.904,1.968-0.737c0.244,0.057,0.475,0.165,0.688,0.319
		C253.354,355.907,253.545,356.993,253.04,357.828z M534.517,353.291c-0.229,0.096-0.482,0.146-0.742,0.146
		c-0.268,0-0.513-0.05-0.742-0.146c-0.681-0.29-1.16-0.969-1.16-1.753c0-0.79,0.479-1.467,1.16-1.754
		c0.229-0.097,0.475-0.148,0.742-0.148c0.993,0,1.784,0.769,1.868,1.742c0.005,0.051,0.036,0.101,0.036,0.16
		C535.679,352.322,535.199,353.001,534.517,353.291z M621.721,259.396c-0.027,0.025-0.058,0.039-0.085,0.06
		c-0.162,0.095-0.336,0.16-0.534,0.16c-0.61,0-1.104-0.495-1.104-1.104c0-0.144,0.034-0.278,0.08-0.4
		c0.035-0.081,0.085-0.145,0.134-0.218c0.022-0.031,0.035-0.065,0.066-0.096c0.165-0.188,0.388-0.31,0.646-0.352
		c0.06-0.011,0.115-0.034,0.177-0.034c0.605,0,1.1,0.491,1.1,1.1C622.202,258.884,622,259.198,621.721,259.396z M618.604,277.518
		c-0.076,0.16-0.203,0.296-0.356,0.396c-0.026,0.024-0.052,0.039-0.084,0.056c-0.162,0.094-0.333,0.162-0.537,0.162
		c-0.605,0-1.099-0.488-1.099-1.099c0-0.145,0.026-0.277,0.08-0.397c0.029-0.083,0.084-0.149,0.126-0.218
		c0.023-0.034,0.044-0.072,0.072-0.096c0.161-0.19,0.385-0.31,0.64-0.356c0.063-0.013,0.117-0.037,0.181-0.037
		c0.608,0,1.104,0.493,1.104,1.104C618.73,277.208,618.675,277.366,618.604,277.518z M641.905,251.991l-8.969-0.873l13.04-9.466
		l8.048,1.539L641.905,251.991z M705.761,211.703c-0.611,0-1.106-0.493-1.106-1.104c0-0.352,0.182-0.653,0.44-0.856
		c0.011-0.004,0.015-0.008,0.025-0.013c0.184-0.141,0.393-0.23,0.641-0.23c0.353,0,0.653,0.179,0.855,0.446
		c0.005,0.004,0.009,0.009,0.014,0.02c0.139,0.183,0.23,0.391,0.23,0.634C706.861,211.21,706.368,211.703,705.761,211.703z
		 M710.703,218.932c0-0.608,0.492-1.103,1.101-1.103c0.175,0,0.34,0.055,0.484,0.125c0.164,0.081,0.295,0.203,0.401,0.352
		c0.019,0.03,0.04,0.053,0.06,0.09c0.09,0.158,0.154,0.333,0.154,0.531v0.004c0,0.167-0.042,0.32-0.106,0.461
		c-0.178,0.371-0.551,0.638-0.993,0.638C711.195,220.031,710.703,219.538,710.703,218.932z M657.831,278.755
		c-0.107,0.039-0.223,0.075-0.342,0.075c-0.125,0-0.241-0.032-0.353-0.079c-0.103-0.028-0.189-0.088-0.274-0.148
		c-0.216-0.151-0.365-0.371-0.423-0.638c-0.018-0.077-0.053-0.151-0.053-0.241c0-0.141,0.035-0.271,0.082-0.388
		c0.155-0.415,0.553-0.711,1.021-0.711c0.61,0,1.1,0.491,1.1,1.099C658.588,278.215,658.268,278.616,657.831,278.755z
		 M668.326,280.549c-0.132,0-0.245-0.028-0.358-0.076c-0.103-0.034-0.188-0.085-0.275-0.147c-0.275-0.199-0.47-0.51-0.47-0.877
		c0-0.611,0.495-1.104,1.104-1.104c0.605,0,1.1,0.493,1.1,1.104C669.425,280.056,668.931,280.549,668.326,280.549z M661.601,304.508
		c-0.032,0.028-0.063,0.047-0.096,0.064c-0.163,0.099-0.34,0.163-0.538,0.163c-0.462,0-0.855-0.275-1.017-0.667
		c-0.059-0.135-0.087-0.282-0.087-0.432c0-0.145,0.028-0.275,0.08-0.397c0.031-0.077,0.08-0.141,0.122-0.207
		c0.03-0.037,0.042-0.075,0.07-0.102c0.074-0.092,0.167-0.162,0.269-0.227c0,0,0.006,0,0.006-0.004c0.107-0.06,0.226-0.1,0.357-0.13
		c0.062-0.009,0.126-0.032,0.199-0.032c0.605,0,1.099,0.491,1.099,1.1C662.066,304.003,661.876,304.306,661.601,304.508z
		 M604.37,343.394c-0.291,0.683-0.966,1.161-1.756,1.161c-0.522,0-1.003-0.213-1.345-0.555c-0.342-0.346-0.56-0.819-0.56-1.347
		c0-1.052,0.856-1.902,1.904-1.902c0.004,0,0.008,0.004,0.016,0.004c0.267,0.004,0.513,0.058,0.742,0.153
		c0.621,0.271,1.049,0.878,1.113,1.584c0.004,0.051,0.031,0.107,0.031,0.16C604.516,342.913,604.466,343.165,604.37,343.394z
		 M630.378,340.052c-1.051,0-1.9-0.854-1.9-1.901c0-1.053,0.85-1.901,1.9-1.901c0.993,0,1.782,0.767,1.871,1.738
		c0.003,0.025,0.003,0.055,0.012,0.079c0,0.027,0.017,0.051,0.017,0.083C632.278,339.198,631.431,340.052,630.378,340.052z
		 M348.069,358.842c-0.213,0.154-0.443,0.263-0.688,0.319c-0.719,0.167-1.506-0.103-1.967-0.737
		c-0.463-0.636-0.475-1.46-0.096-2.097c0.129-0.214,0.303-0.401,0.514-0.557c0.211-0.152,0.445-0.261,0.684-0.314
		c0.727-0.168,1.508,0.096,1.971,0.731c0.033,0.048,0.041,0.103,0.068,0.15C349.061,357.173,348.87,358.259,348.069,358.842z
		 M219.05,372.274c-0.027,0.048-0.034,0.103-0.068,0.15c-0.463,0.636-1.243,0.899-1.971,0.731c-0.237-0.054-0.473-0.162-0.683-0.314
		c-0.212-0.155-0.385-0.343-0.514-0.557c-0.379-0.637-0.368-1.461,0.095-2.097c0.462-0.635,1.248-0.904,1.968-0.737
		c0.244,0.057,0.475,0.165,0.688,0.319C219.364,370.354,219.556,371.439,219.05,372.274z M718.292,261.698
		c-0.03,0.077-0.081,0.134-0.125,0.207c-0.028,0.03-0.041,0.072-0.069,0.103c-0.076,0.092-0.171,0.16-0.271,0.218l-0.006,0.004
		c-0.111,0.068-0.226,0.106-0.352,0.132c-0.068,0.009-0.127,0.039-0.198,0.039c-0.604,0-1.1-0.496-1.1-1.1
		c0-0.241,0.091-0.451,0.218-0.63c0.202-0.279,0.512-0.474,0.882-0.474c0.607,0,1.103,0.493,1.103,1.104
		C718.374,261.439,718.338,261.572,718.292,261.698z"/>
</g>
<g id="sporadic_text">
	<path fill="#FFFFFF" stroke="#FFFFFF" stroke-width="0.25" stroke-miterlimit="10" d="M614.157,317.753l14.293,0.393l25.882-18.255
		c0.504,0.368,1.114,0.594,1.78,0.594c1.678,0,3.036-1.361,3.036-3.036c0-1.673-1.358-3.041-3.036-3.041
		c-1.67,0.005-3.032,1.367-3.032,3.041c0,0.301,0.06,0.581,0.137,0.856l-25.354,17.889l-14.312-0.396l-42.535,30.879
		c-0.665-0.544-1.496-0.883-2.421-0.883c-2.111,0-3.838,1.718-3.838,3.836c0,2.116,1.727,3.839,3.838,3.839
		c2.117,0,3.838-1.723,3.838-3.839c0-0.491-0.101-0.96-0.275-1.392L614.157,317.753z M655.151,296.945L655.151,296.945
		c0.086-0.158,0.208-0.291,0.353-0.393c0.028-0.019,0.054-0.032,0.083-0.053c0.159-0.09,0.333-0.154,0.525-0.154
		c0.613,0,1.106,0.495,1.106,1.104c0,0.141-0.028,0.275-0.084,0.397c-0.034,0.087-0.087,0.156-0.133,0.222
		c-0.026,0.035-0.04,0.069-0.064,0.096c-0.204,0.235-0.487,0.384-0.825,0.384c-0.604,0-1.097-0.495-1.097-1.099
		C655.015,297.263,655.073,297.101,655.151,296.945 M569.333,351.38c-0.224,0.097-0.478,0.148-0.737,0.148
		c-0.263,0-0.513-0.051-0.743-0.148c-0.681-0.292-1.157-0.965-1.157-1.75s0.477-1.465,1.157-1.755
		c0.23-0.098,0.48-0.146,0.743-0.146c0.99,0,1.784,0.765,1.866,1.738c0.006,0.054,0.033,0.103,0.033,0.163
		C570.495,350.415,570.019,351.087,569.333,351.38"/>
	<path fill="#FFFFFF" stroke="#FFFFFF" stroke-width="0.25" stroke-miterlimit="10" d="M614.157,317.753l14.293,0.393l25.882-18.255
		c0.504,0.368,1.114,0.594,1.78,0.594c1.678,0,3.036-1.361,3.036-3.036c0-1.673-1.358-3.041-3.036-3.041
		c-1.67,0.005-3.032,1.367-3.032,3.041c0,0.301,0.06,0.581,0.137,0.856l-25.354,17.889l-14.312-0.396l-42.535,30.879
		c-0.665-0.544-1.496-0.883-2.421-0.883c-2.111,0-3.838,1.718-3.838,3.836c0,2.116,1.727,3.839,3.838,3.839
		c2.117,0,3.838-1.723,3.838-3.839c0-0.491-0.101-0.96-0.275-1.392L614.157,317.753z M655.151,296.945L655.151,296.945
		c0.086-0.158,0.208-0.291,0.353-0.393c0.028-0.019,0.054-0.032,0.083-0.053c0.159-0.09,0.333-0.154,0.525-0.154
		c0.613,0,1.106,0.495,1.106,1.104c0,0.141-0.028,0.275-0.084,0.397c-0.034,0.087-0.087,0.156-0.133,0.222
		c-0.026,0.035-0.04,0.069-0.064,0.096c-0.204,0.235-0.487,0.384-0.825,0.384c-0.604,0-1.097-0.495-1.097-1.099
		C655.015,297.263,655.073,297.101,655.151,296.945 M569.333,351.38c-0.224,0.097-0.478,0.148-0.737,0.148
		c-0.263,0-0.513-0.051-0.743-0.148c-0.681-0.292-1.157-0.965-1.157-1.75s0.477-1.465,1.157-1.755
		c0.23-0.098,0.48-0.146,0.743-0.146c0.99,0,1.784,0.765,1.866,1.738c0.006,0.054,0.033,0.103,0.033,0.163
		C570.495,350.415,570.019,351.087,569.333,351.38"/>
	<rect x="176.875" y="294.677" fill="none" width="302.355" height="23.005"/>
	<text transform="matrix(1 0 0 1 193.5562 315.2939)" fill="#FFFFFF" font-family="'Futura-MediumItalic'" font-size="25">WOLFPACK ROBOTICS</text>
	<rect x="268.25" y="346.671" fill="none" width="119.607" height="40.26"/>
	<text transform="matrix(1 0 0 1 278.6782 379.6592)" fill="#FFFFFF" font-family="'Futura-MediumItalic'" font-size="40">7721</text>
	<g>
		<path fill="#FFFFFF" stroke="#FFFFFF" stroke-miterlimit="10" d="M497.496,372.349l85.837,0.039l27.887-20.303l16.626,2.643
			l13.09-9.498l2.212-1.608l29.6-21.485l4.716-29.7l38.094-28.635c0.488,0.333,1.08,0.532,1.715,0.532
			c1.673,0,3.035-1.36,3.035-3.032c0-1.168-0.669-2.171-1.631-2.679l0.733-4.62l-10.714-14.046l-2.37,7.647l-24.94,16.656
			l-1.657,4.876l-9.76,7.767c-0.476-0.31-1.036-0.494-1.642-0.494c-1.167,0-2.169,0.666-2.678,1.636l-5.169-0.822
			c-0.153-0.873-0.667-1.611-1.387-2.064l4.271-18.047l13.864-10.066l8.406,3.623l20.877-15.158l7.428,7.248l-1.031-21.003
			c0.387-0.156,0.742-0.38,1.042-0.681c0.575-0.574,0.89-1.334,0.89-2.144c0-1.676-1.359-3.036-3.035-3.036
			c-0.313,0-0.613,0.058-0.9,0.152l-2.678-3.691c0.354-0.498,0.572-1.1,0.572-1.757c0-1.669-1.369-3.036-3.036-3.036
			c-1.683,0-3.043,1.366-3.043,3.036c0,0.321,0.062,0.615,0.151,0.901l-22.264,16.166l-10.543-0.19l-3.319,6.215l-25.823-5.147
			l-30.072,21.829l-0.693,4.368l-19.493,14.15l-1.67,1.212l-13.686,9.935l-78.741-0.006l-49.021-38.866l-254.734-0.422
			c-0.112-0.451-0.308-0.891-0.597-1.286c-1.246-1.712-3.65-2.091-5.362-0.846c-1.707,1.243-2.089,3.651-0.843,5.363
			s3.654,2.085,5.36,0.842c0.748-0.544,1.22-1.308,1.438-2.139l254.145,0.424l46.328,36.928l-94.071-0.015l-28.487-19.542
			l-122.03-0.422c-0.112-0.451-0.308-0.891-0.597-1.286c-1.246-1.712-3.65-2.091-5.362-0.846c-1.707,1.243-2.089,3.651-0.843,5.363
			s3.654,2.085,5.36,0.842c0.748-0.544,1.22-1.308,1.438-2.139l121.44,0.424l25.806,17.605l-78.2-0.012l-3.239,0l-178.335,0.066
			c-0.218-0.831-0.689-1.595-1.438-2.139c-1.706-1.243-4.114-0.87-5.36,0.842s-0.864,4.12,0.843,5.363
			c1.712,1.245,4.116,0.866,5.362-0.846c0.289-0.396,0.484-0.835,0.597-1.286l180.85-0.065l3.254,0.001l78.212,0.023l0.229,0.176
			l3.287,0.001l-0.23-0.176l12.348,0.004h2.788l156.935,0.005l2.095,0l2.668-1.937l12.012-8.719l1.671-1.213l17.445-12.663
			l-3.008,18.952l-17.086,12.401l-22.776,3.116l-39.162-0.005l-3.27,0l9.185-0.008l-30.375-0.518
			c-0.218-0.831-0.689-1.595-1.438-2.139c-1.706-1.243-4.114-0.87-5.36,0.842s-0.864,4.12,0.843,5.363
			c1.712,1.246,4.116,0.866,5.362-0.846c0.289-0.396,0.484-0.835,0.597-1.286l27.723,0.519l-0.007,0.005l-3.825,0.005h0.961l2.857,0
			l-13.299,9.722l-31.255-0.125c-0.218-0.831-0.689-1.595-1.438-2.139c-1.706-1.243-4.114-0.87-5.36,0.842s-0.864,4.12,0.843,5.363
			c1.712,1.246,4.116,0.866,5.362-0.846c0.289-0.396,0.484-0.835,0.597-1.286l31.845,0.127l15.979-11.658l32.724,0.004l23.434-3.204
			l15.911-11.55l-0.839,5.273l-49.911,36.227l-45.306-0.56c-0.217-0.831-0.689-1.595-1.438-2.139
			c-1.705-1.243-4.113-0.87-5.359,0.842s-0.865,4.12,0.842,5.363c1.713,1.246,4.117,0.866,5.363-0.846
			c0.289-0.396,0.484-0.835,0.596-1.286l24.057,0.368L501.25,345.89l-90.33-0.054l-14.829-10.538l-140.68,0.035l-3.287,0.001
			l-172.429-0.596c-0.112-0.451-0.308-0.891-0.597-1.286c-1.246-1.712-3.65-2.091-5.362-0.846c-1.707,1.243-2.089,3.651-0.843,5.363
			s3.654,2.085,5.36,0.842c0.748-0.544,1.22-1.308,1.438-2.139l169.705,0.598l-26.353,18.702l-60.12-0.073
			c-0.218-0.831-0.689-1.595-1.438-2.139c-1.706-1.243-4.114-0.87-5.36,0.842s-0.864,4.12,0.843,5.363
			c1.712,1.245,4.116,0.866,5.362-0.846c0.289-0.396,0.484-0.835,0.597-1.286l60.71,0.075l29.048-20.64l142.812-0.034l12.129,8.596
			l3.113,1.969l1.726,0.001l89.379,0.025l35.721-25.488l18.469,0.194l20.486-14.776l-6.874,16.545l-33.448,24.282
			c-0.665-0.542-1.498-0.886-2.422-0.886c-2.116,0-3.833,1.723-3.833,3.84c0,2.114,1.717,3.836,3.833,3.836
			c2.117,0,3.833-1.723,3.833-3.836c0-0.493-0.1-0.958-0.271-1.394l33.885-24.594l8.295-19.97l27.718-20.12l5.397-33.994
			l28.738-20.864l23.528,4.69l-8.73,6.338l-10.647-2.039l-22.666,16.454c-0.494-0.358-1.1-0.57-1.753-0.57
			c-1.677,0-3.038,1.366-3.038,3.036c0,1.676,1.361,3.036,3.038,3.036c1.67,0,3.038-1.36,3.038-3.036
			c0-0.316-0.063-0.613-0.158-0.896l6.591-4.785l5.398,0.527l-1.646,10.356l-14.944,10.846c-0.498-0.351-1.098-0.564-1.755-0.564
			c-1.672,0-3.032,1.359-3.032,3.036c0,1.671,1.36,3.031,3.032,3.031c1.677,0,3.036-1.36,3.036-3.031
			c0-0.314-0.058-0.615-0.152-0.901l15.601-11.322l1.789-11.266l4.545,0.438l25.557-18.546l3.21-6.01l10.007,0.184L704,213.069
			c0.494,0.353,1.101,0.566,1.761,0.566c0.313,0,0.61-0.058,0.896-0.15l2.675,3.692c-0.351,0.495-0.564,1.095-0.564,1.754
			c0,1.388,0.941,2.543,2.207,2.906l0.79,16.099l-5.07-4.949l-21.308,15.474l-8.41-3.627l-15.333,11.129l-4.436,18.755
			c-1.539,0.144-2.755,1.428-2.755,3.006c0,1.674,1.362,3.036,3.036,3.036c1.168,0,2.172-0.668,2.68-1.631l5.17,0.824
			c0.242,1.426,1.486,2.532,2.987,2.532c1.67,0,3.036-1.366,3.036-3.036c0-0.369-0.077-0.707-0.194-1.031l10.204-8.128l1.632-4.786
			l24.971-16.672l1.455-4.714l7.941,10.399l-0.604,3.796c-1.432,0.241-2.531,1.481-2.531,2.987c0,0.329,0.065,0.643,0.166,0.942
			l-51.72,38.893c-0.49-0.34-1.08-0.539-1.714-0.539c-1.677,0-3.037,1.362-3.037,3.039c0,1.673,1.36,3.036,3.037,3.036
			c1.669,0,3.035-1.362,3.035-3.036c0-0.335-0.072-0.649-0.168-0.95l11.406-8.576l-1.845,11.616l-26.782,19.442l-23.633,1.505
			l-17.945,13.025c-0.662-0.54-1.502-0.882-2.422-0.882c-2.115,0-3.841,1.719-3.841,3.836c0,2.113,1.726,3.84,3.841,3.84
			c2.118,0,3.835-1.727,3.835-3.84c0-0.489-0.101-0.958-0.269-1.39l17.487-12.696l20.016-1.272l-10.888,7.901
			c-0.659-0.542-1.494-0.882-2.417-0.882c-2.117,0-3.84,1.718-3.84,3.837c0,2.115,1.723,3.838,3.84,3.838
			c2.116,0,3.838-1.723,3.838-3.838c0-0.492-0.106-0.961-0.275-1.393l39.024-28.33l-2.001,12.613l-29.271,21.252l-14.329,10.395
			l-16.633-2.639l-28.109,20.4l-82.555-0.026l-3.276-0.001l-60.215-0.019l-25.458-0.048l-33.193,23.267l-22.033-0.001v-0.003
			h-60.056v0.003l-22.033,0.001l-30.371-21.245c0.087-0.293,0.155-0.592,0.16-0.913c0.03-1.788-1.402-3.269-3.188-3.304
			c-1.792-0.027-3.27,1.409-3.298,3.199c-0.03,1.789,1.399,3.268,3.192,3.297c0.713,0.012,1.368-0.221,1.914-0.604l30.93,21.647
			h105.443l33.388-23.411l82.194,0.066l-0.002-0.007h0.059L497.496,372.349z M190.229,243.253c-0.213,0.154-0.443,0.263-0.688,0.319
			c-0.72,0.167-1.506-0.103-1.968-0.737c-0.463-0.636-0.474-1.46-0.095-2.097c0.129-0.214,0.302-0.401,0.514-0.557
			c0.21-0.152,0.445-0.261,0.683-0.314c0.728-0.168,1.508,0.096,1.971,0.731c0.034,0.048,0.041,0.103,0.068,0.15
			C191.22,241.584,191.029,242.67,190.229,243.253z M246.109,262.562c-0.213,0.154-0.443,0.263-0.688,0.319
			c-0.72,0.167-1.506-0.103-1.968-0.737c-0.463-0.636-0.474-1.46-0.095-2.097c0.129-0.214,0.302-0.401,0.514-0.557
			c0.21-0.152,0.445-0.261,0.683-0.314c0.728-0.168,1.508,0.096,1.971,0.731c0.034,0.048,0.041,0.103,0.068,0.15
			C247.101,260.893,246.909,261.979,246.109,262.562z M134.065,282c-0.027,0.048-0.034,0.103-0.068,0.15
			c-0.463,0.636-1.243,0.899-1.971,0.731c-0.237-0.054-0.473-0.162-0.683-0.314c-0.212-0.155-0.385-0.343-0.514-0.557
			c-0.379-0.637-0.368-1.461,0.095-2.097c0.462-0.635,1.248-0.904,1.968-0.737c0.244,0.057,0.475,0.165,0.688,0.319
			C134.38,280.079,134.571,281.165,134.065,282z M501.14,293.31c-0.027,0.048-0.034,0.103-0.068,0.15
			c-0.463,0.636-1.243,0.899-1.971,0.731c-0.237-0.054-0.473-0.162-0.683-0.314c-0.212-0.155-0.385-0.343-0.514-0.557
			c-0.379-0.637-0.368-1.461,0.095-2.097c0.462-0.635,1.248-0.904,1.968-0.737c0.244,0.057,0.475,0.165,0.688,0.319
			C501.455,291.389,501.646,292.475,501.14,293.31z M484.299,305.369c-0.027,0.048-0.034,0.103-0.068,0.15
			c-0.463,0.636-1.243,0.899-1.971,0.731c-0.237-0.054-0.473-0.162-0.683-0.314c-0.212-0.155-0.385-0.343-0.514-0.557
			c-0.379-0.637-0.368-1.461,0.095-2.097c0.462-0.635,1.248-0.904,1.968-0.737c0.244,0.057,0.475,0.165,0.688,0.319
			C484.614,303.448,484.805,304.534,484.299,305.369z M508.14,321.964c-0.027,0.048-0.035,0.103-0.068,0.15
			c-0.463,0.636-1.244,0.899-1.971,0.731c-0.238-0.054-0.473-0.162-0.684-0.314c-0.211-0.155-0.385-0.343-0.514-0.557
			c-0.379-0.637-0.367-1.461,0.096-2.097c0.461-0.635,1.248-0.904,1.967-0.737c0.244,0.057,0.475,0.165,0.688,0.319
			C508.455,320.043,508.646,321.129,508.14,321.964z M77.115,337.246c-0.213,0.154-0.443,0.263-0.688,0.319
			c-0.72,0.167-1.506-0.103-1.968-0.737c-0.463-0.636-0.474-1.46-0.095-2.097c0.129-0.214,0.302-0.401,0.514-0.557
			c0.21-0.152,0.445-0.261,0.683-0.314c0.728-0.168,1.508,0.096,1.971,0.731c0.034,0.048,0.041,0.103,0.068,0.15
			C78.106,335.577,77.915,336.663,77.115,337.246z M160.833,357.828c-0.027,0.048-0.034,0.103-0.068,0.15
			c-0.463,0.636-1.243,0.899-1.971,0.731c-0.237-0.054-0.473-0.162-0.683-0.314c-0.212-0.155-0.385-0.343-0.514-0.557
			c-0.379-0.637-0.368-1.461,0.095-2.097c0.462-0.635,1.248-0.904,1.968-0.737c0.244,0.057,0.475,0.165,0.688,0.319
			C161.147,355.907,161.338,356.993,160.833,357.828z M534.517,353.291c-0.229,0.096-0.482,0.146-0.742,0.146
			c-0.268,0-0.513-0.05-0.742-0.146c-0.681-0.29-1.16-0.969-1.16-1.753c0-0.79,0.479-1.467,1.16-1.754
			c0.229-0.097,0.475-0.148,0.742-0.148c0.993,0,1.784,0.769,1.868,1.742c0.005,0.051,0.036,0.101,0.036,0.16
			C535.679,352.322,535.199,353.001,534.517,353.291z M621.721,259.396c-0.027,0.025-0.058,0.039-0.085,0.06
			c-0.162,0.095-0.336,0.16-0.534,0.16c-0.61,0-1.104-0.495-1.104-1.104c0-0.144,0.034-0.278,0.08-0.4
			c0.035-0.081,0.085-0.145,0.134-0.218c0.022-0.031,0.035-0.065,0.066-0.096c0.165-0.188,0.388-0.31,0.646-0.352
			c0.06-0.011,0.115-0.034,0.177-0.034c0.605,0,1.1,0.491,1.1,1.1C622.202,258.884,622,259.198,621.721,259.396z M618.604,277.518
			c-0.076,0.16-0.203,0.296-0.356,0.396c-0.026,0.024-0.052,0.039-0.084,0.056c-0.162,0.094-0.333,0.162-0.537,0.162
			c-0.605,0-1.099-0.488-1.099-1.099c0-0.145,0.026-0.277,0.08-0.397c0.029-0.083,0.084-0.149,0.126-0.218
			c0.023-0.034,0.044-0.072,0.072-0.096c0.161-0.19,0.385-0.31,0.64-0.356c0.063-0.013,0.117-0.037,0.181-0.037
			c0.608,0,1.104,0.493,1.104,1.104C618.73,277.208,618.675,277.366,618.604,277.518z M641.905,251.991l-8.969-0.873l13.04-9.466
			l8.048,1.539L641.905,251.991z M705.761,211.703c-0.611,0-1.106-0.493-1.106-1.104c0-0.352,0.182-0.653,0.44-0.856
			c0.011-0.004,0.015-0.008,0.025-0.013c0.184-0.141,0.393-0.23,0.641-0.23c0.353,0,0.653,0.179,0.855,0.446
			c0.005,0.004,0.009,0.009,0.014,0.02c0.139,0.183,0.23,0.391,0.23,0.634C706.861,211.21,706.368,211.703,705.761,211.703z
			 M710.703,218.932c0-0.608,0.492-1.103,1.101-1.103c0.175,0,0.34,0.055,0.484,0.125c0.164,0.081,0.295,0.203,0.401,0.352
			c0.019,0.03,0.04,0.053,0.06,0.09c0.09,0.158,0.154,0.333,0.154,0.531v0.004c0,0.167-0.042,0.32-0.106,0.461
			c-0.178,0.371-0.551,0.638-0.993,0.638C711.195,220.031,710.703,219.538,710.703,218.932z M657.831,278.755
			c-0.107,0.039-0.223,0.075-0.342,0.075c-0.125,0-0.241-0.032-0.353-0.079c-0.103-0.028-0.189-0.088-0.274-0.148
			c-0.216-0.151-0.365-0.371-0.423-0.638c-0.018-0.077-0.053-0.151-0.053-0.241c0-0.141,0.035-0.271,0.082-0.388
			c0.155-0.415,0.553-0.711,1.021-0.711c0.61,0,1.1,0.491,1.1,1.099C658.588,278.215,658.268,278.616,657.831,278.755z
			 M668.326,280.549c-0.132,0-0.245-0.028-0.358-0.076c-0.103-0.034-0.188-0.085-0.275-0.147c-0.275-0.199-0.47-0.51-0.47-0.877
			c0-0.611,0.495-1.104,1.104-1.104c0.605,0,1.1,0.493,1.1,1.104C669.425,280.056,668.931,280.549,668.326,280.549z
			 M661.601,304.508c-0.032,0.028-0.063,0.047-0.096,0.064c-0.163,0.099-0.34,0.163-0.538,0.163c-0.462,0-0.855-0.275-1.017-0.667
			c-0.059-0.135-0.087-0.282-0.087-0.432c0-0.145,0.028-0.275,0.08-0.397c0.031-0.077,0.08-0.141,0.122-0.207
			c0.03-0.037,0.042-0.075,0.07-0.102c0.074-0.092,0.167-0.162,0.269-0.227c0,0,0.006,0,0.006-0.004
			c0.107-0.06,0.226-0.1,0.357-0.13c0.062-0.009,0.126-0.032,0.199-0.032c0.605,0,1.099,0.491,1.099,1.1
			C662.066,304.003,661.876,304.306,661.601,304.508z M604.37,343.394c-0.291,0.683-0.966,1.161-1.756,1.161
			c-0.522,0-1.003-0.213-1.345-0.555c-0.342-0.346-0.56-0.819-0.56-1.347c0-1.052,0.856-1.902,1.904-1.902
			c0.004,0,0.008,0.004,0.016,0.004c0.267,0.004,0.513,0.058,0.742,0.153c0.621,0.271,1.049,0.878,1.113,1.584
			c0.004,0.051,0.031,0.107,0.031,0.16C604.516,342.913,604.466,343.165,604.37,343.394z M630.378,340.052
			c-1.051,0-1.9-0.854-1.9-1.901c0-1.053,0.85-1.901,1.9-1.901c0.993,0,1.782,0.767,1.871,1.738
			c0.003,0.025,0.003,0.055,0.012,0.079c0,0.027,0.017,0.051,0.017,0.083C632.278,339.198,631.431,340.052,630.378,340.052z
			 M240.333,372.586c-0.361-0.006-0.662-0.17-0.876-0.426c-0.026-0.029-0.04-0.066-0.066-0.104c-0.049-0.07-0.104-0.145-0.139-0.239
			c-0.057-0.13-0.084-0.274-0.082-0.425c0.008-0.651,0.544-1.172,1.201-1.16c0.206,0.002,0.39,0.074,0.56,0.173
			c0.031,0.022,0.057,0.036,0.088,0.058c0.153,0.113,0.279,0.256,0.37,0.426c0.081,0.168,0.139,0.344,0.135,0.542
			C241.513,372.076,240.978,372.597,240.333,372.586z M718.292,261.698c-0.03,0.077-0.081,0.134-0.125,0.207
			c-0.028,0.03-0.041,0.072-0.069,0.103c-0.076,0.092-0.171,0.16-0.271,0.218l-0.006,0.004c-0.111,0.068-0.226,0.106-0.352,0.132
			c-0.068,0.009-0.127,0.039-0.198,0.039c-0.604,0-1.1-0.496-1.1-1.1c0-0.241,0.091-0.451,0.218-0.63
			c0.202-0.279,0.512-0.474,0.882-0.474c0.607,0,1.103,0.493,1.103,1.104C718.374,261.439,718.338,261.572,718.292,261.698z"/>
		<path fill="#FFFFFF" stroke="#FFFFFF" stroke-miterlimit="10" d="M81.339,301.009c1.712,1.245,4.116,0.866,5.362-0.846
			c0.289-0.396,0.484-0.835,0.597-1.286l87.939,0.075l21.994-16.812l-3.239,0l-19.349,14.875l-87.349-0.073
			c-0.218-0.831-0.689-1.595-1.438-2.139c-1.706-1.243-4.114-0.87-5.36,0.842S79.632,299.766,81.339,301.009z M82.062,296.787
			c0.462-0.635,1.248-0.904,1.968-0.737c0.244,0.057,0.475,0.165,0.688,0.319c0.8,0.583,0.991,1.669,0.485,2.504
			c-0.027,0.048-0.034,0.103-0.068,0.15c-0.463,0.636-1.243,0.899-1.971,0.731c-0.237-0.054-0.473-0.162-0.683-0.314
			c-0.212-0.155-0.385-0.343-0.514-0.557C81.589,298.247,81.6,297.422,82.062,296.787z"/>
	</g>
</g>
<g id="guides">
</g>
</svg>
