<?xml version="1.0" encoding="utf-8"?>
<!-- Generator: Adobe Illustrator 16.0.4, SVG Export Plug-In . SVG Version: 6.00 Build 0)  -->
<!DOCTYPE svg PUBLIC "-//W3C//DTD SVG 1.1//EN" "http://www.w3.org/Graphics/SVG/1.1/DTD/svg11.dtd">
<svg version="1.1" xmlns="http://www.w3.org/2000/svg" xmlns:xlink="http://www.w3.org/1999/xlink" x="0px" y="0px" width="792px"
	 height="612px" viewBox="0 0 792 612" enable-background="new 0 0 792 612" xml:space="preserve">
<g id="back" display="none">
	<rect x="0" display="inline" width="792" height="612"/>
</g>
<g id="original" display="none">
	<g display="inline">
		<path fill="#479FD8" stroke="#479FD8" stroke-width="0.25" stroke-miterlimit="10" d="M583.33,372.33l27.89-20.246l16.626,2.643
			l13.09-9.498l-4.115,25.894L624,380.429l1.149,1.555l13.457-9.767l4.54-28.595l29.6-21.485l4.716-29.7l38.094-28.635
			c0.488,0.333,1.08,0.532,1.715,0.532c1.673,0,3.035-1.36,3.035-3.032c0-1.168-0.669-2.171-1.631-2.679l0.733-4.62l-10.714-14.046
			l-2.37,7.647l-24.94,16.656l-1.657,4.876l-9.76,7.767c-0.476-0.31-1.036-0.494-1.642-0.494c-1.167,0-2.169,0.666-2.678,1.636
			l-5.169-0.822c-0.153-0.873-0.667-1.611-1.387-2.064l4.271-18.047l13.864-10.066l8.406,3.623l20.877-15.158l7.428,7.248
			l-1.031-21.003c0.387-0.156,0.742-0.38,1.042-0.681c0.575-0.574,0.89-1.334,0.89-2.144c0-1.676-1.359-3.036-3.035-3.036
			c-0.313,0-0.613,0.058-0.9,0.152l-2.678-3.691c0.354-0.498,0.572-1.1,0.572-1.757c0-1.669-1.369-3.036-3.036-3.036
			c-1.683,0-3.043,1.366-3.043,3.036c0,0.321,0.062,0.615,0.151,0.901l-22.264,16.166l-10.543-0.19l-3.319,6.215l-25.823-5.147
			l-30.072,21.829l-0.693,4.368l-36.806,26.718l1.128,1.569l35.246-25.584l-3.008,18.952l-17.086,12.401l-23.488,3.213l0.243,1.916
			l23.99-3.28l15.911-11.55l-0.839,5.273l-50.515,36.665l1.146,1.561l20.441-14.837l-6.874,16.545l-33.448,24.282
			c-0.665-0.542-1.498-0.886-2.422-0.886c-2.116,0-3.833,1.723-3.833,3.84c0,2.114,1.717,3.836,3.833,3.836
			c2.117,0,3.833-1.723,3.833-3.836c0-0.493-0.1-0.958-0.271-1.394l33.885-24.594l8.295-19.97l27.718-20.12l5.397-33.994
			l28.738-20.864l23.528,4.69l-8.73,6.338l-10.647-2.039l-22.666,16.454c-0.494-0.358-1.1-0.57-1.753-0.57
			c-1.677,0-3.038,1.366-3.038,3.036c0,1.676,1.361,3.036,3.038,3.036c1.67,0,3.038-1.36,3.038-3.036
			c0-0.316-0.063-0.613-0.158-0.896l6.591-4.785l5.398,0.527l-1.646,10.356l-14.944,10.846c-0.498-0.351-1.098-0.564-1.755-0.564
			c-1.672,0-3.032,1.359-3.032,3.036c0,1.671,1.36,3.031,3.032,3.031c1.677,0,3.036-1.36,3.036-3.031
			c0-0.314-0.058-0.615-0.152-0.901l15.601-11.322l1.789-11.266l4.545,0.438l25.557-18.546l3.21-6.01l10.007,0.184L704,213.069
			c0.494,0.353,1.101,0.566,1.761,0.566c0.313,0,0.61-0.058,0.896-0.15l2.675,3.692c-0.351,0.495-0.564,1.095-0.564,1.754
			c0,1.388,0.941,2.543,2.207,2.906l0.79,16.099l-5.07-4.949l-21.308,15.474l-8.41-3.627l-15.333,11.129l-4.436,18.755
			c-1.539,0.144-2.755,1.428-2.755,3.006c0,1.674,1.362,3.036,3.036,3.036c1.168,0,2.172-0.668,2.68-1.631l5.17,0.824
			c0.242,1.426,1.486,2.532,2.987,2.532c1.67,0,3.036-1.366,3.036-3.036c0-0.369-0.077-0.707-0.194-1.031l10.204-8.128l1.632-4.786
			l24.971-16.672l1.455-4.714l7.941,10.399l-0.604,3.796c-1.432,0.241-2.531,1.481-2.531,2.987c0,0.329,0.065,0.643,0.166,0.942
			l-51.72,38.893c-0.49-0.34-1.08-0.539-1.714-0.539c-1.677,0-3.037,1.362-3.037,3.039c0,1.673,1.36,3.036,3.037,3.036
			c1.669,0,3.035-1.362,3.035-3.036c0-0.335-0.072-0.649-0.168-0.95l11.406-8.576l-1.845,11.616l-26.782,19.442l-23.633,1.505
			l-17.945,13.025c-0.662-0.54-1.502-0.882-2.422-0.882c-2.115,0-3.841,1.719-3.841,3.836c0,2.113,1.726,3.84,3.841,3.84
			c2.118,0,3.835-1.727,3.835-3.84c0-0.489-0.101-0.958-0.269-1.39l17.487-12.696l20.016-1.272l-10.888,7.901
			c-0.659-0.542-1.494-0.882-2.417-0.882c-2.117,0-3.84,1.718-3.84,3.837c0,2.115,1.723,3.838,3.84,3.838
			c2.116,0,3.838-1.723,3.838-3.838c0-0.492-0.106-0.961-0.275-1.393l39.024-28.33l-2.001,12.613l-29.271,21.252l-14.329,10.395
			l-16.633-2.639l-28.55,20.719 M534.517,353.291c-0.229,0.096-0.482,0.146-0.742,0.146c-0.268,0-0.513-0.05-0.742-0.146
			c-0.681-0.29-1.16-0.969-1.16-1.753c0-0.79,0.479-1.467,1.16-1.754c0.229-0.097,0.475-0.148,0.742-0.148
			c0.993,0,1.784,0.769,1.868,1.742c0.005,0.051,0.036,0.101,0.036,0.16C535.679,352.322,535.199,353.001,534.517,353.291
			 M621.721,259.396c-0.027,0.025-0.058,0.039-0.085,0.06c-0.162,0.095-0.336,0.16-0.534,0.16c-0.61,0-1.104-0.495-1.104-1.104
			c0-0.144,0.034-0.278,0.08-0.4c0.035-0.081,0.085-0.145,0.134-0.218c0.022-0.031,0.035-0.065,0.066-0.096
			c0.165-0.188,0.388-0.31,0.646-0.352c0.06-0.011,0.115-0.034,0.177-0.034c0.605,0,1.1,0.491,1.1,1.1
			C622.202,258.884,622,259.198,621.721,259.396 M618.604,277.518L618.604,277.518c-0.076,0.16-0.203,0.296-0.356,0.396
			c-0.026,0.024-0.052,0.039-0.084,0.056c-0.162,0.094-0.333,0.162-0.537,0.162c-0.605,0-1.099-0.488-1.099-1.099
			c0-0.145,0.026-0.277,0.08-0.397c0.029-0.083,0.084-0.149,0.126-0.218c0.023-0.034,0.044-0.072,0.072-0.096
			c0.161-0.19,0.385-0.31,0.64-0.356c0.063-0.013,0.117-0.037,0.181-0.037c0.608,0,1.104,0.493,1.104,1.104
			C618.73,277.208,618.675,277.366,618.604,277.518 M641.905,251.991l-8.969-0.873l13.04-9.466l8.048,1.539L641.905,251.991z
			 M705.761,211.703c-0.611,0-1.106-0.493-1.106-1.104c0-0.352,0.182-0.653,0.44-0.856c0.011-0.004,0.015-0.008,0.025-0.013
			c0.184-0.141,0.393-0.23,0.641-0.23c0.353,0,0.653,0.179,0.855,0.446c0.005,0.004,0.009,0.009,0.014,0.02
			c0.139,0.183,0.23,0.391,0.23,0.634C706.861,211.21,706.368,211.703,705.761,211.703 M710.703,218.932
			c0-0.608,0.492-1.103,1.101-1.103c0.175,0,0.34,0.055,0.484,0.125c0.164,0.081,0.295,0.203,0.401,0.352
			c0.019,0.03,0.04,0.053,0.06,0.09c0.09,0.158,0.154,0.333,0.154,0.531v0.004c0,0.167-0.042,0.32-0.106,0.461
			c-0.178,0.371-0.551,0.638-0.993,0.638C711.195,220.031,710.703,219.538,710.703,218.932 M657.831,278.755L657.831,278.755
			c-0.107,0.039-0.223,0.075-0.342,0.075c-0.125,0-0.241-0.032-0.353-0.079c-0.103-0.028-0.189-0.088-0.274-0.148
			c-0.216-0.151-0.365-0.371-0.423-0.638c-0.018-0.077-0.053-0.151-0.053-0.241c0-0.141,0.035-0.271,0.082-0.388
			c0.155-0.415,0.553-0.711,1.021-0.711c0.61,0,1.1,0.491,1.1,1.099C658.588,278.215,658.268,278.616,657.831,278.755
			 M668.326,280.549c-0.132,0-0.245-0.028-0.358-0.076c-0.103-0.034-0.188-0.085-0.275-0.147c-0.275-0.199-0.47-0.51-0.47-0.877
			c0-0.611,0.495-1.104,1.104-1.104c0.605,0,1.1,0.493,1.1,1.104C669.425,280.056,668.931,280.549,668.326,280.549 M661.601,304.508
			c-0.032,0.028-0.063,0.047-0.096,0.064c-0.163,0.099-0.34,0.163-0.538,0.163c-0.462,0-0.855-0.275-1.017-0.667
			c-0.059-0.135-0.087-0.282-0.087-0.432c0-0.145,0.028-0.275,0.08-0.397c0.031-0.077,0.08-0.141,0.122-0.207
			c0.03-0.037,0.042-0.075,0.07-0.102c0.074-0.092,0.167-0.162,0.269-0.227c0,0,0.006,0,0.006-0.004
			c0.107-0.06,0.226-0.1,0.357-0.13c0.062-0.009,0.126-0.032,0.199-0.032c0.605,0,1.099,0.491,1.099,1.1
			C662.066,304.003,661.876,304.306,661.601,304.508 M604.37,343.394c-0.291,0.683-0.966,1.161-1.756,1.161
			c-0.522,0-1.003-0.213-1.345-0.555c-0.342-0.346-0.56-0.819-0.56-1.347c0-1.052,0.856-1.902,1.904-1.902
			c0.004,0,0.008,0.004,0.016,0.004c0.267,0.004,0.513,0.058,0.742,0.153c0.621,0.271,1.049,0.878,1.113,1.584
			c0.004,0.051,0.031,0.107,0.031,0.16C604.516,342.913,604.466,343.165,604.37,343.394 M632.278,338.151
			c0,1.047-0.847,1.901-1.899,1.901c-1.051,0-1.9-0.854-1.9-1.901c0-1.053,0.85-1.901,1.9-1.901c0.993,0,1.782,0.767,1.871,1.738
			c0.003,0.025,0.003,0.055,0.012,0.079C632.261,338.095,632.278,338.119,632.278,338.151 M718.098,262.007
			c-0.076,0.092-0.171,0.16-0.271,0.218l-0.006,0.004c-0.111,0.068-0.226,0.106-0.352,0.132c-0.068,0.009-0.127,0.039-0.198,0.039
			c-0.604,0-1.1-0.496-1.1-1.1c0-0.241,0.091-0.451,0.218-0.63l0,0c0.202-0.279,0.512-0.474,0.882-0.474
			c0.607,0,1.103,0.493,1.103,1.104c0,0.139-0.035,0.271-0.081,0.397c-0.03,0.077-0.081,0.134-0.125,0.207
			C718.139,261.935,718.126,261.977,718.098,262.007"/>
		<path fill="#479FD8" stroke="#479FD8" stroke-width="0.25" stroke-miterlimit="10" d="M614.157,317.753l14.293,0.393
			l25.882-18.255c0.504,0.368,1.114,0.594,1.78,0.594c1.678,0,3.036-1.361,3.036-3.036c0-1.673-1.358-3.041-3.036-3.041
			c-1.67,0.005-3.032,1.367-3.032,3.041c0,0.301,0.06,0.581,0.137,0.856l-25.354,17.889l-14.312-0.396l-42.535,30.879
			c-0.665-0.544-1.496-0.883-2.421-0.883c-2.111,0-3.838,1.718-3.838,3.836c0,2.116,1.727,3.839,3.838,3.839
			c2.117,0,3.838-1.723,3.838-3.839c0-0.491-0.101-0.96-0.275-1.392L614.157,317.753z M655.151,296.945L655.151,296.945
			c0.086-0.158,0.208-0.291,0.353-0.393c0.028-0.019,0.054-0.032,0.083-0.053c0.159-0.09,0.333-0.154,0.525-0.154
			c0.613,0,1.106,0.495,1.106,1.104c0,0.141-0.028,0.275-0.084,0.397c-0.034,0.087-0.087,0.156-0.133,0.222
			c-0.026,0.035-0.04,0.069-0.064,0.096c-0.204,0.235-0.487,0.384-0.825,0.384c-0.604,0-1.097-0.495-1.097-1.099
			C655.015,297.263,655.073,297.101,655.151,296.945 M569.333,351.38c-0.224,0.097-0.478,0.148-0.737,0.148
			c-0.263,0-0.513-0.051-0.743-0.148c-0.681-0.292-1.157-0.965-1.157-1.75s0.477-1.465,1.157-1.755
			c0.23-0.098,0.48-0.146,0.743-0.146c0.99,0,1.784,0.765,1.866,1.738c0.006,0.054,0.033,0.103,0.033,0.163
			C570.495,350.415,570.019,351.087,569.333,351.38"/>
		<path fill="#479FD8" d="M105.251,357.059c-2.023,11.324-7.511,17.946-19.558,17.946c-9.897,0-16.099-5.783-14.846-16.812
			c0-0.66,0.06-1.313,0.179-2.031l4.174-23.55h7.338l-4.001,22.538c-0.175,0.775-0.237,1.429-0.237,2.09
			c-0.655,6.792,1.734,10.907,8.223,10.907c7.28,0,10.378-5.186,11.69-12.581l4.053-22.954h7.28L105.251,357.059z"/>
		<polygon fill="#479FD8" points="143.039,374.35 125.153,344.659 119.963,374.35 113.104,374.35 120.441,332.61 126.286,332.61 
			144.173,362.364 149.358,332.61 156.218,332.61 148.884,374.35 		"/>
		<polygon fill="#479FD8" points="168.722,332.612 176.06,332.612 168.722,374.352 161.392,374.352 		"/>
		<path fill="#479FD8" d="M205.681,331.953c11.746,0,20.096,7.401,20.096,19.147c0,13.352-9.125,23.904-23.673,23.904
			c-13.472,0-20.627-8.644-20.627-19.438C181.476,342.395,190.957,331.953,205.681,331.953 M202.402,368.147
			c9.182,0,15.441-6.738,15.441-16.453c0-7.692-4.949-12.88-12.818-12.88c-9.3,0-15.625,7.092-15.625,16.336
			C189.4,363.14,194.829,368.147,202.402,368.147"/>
		<polygon fill="#479FD8" points="260.223,374.35 242.337,344.659 237.145,374.35 230.29,374.35 237.625,332.61 243.471,332.61 
			261.354,362.364 266.542,332.61 273.399,332.61 266.068,374.35 		"/>
		<polygon fill="#479FD8" points="294.373,374.467 288.828,374.467 279.046,332.612 286.505,332.612 293.301,363.496 
			310.776,332.612 318.463,332.612 		"/>
		<polygon fill="#479FD8" points="325.008,332.612 332.343,332.612 325.008,374.352 317.675,374.352 		"/>
		<polygon fill="#479FD8" points="344.796,332.612 352.131,332.612 345.992,367.497 365.184,367.497 363.996,374.352 
			337.459,374.352 		"/>
		<polygon fill="#479FD8" points="377.874,332.612 385.212,332.612 379.065,367.497 398.264,367.497 397.071,374.352 
			370.539,374.352 		"/>
		<polygon fill="#479FD8" points="410.957,332.612 435.4,332.612 434.205,339.467 417.101,339.467 415.25,349.902 430.57,349.902 
			429.381,356.758 414.061,356.758 412.148,367.497 429.853,367.497 428.662,374.352 403.62,374.352 		"/>
		<polygon fill="#479FD8" points="480.404,356.523 461.028,356.523 457.864,374.352 450.533,374.352 457.864,332.612 465.2,332.612 
			462.217,349.662 481.595,349.662 484.578,332.612 491.85,332.612 484.521,374.352 477.243,374.352 		"/>
		<path fill="#479FD8" d="M499.05,344.298c0-6.441,5.187-12.342,15.025-12.342c5.069,0,9.187,1.964,11.33,4.654l-4.473,5.12
			c-1.671-1.727-4.054-2.917-7.272-2.917c-4.352,0-6.74,2.208-6.74,4.949c0,7.336,15.504,6.734,15.504,18.542
			c0,7.452-5.607,12.696-14.551,12.696c-6.734,0-11.746-2.976-13.534-7.028l4.711-4.657c1.964,3.1,5.068,4.83,8.823,4.83
			c3.643,0,6.683-1.785,6.683-5.126C514.556,355.624,499.05,355.866,499.05,344.298"/>
		<polygon fill="#479FD8" points="625.528,387.214 621.696,387.214 617.859,387.214 621.696,387.214 		"/>
		<circle fill="none" stroke="#479FD8" stroke-width="2" stroke-miterlimit="10" cx="139.174" cy="308.578" r="3.633"/>
		<path fill="none" stroke="#479FD8" stroke-width="2" stroke-miterlimit="10" d="M273.967,312.239c0-2.005-1.625-3.631-3.629-3.631
			c-2.007,0-3.632,1.626-3.632,3.631c0,2.009,1.625,3.634,3.632,3.634C272.343,315.873,273.967,314.248,273.967,312.239z"/>
		<path fill="none" stroke="#479FD8" stroke-width="2" stroke-miterlimit="10" d="M348.318,299.615c0-2.004-1.626-3.633-3.63-3.633
			c-2.012,0-3.634,1.629-3.634,3.633c0,2.009,1.622,3.629,3.634,3.629C346.692,303.245,348.318,301.625,348.318,299.615z"/>
		<path fill="none" stroke="#479FD8" stroke-width="2" stroke-miterlimit="10" d="M512.278,293.471
			c-11.201,11.089-9.257,9.161-18.966,18.768H386.561"/>
		<path fill="none" stroke="#479FD8" stroke-width="2" stroke-miterlimit="10" d="M386.559,312.239c0-2.005-1.625-3.631-3.629-3.631
			c-2.012,0-3.631,1.626-3.631,3.631c0,2.009,1.619,3.634,3.631,3.634C384.934,315.873,386.559,314.248,386.559,312.239z"/>
		<path fill="none" stroke="#479FD8" stroke-width="2" stroke-miterlimit="10" d="M594.865,383.38
			c-11.2,11.091-9.255,9.163-18.968,18.77H469.149"/>
		<path fill="none" stroke="#479FD8" stroke-width="2" stroke-miterlimit="10" d="M469.147,402.15c0-2.007-1.627-3.635-3.631-3.635
			c-2.009,0-3.632,1.628-3.632,3.635c0,2.008,1.623,3.63,3.632,3.63C467.52,405.78,469.147,404.158,469.147,402.15z"/>
		<path fill="none" stroke="#479FD8" stroke-width="2" stroke-miterlimit="10" d="M301.497,383.38c0-2.01-1.623-3.629-3.631-3.629
			c-2.005,0-3.632,1.62-3.632,3.629c0,2.004,1.627,3.631,3.632,3.631C299.874,387.011,301.497,385.385,301.497,383.38z"/>
		<path fill="none" stroke="#479FD8" stroke-width="2" stroke-miterlimit="10" d="M539.045,373.724c0-2.005-1.624-3.631-3.631-3.631
			c-2.012,0-3.632,1.626-3.632,3.631c0,2.004,1.62,3.631,3.632,3.631C537.421,377.355,539.045,375.729,539.045,373.724z"/>
		<path fill="none" stroke="#479FD8" stroke-width="2" stroke-miterlimit="10" d="M556.285,321.24l-3.737,2.744H232.457
			c-7.831-7.308-8.64-8.065-16.462-15.375h-73.188"/>
		<path fill="none" stroke="#479FD8" stroke-width="2" stroke-miterlimit="10" d="M567.222,292.846l-4.869,0.624H375.477
			c-7.544,7.466-11.418,11.302-18.966,18.768h-82.544"/>
		<polyline fill="none" stroke="#479FD8" stroke-width="2" stroke-miterlimit="10" points="625.355,380.635 621.585,383.38 
			301.497,383.38 		"/>
		<polyline fill="none" stroke="#479FD8" stroke-width="2" stroke-miterlimit="10" points="574.699,281.676 571.595,283.921 
			571.592,283.924 361.564,283.924 347.615,297.728 		"/>
		<polyline fill="none" stroke="#479FD8" stroke-width="2" stroke-miterlimit="10" points="583.535,370.98 579.796,373.724 
			538.141,373.724 		"/>
	</g>
</g>
<g id="new" display="none">
	<path display="inline" fill="#479FD8" stroke="#479FD8" stroke-width="0.25" stroke-miterlimit="10" d="M614.157,317.753
		l14.293,0.393l25.882-18.255c0.504,0.368,1.114,0.594,1.78,0.594c1.678,0,3.036-1.361,3.036-3.036c0-1.673-1.358-3.041-3.036-3.041
		c-1.67,0.005-3.032,1.367-3.032,3.041c0,0.301,0.06,0.581,0.137,0.856l-25.354,17.889l-14.312-0.396l-42.535,30.879
		c-0.665-0.544-1.496-0.883-2.421-0.883c-2.111,0-3.838,1.718-3.838,3.836c0,2.116,1.727,3.839,3.838,3.839
		c2.117,0,3.838-1.723,3.838-3.839c0-0.491-0.101-0.96-0.275-1.392L614.157,317.753z M655.151,296.945L655.151,296.945
		c0.086-0.158,0.208-0.291,0.353-0.393c0.028-0.019,0.054-0.032,0.083-0.053c0.159-0.09,0.333-0.154,0.525-0.154
		c0.613,0,1.106,0.495,1.106,1.104c0,0.141-0.028,0.275-0.084,0.397c-0.034,0.087-0.087,0.156-0.133,0.222
		c-0.026,0.035-0.04,0.069-0.064,0.096c-0.204,0.235-0.487,0.384-0.825,0.384c-0.604,0-1.097-0.495-1.097-1.099
		C655.015,297.263,655.073,297.101,655.151,296.945 M569.333,351.38c-0.224,0.097-0.478,0.148-0.737,0.148
		c-0.263,0-0.513-0.051-0.743-0.148c-0.681-0.292-1.157-0.965-1.157-1.75s0.477-1.465,1.157-1.755
		c0.23-0.098,0.48-0.146,0.743-0.146c0.99,0,1.784,0.765,1.866,1.738c0.006,0.054,0.033,0.103,0.033,0.163
		C570.495,350.415,570.019,351.087,569.333,351.38"/>
	<path display="inline" fill="#479FD8" stroke="#479FD8" stroke-width="0.25" stroke-miterlimit="10" d="M718.675,258.622
		l0.733-4.62l-10.714-14.046l-2.37,7.647l-24.94,16.656l-1.657,4.876l-9.76,7.767c-0.476-0.31-1.036-0.494-1.642-0.494
		c-1.167,0-2.169,0.666-2.678,1.636l-5.169-0.822c-0.153-0.873-0.667-1.611-1.387-2.064l4.271-18.047l13.864-10.066l8.406,3.623
		l20.877-15.158l7.428,7.248l-1.031-21.003c0.387-0.156,0.742-0.38,1.042-0.681c0.575-0.574,0.89-1.334,0.89-2.144
		c0-1.676-1.359-3.036-3.035-3.036c-0.313,0-0.613,0.058-0.9,0.152l-2.678-3.691c0.354-0.498,0.572-1.1,0.572-1.757
		c0-1.669-1.369-3.036-3.036-3.036c-1.683,0-3.043,1.366-3.043,3.036c0,0.321,0.062,0.615,0.151,0.901l-22.264,16.166l-10.543-0.19
		l-3.319,6.215l-25.823-5.147l-30.072,21.829l-0.693,4.368l-34.849,25.298l-160.729-0.006l-40.949-31.216l-225.3,0.075
		c-0.112-0.451-0.308-0.891-0.597-1.286c-1.246-1.712-3.65-2.091-5.362-0.846c-1.707,1.243-2.089,3.651-0.843,5.363
		s3.654,2.085,5.36,0.842c0.748-0.544,1.22-1.308,1.438-2.139l224.71-0.073l38.256,29.278l-139.239-0.027l-21.995-16.812
		l-87.938,0.075c-0.112-0.451-0.308-0.891-0.597-1.286c-1.246-1.712-3.65-2.091-5.362-0.846c-1.707,1.243-2.089,3.651-0.843,5.363
		s3.654,2.085,5.36,0.842c0.748-0.544,1.22-1.308,1.438-2.139l87.349-0.073l19.349,14.875l-89.09-0.039
		c-0.218-0.831-0.689-1.595-1.438-2.139c-1.706-1.243-4.114-0.87-5.36,0.842s-0.864,4.12,0.843,5.363
		c1.712,1.245,4.116,0.866,5.362-0.846c0.289-0.396,0.484-0.835,0.597-1.286l91.605,0.041l3.254,0.001l139.525,0.028h2.788
		l156.935,0.005l2.095,0l2.668-1.937l31.128-22.595l-3.008,18.952l-17.086,12.401l-22.776,3.116l-39.162-0.005l-3.27,0l-62.19-0.008
		L191.24,291.84c-0.218-0.831-0.689-1.595-1.438-2.139c-1.706-1.243-4.114-0.87-5.36,0.842s-0.864,4.12,0.843,5.363
		c1.712,1.246,4.116,0.866,5.362-0.846c0.289-0.396,0.484-0.835,0.597-1.286l268.338,0.059l-13.312,9.732l-243.152-0.073
		c-0.218-0.831-0.689-1.595-1.438-2.139c-1.706-1.243-4.114-0.87-5.36,0.842s-0.864,4.12,0.843,5.363
		c1.712,1.246,4.116,0.866,5.362-0.846c0.289-0.396,0.484-0.835,0.597-1.286l243.742,0.075l15.992-11.667l64.27,0.009h0.961
		l38.854,0.005l23.434-3.204l15.911-11.55l-0.839,5.273l-49.911,36.227l-335.311-0.073c-0.218-0.831-0.689-1.595-1.438-2.139
		c-1.706-1.243-4.114-0.87-5.36,0.842s-0.864,4.12,0.843,5.363c1.712,1.246,4.116,0.866,5.362-0.846
		c0.289-0.396,0.484-0.835,0.597-1.286l314.062-0.12L501.25,345.89l-90.33-0.054l-14.829-10.538l-48.473,0.035l-3.287,0.001
		l-109.195,0.04c-0.112-0.451-0.308-0.891-0.597-1.286c-1.246-1.712-3.65-2.091-5.362-0.846c-1.707,1.243-2.089,3.651-0.843,5.363
		s3.654,2.085,5.36,0.842c0.748-0.544,1.22-1.308,1.438-2.139l106.471-0.038l-26.353,18.702l-60.12-0.073
		c-0.218-0.831-0.689-1.595-1.438-2.139c-1.706-1.243-4.114-0.87-5.36,0.842s-0.864,4.12,0.843,5.363
		c1.712,1.245,4.116,0.866,5.362-0.846c0.289-0.396,0.484-0.835,0.597-1.286l60.71,0.075l29.048-20.64l50.604-0.034l12.129,8.596
		l3.113,1.969l1.726,0.001l89.379,0.025l35.721-25.488l18.469,0.194l20.486-14.776l-6.874,16.545l-33.448,24.282
		c-0.665-0.542-1.498-0.886-2.422-0.886c-2.116,0-3.833,1.723-3.833,3.84c0,2.114,1.717,3.836,3.833,3.836
		c2.117,0,3.833-1.723,3.833-3.836c0-0.493-0.1-0.958-0.271-1.394l33.885-24.594l8.295-19.97l27.718-20.12l5.397-33.994
		l28.738-20.864l23.528,4.69l-8.73,6.338l-10.647-2.039l-22.666,16.454c-0.494-0.358-1.1-0.57-1.753-0.57
		c-1.677,0-3.038,1.366-3.038,3.036c0,1.676,1.361,3.036,3.038,3.036c1.67,0,3.038-1.36,3.038-3.036
		c0-0.316-0.063-0.613-0.158-0.896l6.591-4.785l5.398,0.527l-1.646,10.356l-14.944,10.846c-0.498-0.351-1.098-0.564-1.755-0.564
		c-1.672,0-3.032,1.359-3.032,3.036c0,1.671,1.36,3.031,3.032,3.031c1.677,0,3.036-1.36,3.036-3.031
		c0-0.314-0.058-0.615-0.152-0.901l15.601-11.322l1.789-11.266l4.545,0.438l25.557-18.546l3.21-6.01l10.007,0.184L704,213.069
		c0.494,0.353,1.101,0.566,1.761,0.566c0.313,0,0.61-0.058,0.896-0.15l2.675,3.692c-0.351,0.495-0.564,1.095-0.564,1.754
		c0,1.388,0.941,2.543,2.207,2.906l0.79,16.099l-5.07-4.949l-21.308,15.474l-8.41-3.627l-15.333,11.129l-4.436,18.755
		c-1.539,0.144-2.755,1.428-2.755,3.006c0,1.674,1.362,3.036,3.036,3.036c1.168,0,2.172-0.668,2.68-1.631l5.17,0.824
		c0.242,1.426,1.486,2.532,2.987,2.532c1.67,0,3.036-1.366,3.036-3.036c0-0.369-0.077-0.707-0.194-1.031l10.204-8.128l1.632-4.786
		l24.971-16.672l1.455-4.714l7.941,10.399l-0.604,3.796c-1.432,0.241-2.531,1.481-2.531,2.987c0,0.329,0.065,0.643,0.166,0.942
		l-51.72,38.893c-0.49-0.34-1.08-0.539-1.714-0.539c-1.677,0-3.037,1.362-3.037,3.039c0,1.673,1.36,3.036,3.037,3.036
		c1.669,0,3.035-1.362,3.035-3.036c0-0.335-0.072-0.649-0.168-0.95l11.406-8.576l-1.845,11.616l-26.782,19.442l-23.633,1.505
		l-17.945,13.025c-0.662-0.54-1.502-0.882-2.422-0.882c-2.115,0-3.841,1.719-3.841,3.836c0,2.113,1.726,3.84,3.841,3.84
		c2.118,0,3.835-1.727,3.835-3.84c0-0.489-0.101-0.958-0.269-1.39l17.487-12.696l20.016-1.272l-10.888,7.901
		c-0.659-0.542-1.494-0.882-2.417-0.882c-2.117,0-3.84,1.718-3.84,3.837c0,2.115,1.723,3.838,3.84,3.838
		c2.116,0,3.838-1.723,3.838-3.838c0-0.492-0.106-0.961-0.275-1.393l39.024-28.33l-2.001,12.613l-29.271,21.252l-14.329,10.395
		l-16.633-2.639l-28.109,20.4l-108.837-0.046l-20.794-14.146l-102.342,0.075c-0.111-0.451-0.307-0.891-0.596-1.286
		c-1.246-1.712-3.65-2.091-5.363-0.846c-1.707,1.243-2.088,3.651-0.842,5.363s3.654,2.085,5.359,0.842
		c0.748-0.544,1.221-1.308,1.438-2.139l101.752-0.073l17.991,12.213l-200.515-0.063c-0.218-0.831-0.689-1.595-1.438-2.139
		c-1.706-1.243-4.114-0.87-5.36,0.842s-0.864,4.12,0.843,5.363c1.712,1.246,4.116,0.866,5.362-0.846
		c0.289-0.396,0.484-0.835,0.597-1.286l224.29,0.075l-0.002-0.007l89.168,0.04l27.887-20.303l16.626,2.643l13.09-9.498l2.212-1.608
		l29.6-21.485l4.716-29.7l38.094-28.635c0.488,0.333,1.08,0.532,1.715,0.532c1.673,0,3.035-1.36,3.035-3.032
		C720.306,260.133,719.637,259.129,718.675,258.622z M145.748,251.4c-0.213,0.154-0.443,0.263-0.688,0.319
		c-0.72,0.167-1.506-0.103-1.968-0.737c-0.463-0.636-0.474-1.46-0.095-2.097c0.129-0.214,0.302-0.401,0.514-0.557
		c0.21-0.152,0.445-0.261,0.683-0.314c0.728-0.168,1.508,0.096,1.971,0.731c0.034,0.048,0.041,0.103,0.068,0.15
		C146.739,249.731,146.547,250.817,145.748,251.4z M159.538,265.776c-0.213,0.154-0.443,0.263-0.688,0.319
		c-0.72,0.167-1.506-0.103-1.968-0.737c-0.463-0.636-0.474-1.46-0.095-2.097c0.129-0.214,0.302-0.401,0.514-0.557
		c0.21-0.152,0.445-0.261,0.683-0.314c0.728-0.168,1.508,0.096,1.971,0.731c0.034,0.048,0.041,0.103,0.068,0.15
		C160.529,264.107,160.337,265.193,159.538,265.776z M177.631,281.895c-0.027,0.048-0.034,0.103-0.068,0.15
		c-0.463,0.636-1.243,0.899-1.971,0.731c-0.237-0.054-0.473-0.162-0.683-0.314c-0.212-0.155-0.385-0.343-0.514-0.557
		c-0.379-0.637-0.368-1.461,0.095-2.097c0.462-0.635,1.248-0.904,1.968-0.737c0.244,0.057,0.475,0.165,0.688,0.319
		C177.945,279.974,178.137,281.06,177.631,281.895z M189.149,293.77c-0.027,0.048-0.034,0.103-0.068,0.15
		c-0.463,0.636-1.243,0.899-1.971,0.731c-0.237-0.054-0.473-0.162-0.683-0.314c-0.212-0.155-0.385-0.343-0.514-0.557
		c-0.379-0.637-0.368-1.461,0.095-2.097c0.462-0.635,1.248-0.904,1.968-0.737c0.244,0.057,0.475,0.165,0.688,0.319
		C189.464,291.849,189.655,292.935,189.149,293.77z M201.027,305.421c-0.027,0.048-0.034,0.103-0.068,0.15
		c-0.463,0.636-1.243,0.899-1.971,0.731c-0.237-0.054-0.473-0.162-0.683-0.314c-0.212-0.155-0.385-0.343-0.514-0.557
		c-0.379-0.637-0.368-1.461,0.095-2.097c0.462-0.635,1.248-0.904,1.968-0.737c0.244,0.057,0.475,0.165,0.688,0.319
		C201.342,303.5,201.533,304.586,201.027,305.421z M218.134,322.452c-0.027,0.048-0.034,0.103-0.068,0.15
		c-0.463,0.636-1.243,0.899-1.971,0.731c-0.237-0.054-0.473-0.162-0.683-0.314c-0.212-0.155-0.385-0.343-0.514-0.557
		c-0.379-0.637-0.368-1.461,0.095-2.097c0.462-0.635,1.248-0.904,1.968-0.737c0.244,0.057,0.475,0.165,0.688,0.319
		C218.448,320.531,218.64,321.617,218.134,322.452z M232.556,337.881c-0.213,0.154-0.443,0.263-0.688,0.319
		c-0.72,0.167-1.506-0.103-1.968-0.737c-0.463-0.636-0.474-1.46-0.095-2.097c0.129-0.214,0.302-0.401,0.514-0.557
		c0.21-0.152,0.445-0.261,0.683-0.314c0.728-0.168,1.508,0.096,1.971,0.731c0.034,0.048,0.041,0.103,0.068,0.15
		C233.547,336.212,233.355,337.298,232.556,337.881z M253.04,357.828c-0.027,0.048-0.034,0.103-0.068,0.15
		c-0.463,0.636-1.243,0.899-1.971,0.731c-0.237-0.054-0.473-0.162-0.683-0.314c-0.212-0.155-0.385-0.343-0.514-0.557
		c-0.379-0.637-0.368-1.461,0.095-2.097c0.462-0.635,1.248-0.904,1.968-0.737c0.244,0.057,0.475,0.165,0.688,0.319
		C253.354,355.907,253.545,356.993,253.04,357.828z M534.517,353.291c-0.229,0.096-0.482,0.146-0.742,0.146
		c-0.268,0-0.513-0.05-0.742-0.146c-0.681-0.29-1.16-0.969-1.16-1.753c0-0.79,0.479-1.467,1.16-1.754
		c0.229-0.097,0.475-0.148,0.742-0.148c0.993,0,1.784,0.769,1.868,1.742c0.005,0.051,0.036,0.101,0.036,0.16
		C535.679,352.322,535.199,353.001,534.517,353.291z M621.721,259.396c-0.027,0.025-0.058,0.039-0.085,0.06
		c-0.162,0.095-0.336,0.16-0.534,0.16c-0.61,0-1.104-0.495-1.104-1.104c0-0.144,0.034-0.278,0.08-0.4
		c0.035-0.081,0.085-0.145,0.134-0.218c0.022-0.031,0.035-0.065,0.066-0.096c0.165-0.188,0.388-0.31,0.646-0.352
		c0.06-0.011,0.115-0.034,0.177-0.034c0.605,0,1.1,0.491,1.1,1.1C622.202,258.884,622,259.198,621.721,259.396z M618.604,277.518
		c-0.076,0.16-0.203,0.296-0.356,0.396c-0.026,0.024-0.052,0.039-0.084,0.056c-0.162,0.094-0.333,0.162-0.537,0.162
		c-0.605,0-1.099-0.488-1.099-1.099c0-0.145,0.026-0.277,0.08-0.397c0.029-0.083,0.084-0.149,0.126-0.218
		c0.023-0.034,0.044-0.072,0.072-0.096c0.161-0.19,0.385-0.31,0.64-0.356c0.063-0.013,0.117-0.037,0.181-0.037
		c0.608,0,1.104,0.493,1.104,1.104C618.73,277.208,618.675,277.366,618.604,277.518z M641.905,251.991l-8.969-0.873l13.04-9.466
		l8.048,1.539L641.905,251.991z M705.761,211.703c-0.611,0-1.106-0.493-1.106-1.104c0-0.352,0.182-0.653,0.44-0.856
		c0.011-0.004,0.015-0.008,0.025-0.013c0.184-0.141,0.393-0.23,0.641-0.23c0.353,0,0.653,0.179,0.855,0.446
		c0.005,0.004,0.009,0.009,0.014,0.02c0.139,0.183,0.23,0.391,0.23,0.634C706.861,211.21,706.368,211.703,705.761,211.703z
		 M710.703,218.932c0-0.608,0.492-1.103,1.101-1.103c0.175,0,0.34,0.055,0.484,0.125c0.164,0.081,0.295,0.203,0.401,0.352
		c0.019,0.03,0.04,0.053,0.06,0.09c0.09,0.158,0.154,0.333,0.154,0.531v0.004c0,0.167-0.042,0.32-0.106,0.461
		c-0.178,0.371-0.551,0.638-0.993,0.638C711.195,220.031,710.703,219.538,710.703,218.932z M657.831,278.755
		c-0.107,0.039-0.223,0.075-0.342,0.075c-0.125,0-0.241-0.032-0.353-0.079c-0.103-0.028-0.189-0.088-0.274-0.148
		c-0.216-0.151-0.365-0.371-0.423-0.638c-0.018-0.077-0.053-0.151-0.053-0.241c0-0.141,0.035-0.271,0.082-0.388
		c0.155-0.415,0.553-0.711,1.021-0.711c0.61,0,1.1,0.491,1.1,1.099C658.588,278.215,658.268,278.616,657.831,278.755z
		 M668.326,280.549c-0.132,0-0.245-0.028-0.358-0.076c-0.103-0.034-0.188-0.085-0.275-0.147c-0.275-0.199-0.47-0.51-0.47-0.877
		c0-0.611,0.495-1.104,1.104-1.104c0.605,0,1.1,0.493,1.1,1.104C669.425,280.056,668.931,280.549,668.326,280.549z M661.601,304.508
		c-0.032,0.028-0.063,0.047-0.096,0.064c-0.163,0.099-0.34,0.163-0.538,0.163c-0.462,0-0.855-0.275-1.017-0.667
		c-0.059-0.135-0.087-0.282-0.087-0.432c0-0.145,0.028-0.275,0.08-0.397c0.031-0.077,0.08-0.141,0.122-0.207
		c0.03-0.037,0.042-0.075,0.07-0.102c0.074-0.092,0.167-0.162,0.269-0.227c0,0,0.006,0,0.006-0.004c0.107-0.06,0.226-0.1,0.357-0.13
		c0.062-0.009,0.126-0.032,0.199-0.032c0.605,0,1.099,0.491,1.099,1.1C662.066,304.003,661.876,304.306,661.601,304.508z
		 M604.37,343.394c-0.291,0.683-0.966,1.161-1.756,1.161c-0.522,0-1.003-0.213-1.345-0.555c-0.342-0.346-0.56-0.819-0.56-1.347
		c0-1.052,0.856-1.902,1.904-1.902c0.004,0,0.008,0.004,0.016,0.004c0.267,0.004,0.513,0.058,0.742,0.153
		c0.621,0.271,1.049,0.878,1.113,1.584c0.004,0.051,0.031,0.107,0.031,0.16C604.516,342.913,604.466,343.165,604.37,343.394z
		 M630.378,340.052c-1.051,0-1.9-0.854-1.9-1.901c0-1.053,0.85-1.901,1.9-1.901c0.993,0,1.782,0.767,1.871,1.738
		c0.003,0.025,0.003,0.055,0.012,0.079c0,0.027,0.017,0.051,0.017,0.083C632.278,339.198,631.431,340.052,630.378,340.052z
		 M348.069,358.842c-0.213,0.154-0.443,0.263-0.688,0.319c-0.719,0.167-1.506-0.103-1.967-0.737
		c-0.463-0.636-0.475-1.46-0.096-2.097c0.129-0.214,0.303-0.401,0.514-0.557c0.211-0.152,0.445-0.261,0.684-0.314
		c0.727-0.168,1.508,0.096,1.971,0.731c0.033,0.048,0.041,0.103,0.068,0.15C349.061,357.173,348.87,358.259,348.069,358.842z
		 M267.782,372.274c-0.027,0.048-0.034,0.103-0.068,0.15c-0.463,0.636-1.243,0.899-1.971,0.731
		c-0.237-0.054-0.473-0.162-0.683-0.314c-0.212-0.155-0.385-0.343-0.514-0.557c-0.379-0.637-0.368-1.461,0.095-2.097
		c0.462-0.635,1.248-0.904,1.968-0.737c0.244,0.057,0.475,0.165,0.688,0.319C268.097,370.354,268.288,371.439,267.782,372.274z
		 M718.292,261.698c-0.03,0.077-0.081,0.134-0.125,0.207c-0.028,0.03-0.041,0.072-0.069,0.103c-0.076,0.092-0.171,0.16-0.271,0.218
		l-0.006,0.004c-0.111,0.068-0.226,0.106-0.352,0.132c-0.068,0.009-0.127,0.039-0.198,0.039c-0.604,0-1.1-0.496-1.1-1.1
		c0-0.241,0.091-0.451,0.218-0.63c0.202-0.279,0.512-0.474,0.882-0.474c0.607,0,1.103,0.493,1.103,1.104
		C718.374,261.439,718.338,261.572,718.292,261.698z"/>
</g>
<g id="sporadic">
	<path fill="#FFFFFF" stroke="#FFFFFF" stroke-width="0.25" stroke-miterlimit="10" d="M614.157,317.753l14.293,0.393l25.882-18.255
		c0.504,0.368,1.114,0.594,1.78,0.594c1.678,0,3.036-1.361,3.036-3.036c0-1.673-1.358-3.041-3.036-3.041
		c-1.67,0.005-3.032,1.367-3.032,3.041c0,0.301,0.06,0.581,0.137,0.856l-25.354,17.889l-14.312-0.396l-42.535,30.879
		c-0.665-0.544-1.496-0.883-2.421-0.883c-2.111,0-3.838,1.718-3.838,3.836c0,2.116,1.727,3.839,3.838,3.839
		c2.117,0,3.838-1.723,3.838-3.839c0-0.491-0.101-0.96-0.275-1.392L614.157,317.753z M655.151,296.945L655.151,296.945
		c0.086-0.158,0.208-0.291,0.353-0.393c0.028-0.019,0.054-0.032,0.083-0.053c0.159-0.09,0.333-0.154,0.525-0.154
		c0.613,0,1.106,0.495,1.106,1.104c0,0.141-0.028,0.275-0.084,0.397c-0.034,0.087-0.087,0.156-0.133,0.222
		c-0.026,0.035-0.04,0.069-0.064,0.096c-0.204,0.235-0.487,0.384-0.825,0.384c-0.604,0-1.097-0.495-1.097-1.099
		C655.015,297.263,655.073,297.101,655.151,296.945 M569.333,351.38c-0.224,0.097-0.478,0.148-0.737,0.148
		c-0.263,0-0.513-0.051-0.743-0.148c-0.681-0.292-1.157-0.965-1.157-1.75s0.477-1.465,1.157-1.755
		c0.23-0.098,0.48-0.146,0.743-0.146c0.99,0,1.784,0.765,1.866,1.738c0.006,0.054,0.033,0.103,0.033,0.163
		C570.495,350.415,570.019,351.087,569.333,351.38"/>
	<path fill="#FFFFFF" stroke="#FFFFFF" stroke-width="0.25" stroke-miterlimit="10" d="M718.675,258.622l0.733-4.62l-10.714-14.046
		l-2.37,7.647l-24.94,16.656l-1.657,4.876l-9.76,7.767c-0.476-0.31-1.036-0.494-1.642-0.494c-1.167,0-2.169,0.666-2.678,1.636
		l-5.169-0.822c-0.153-0.873-0.667-1.611-1.387-2.064l4.271-18.047l13.864-10.066l8.406,3.623l20.877-15.158l7.428,7.248
		l-1.031-21.003c0.387-0.156,0.742-0.38,1.042-0.681c0.575-0.574,0.89-1.334,0.89-2.144c0-1.676-1.359-3.036-3.035-3.036
		c-0.313,0-0.613,0.058-0.9,0.152l-2.678-3.691c0.354-0.498,0.572-1.1,0.572-1.757c0-1.669-1.369-3.036-3.036-3.036
		c-1.683,0-3.043,1.366-3.043,3.036c0,0.321,0.062,0.615,0.151,0.901l-22.264,16.166l-10.543-0.19l-3.319,6.215l-25.823-5.147
		l-30.072,21.829l-0.693,4.368l-34.849,25.298l-160.729-0.006l-40.949-31.216l-122.029-0.422c-0.112-0.451-0.308-0.891-0.597-1.286
		c-1.246-1.712-3.65-2.091-5.362-0.846c-1.707,1.243-2.089,3.651-0.843,5.363s3.654,2.085,5.36,0.842
		c0.748-0.544,1.22-1.308,1.438-2.139l121.439,0.424l38.256,29.278l-93.559-0.027l-21.995-16.812l-87.938,0.075
		c-0.112-0.451-0.308-0.891-0.597-1.286c-1.246-1.712-3.65-2.091-5.362-0.846c-1.707,1.243-2.089,3.651-0.843,5.363
		s3.654,2.085,5.36,0.842c0.748-0.544,1.22-1.308,1.438-2.139l87.349-0.073l19.349,14.875l-93.931,0.066
		c-0.218-0.831-0.689-1.595-1.438-2.139c-1.706-1.243-4.114-0.87-5.36,0.842s-0.864,4.12,0.843,5.363
		c1.712,1.245,4.116,0.866,5.362-0.846c0.289-0.396,0.484-0.835,0.597-1.286l96.446-0.065l3.254,0.001l93.846,0.028h2.788
		l156.935,0.005l2.095,0l2.668-1.937l31.128-22.595l-3.008,18.952l-17.086,12.401l-22.776,3.116l-39.162-0.005l-3.27,0l9.185-0.008
		l-386.245-1.507c-0.218-0.831-0.689-1.595-1.438-2.139c-1.706-1.243-4.114-0.87-5.36,0.842s-0.864,4.12,0.843,5.363
		c1.712,1.246,4.116,0.866,5.362-0.846c0.289-0.396,0.484-0.835,0.597-1.286l383.593,1.508l-13.312,9.732l-167.779-0.125
		c-0.218-0.831-0.689-1.595-1.438-2.139c-1.706-1.243-4.114-0.87-5.36,0.842s-0.864,4.12,0.843,5.363
		c1.712,1.246,4.116,0.866,5.362-0.846c0.289-0.396,0.484-0.835,0.597-1.286l168.369,0.127l15.992-11.667l-7.105,0.009h0.961
		l38.854,0.005l23.434-3.204l15.911-11.55l-0.839,5.273l-49.911,36.227l-335.311-0.073c-0.218-0.831-0.689-1.595-1.438-2.139
		c-1.706-1.243-4.114-0.87-5.36,0.842s-0.864,4.12,0.843,5.363c1.712,1.246,4.116,0.866,5.362-0.846
		c0.289-0.396,0.484-0.835,0.597-1.286l314.062-0.12L501.25,345.89l-90.33-0.054l-14.829-10.538l-48.473,0.035l-3.287,0.001
		l-172.429-0.596c-0.112-0.451-0.308-0.891-0.597-1.286c-1.246-1.712-3.65-2.091-5.362-0.846c-1.707,1.243-2.089,3.651-0.843,5.363
		s3.654,2.085,5.36,0.842c0.748-0.544,1.22-1.308,1.438-2.139l169.705,0.598l-26.353,18.702l-60.12-0.073
		c-0.218-0.831-0.689-1.595-1.438-2.139c-1.706-1.243-4.114-0.87-5.36,0.842s-0.864,4.12,0.843,5.363
		c1.712,1.245,4.116,0.866,5.362-0.846c0.289-0.396,0.484-0.835,0.597-1.286l60.71,0.075l29.048-20.64l50.604-0.034l12.129,8.596
		l3.113,1.969l1.726,0.001l89.379,0.025l35.721-25.488l18.469,0.194l20.486-14.776l-6.874,16.545l-33.448,24.282
		c-0.665-0.542-1.498-0.886-2.422-0.886c-2.116,0-3.833,1.723-3.833,3.84c0,2.114,1.717,3.836,3.833,3.836
		c2.117,0,3.833-1.723,3.833-3.836c0-0.493-0.1-0.958-0.271-1.394l33.885-24.594l8.295-19.97l27.718-20.12l5.397-33.994
		l28.738-20.864l23.528,4.69l-8.73,6.338l-10.647-2.039l-22.666,16.454c-0.494-0.358-1.1-0.57-1.753-0.57
		c-1.677,0-3.038,1.366-3.038,3.036c0,1.676,1.361,3.036,3.038,3.036c1.67,0,3.038-1.36,3.038-3.036
		c0-0.316-0.063-0.613-0.158-0.896l6.591-4.785l5.398,0.527l-1.646,10.356l-14.944,10.846c-0.498-0.351-1.098-0.564-1.755-0.564
		c-1.672,0-3.032,1.359-3.032,3.036c0,1.671,1.36,3.031,3.032,3.031c1.677,0,3.036-1.36,3.036-3.031
		c0-0.314-0.058-0.615-0.152-0.901l15.601-11.322l1.789-11.266l4.545,0.438l25.557-18.546l3.21-6.01l10.007,0.184L704,213.069
		c0.494,0.353,1.101,0.566,1.761,0.566c0.313,0,0.61-0.058,0.896-0.15l2.675,3.692c-0.351,0.495-0.564,1.095-0.564,1.754
		c0,1.388,0.941,2.543,2.207,2.906l0.79,16.099l-5.07-4.949l-21.308,15.474l-8.41-3.627l-15.333,11.129l-4.436,18.755
		c-1.539,0.144-2.755,1.428-2.755,3.006c0,1.674,1.362,3.036,3.036,3.036c1.168,0,2.172-0.668,2.68-1.631l5.17,0.824
		c0.242,1.426,1.486,2.532,2.987,2.532c1.67,0,3.036-1.366,3.036-3.036c0-0.369-0.077-0.707-0.194-1.031l10.204-8.128l1.632-4.786
		l24.971-16.672l1.455-4.714l7.941,10.399l-0.604,3.796c-1.432,0.241-2.531,1.481-2.531,2.987c0,0.329,0.065,0.643,0.166,0.942
		l-51.72,38.893c-0.49-0.34-1.08-0.539-1.714-0.539c-1.677,0-3.037,1.362-3.037,3.039c0,1.673,1.36,3.036,3.037,3.036
		c1.669,0,3.035-1.362,3.035-3.036c0-0.335-0.072-0.649-0.168-0.95l11.406-8.576l-1.845,11.616l-26.782,19.442l-23.633,1.505
		l-17.945,13.025c-0.662-0.54-1.502-0.882-2.422-0.882c-2.115,0-3.841,1.719-3.841,3.836c0,2.113,1.726,3.84,3.841,3.84
		c2.118,0,3.835-1.727,3.835-3.84c0-0.489-0.101-0.958-0.269-1.39l17.487-12.696l20.016-1.272l-10.888,7.901
		c-0.659-0.542-1.494-0.882-2.417-0.882c-2.117,0-3.84,1.718-3.84,3.837c0,2.115,1.723,3.838,3.84,3.838
		c2.116,0,3.838-1.723,3.838-3.838c0-0.492-0.106-0.961-0.275-1.393l39.024-28.33l-2.001,12.613l-29.271,21.252l-14.329,10.395
		l-16.633-2.639l-28.109,20.4l-108.837-0.046l-20.794-14.146l-102.342,0.075c-0.111-0.451-0.307-0.891-0.596-1.286
		c-1.246-1.712-3.65-2.091-5.363-0.846c-1.707,1.243-2.088,3.651-0.842,5.363s3.654,2.085,5.359,0.842
		c0.748-0.544,1.221-1.308,1.438-2.139l101.752-0.073l17.991,12.213l-249.248-0.063c-0.218-0.831-0.689-1.595-1.438-2.139
		c-1.706-1.243-4.114-0.87-5.36,0.842s-0.864,4.12,0.843,5.363c1.712,1.246,4.116,0.866,5.362-0.846
		c0.289-0.396,0.484-0.835,0.597-1.286l273.022,0.075l-0.002-0.007l89.168,0.04l27.887-20.303l16.626,2.643l13.09-9.498l2.212-1.608
		l29.6-21.485l4.716-29.7l38.094-28.635c0.488,0.333,1.08,0.532,1.715,0.532c1.673,0,3.035-1.36,3.035-3.032
		C720.306,260.133,719.637,259.129,718.675,258.622z M249.018,250.903c-0.213,0.154-0.443,0.263-0.688,0.319
		c-0.72,0.167-1.506-0.103-1.968-0.737c-0.463-0.636-0.474-1.46-0.095-2.097c0.129-0.214,0.302-0.401,0.514-0.557
		c0.21-0.152,0.445-0.261,0.683-0.314c0.728-0.168,1.508,0.096,1.971,0.731c0.034,0.048,0.041,0.103,0.068,0.15
		C250.009,249.234,249.818,250.32,249.018,250.903z M205.218,265.776c-0.213,0.154-0.443,0.263-0.688,0.319
		c-0.72,0.167-1.506-0.103-1.968-0.737c-0.463-0.636-0.474-1.46-0.095-2.097c0.129-0.214,0.302-0.401,0.514-0.557
		c0.21-0.152,0.445-0.261,0.683-0.314c0.728-0.168,1.508,0.096,1.971,0.731c0.034,0.048,0.041,0.103,0.068,0.15
		C206.209,264.107,206.018,265.193,205.218,265.776z M218.47,282c-0.027,0.048-0.034,0.103-0.068,0.15
		c-0.463,0.636-1.243,0.899-1.971,0.731c-0.237-0.054-0.473-0.162-0.683-0.314c-0.212-0.155-0.385-0.343-0.514-0.557
		c-0.379-0.637-0.368-1.461,0.095-2.097c0.462-0.635,1.248-0.904,1.968-0.737c0.244,0.057,0.475,0.165,0.688,0.319
		C218.784,280.079,218.976,281.165,218.47,282z M145.27,292.32c-0.027,0.048-0.034,0.103-0.068,0.15
		c-0.463,0.636-1.243,0.899-1.971,0.731c-0.237-0.054-0.473-0.162-0.683-0.314c-0.212-0.155-0.385-0.343-0.514-0.557
		c-0.379-0.637-0.368-1.461,0.095-2.097c0.462-0.635,1.248-0.904,1.968-0.737c0.244,0.057,0.475,0.165,0.688,0.319
		C145.584,290.399,145.776,291.485,145.27,292.32z M347.775,305.369c-0.027,0.048-0.034,0.103-0.068,0.15
		c-0.463,0.636-1.243,0.899-1.971,0.731c-0.237-0.054-0.473-0.162-0.683-0.314c-0.212-0.155-0.385-0.343-0.514-0.557
		c-0.379-0.637-0.368-1.461,0.095-2.097c0.462-0.635,1.248-0.904,1.968-0.737c0.244,0.057,0.475,0.165,0.688,0.319
		C348.089,303.448,348.281,304.534,347.775,305.369z M218.134,322.452c-0.027,0.048-0.034,0.103-0.068,0.15
		c-0.463,0.636-1.243,0.899-1.971,0.731c-0.237-0.054-0.473-0.162-0.683-0.314c-0.212-0.155-0.385-0.343-0.514-0.557
		c-0.379-0.637-0.368-1.461,0.095-2.097c0.462-0.635,1.248-0.904,1.968-0.737c0.244,0.057,0.475,0.165,0.688,0.319
		C218.448,320.531,218.64,321.617,218.134,322.452z M169.322,337.246c-0.213,0.154-0.443,0.263-0.688,0.319
		c-0.72,0.167-1.506-0.103-1.968-0.737c-0.463-0.636-0.474-1.46-0.095-2.097c0.129-0.214,0.302-0.401,0.514-0.557
		c0.21-0.152,0.445-0.261,0.683-0.314c0.728-0.168,1.508,0.096,1.971,0.731c0.034,0.048,0.041,0.103,0.068,0.15
		C170.313,335.577,170.122,336.663,169.322,337.246z M253.04,357.828c-0.027,0.048-0.034,0.103-0.068,0.15
		c-0.463,0.636-1.243,0.899-1.971,0.731c-0.237-0.054-0.473-0.162-0.683-0.314c-0.212-0.155-0.385-0.343-0.514-0.557
		c-0.379-0.637-0.368-1.461,0.095-2.097c0.462-0.635,1.248-0.904,1.968-0.737c0.244,0.057,0.475,0.165,0.688,0.319
		C253.354,355.907,253.545,356.993,253.04,357.828z M534.517,353.291c-0.229,0.096-0.482,0.146-0.742,0.146
		c-0.268,0-0.513-0.05-0.742-0.146c-0.681-0.29-1.16-0.969-1.16-1.753c0-0.79,0.479-1.467,1.16-1.754
		c0.229-0.097,0.475-0.148,0.742-0.148c0.993,0,1.784,0.769,1.868,1.742c0.005,0.051,0.036,0.101,0.036,0.16
		C535.679,352.322,535.199,353.001,534.517,353.291z M621.721,259.396c-0.027,0.025-0.058,0.039-0.085,0.06
		c-0.162,0.095-0.336,0.16-0.534,0.16c-0.61,0-1.104-0.495-1.104-1.104c0-0.144,0.034-0.278,0.08-0.4
		c0.035-0.081,0.085-0.145,0.134-0.218c0.022-0.031,0.035-0.065,0.066-0.096c0.165-0.188,0.388-0.31,0.646-0.352
		c0.06-0.011,0.115-0.034,0.177-0.034c0.605,0,1.1,0.491,1.1,1.1C622.202,258.884,622,259.198,621.721,259.396z M618.604,277.518
		c-0.076,0.16-0.203,0.296-0.356,0.396c-0.026,0.024-0.052,0.039-0.084,0.056c-0.162,0.094-0.333,0.162-0.537,0.162
		c-0.605,0-1.099-0.488-1.099-1.099c0-0.145,0.026-0.277,0.08-0.397c0.029-0.083,0.084-0.149,0.126-0.218
		c0.023-0.034,0.044-0.072,0.072-0.096c0.161-0.19,0.385-0.31,0.64-0.356c0.063-0.013,0.117-0.037,0.181-0.037
		c0.608,0,1.104,0.493,1.104,1.104C618.73,277.208,618.675,277.366,618.604,277.518z M641.905,251.991l-8.969-0.873l13.04-9.466
		l8.048,1.539L641.905,251.991z M705.761,211.703c-0.611,0-1.106-0.493-1.106-1.104c0-0.352,0.182-0.653,0.44-0.856
		c0.011-0.004,0.015-0.008,0.025-0.013c0.184-0.141,0.393-0.23,0.641-0.23c0.353,0,0.653,0.179,0.855,0.446
		c0.005,0.004,0.009,0.009,0.014,0.02c0.139,0.183,0.23,0.391,0.23,0.634C706.861,211.21,706.368,211.703,705.761,211.703z
		 M710.703,218.932c0-0.608,0.492-1.103,1.101-1.103c0.175,0,0.34,0.055,0.484,0.125c0.164,0.081,0.295,0.203,0.401,0.352
		c0.019,0.03,0.04,0.053,0.06,0.09c0.09,0.158,0.154,0.333,0.154,0.531v0.004c0,0.167-0.042,0.32-0.106,0.461
		c-0.178,0.371-0.551,0.638-0.993,0.638C711.195,220.031,710.703,219.538,710.703,218.932z M657.831,278.755
		c-0.107,0.039-0.223,0.075-0.342,0.075c-0.125,0-0.241-0.032-0.353-0.079c-0.103-0.028-0.189-0.088-0.274-0.148
		c-0.216-0.151-0.365-0.371-0.423-0.638c-0.018-0.077-0.053-0.151-0.053-0.241c0-0.141,0.035-0.271,0.082-0.388
		c0.155-0.415,0.553-0.711,1.021-0.711c0.61,0,1.1,0.491,1.1,1.099C658.588,278.215,658.268,278.616,657.831,278.755z
		 M668.326,280.549c-0.132,0-0.245-0.028-0.358-0.076c-0.103-0.034-0.188-0.085-0.275-0.147c-0.275-0.199-0.47-0.51-0.47-0.877
		c0-0.611,0.495-1.104,1.104-1.104c0.605,0,1.1,0.493,1.1,1.104C669.425,280.056,668.931,280.549,668.326,280.549z M661.601,304.508
		c-0.032,0.028-0.063,0.047-0.096,0.064c-0.163,0.099-0.34,0.163-0.538,0.163c-0.462,0-0.855-0.275-1.017-0.667
		c-0.059-0.135-0.087-0.282-0.087-0.432c0-0.145,0.028-0.275,0.08-0.397c0.031-0.077,0.08-0.141,0.122-0.207
		c0.03-0.037,0.042-0.075,0.07-0.102c0.074-0.092,0.167-0.162,0.269-0.227c0,0,0.006,0,0.006-0.004c0.107-0.06,0.226-0.1,0.357-0.13
		c0.062-0.009,0.126-0.032,0.199-0.032c0.605,0,1.099,0.491,1.099,1.1C662.066,304.003,661.876,304.306,661.601,304.508z
		 M604.37,343.394c-0.291,0.683-0.966,1.161-1.756,1.161c-0.522,0-1.003-0.213-1.345-0.555c-0.342-0.346-0.56-0.819-0.56-1.347
		c0-1.052,0.856-1.902,1.904-1.902c0.004,0,0.008,0.004,0.016,0.004c0.267,0.004,0.513,0.058,0.742,0.153
		c0.621,0.271,1.049,0.878,1.113,1.584c0.004,0.051,0.031,0.107,0.031,0.16C604.516,342.913,604.466,343.165,604.37,343.394z
		 M630.378,340.052c-1.051,0-1.9-0.854-1.9-1.901c0-1.053,0.85-1.901,1.9-1.901c0.993,0,1.782,0.767,1.871,1.738
		c0.003,0.025,0.003,0.055,0.012,0.079c0,0.027,0.017,0.051,0.017,0.083C632.278,339.198,631.431,340.052,630.378,340.052z
		 M348.069,358.842c-0.213,0.154-0.443,0.263-0.688,0.319c-0.719,0.167-1.506-0.103-1.967-0.737
		c-0.463-0.636-0.475-1.46-0.096-2.097c0.129-0.214,0.303-0.401,0.514-0.557c0.211-0.152,0.445-0.261,0.684-0.314
		c0.727-0.168,1.508,0.096,1.971,0.731c0.033,0.048,0.041,0.103,0.068,0.15C349.061,357.173,348.87,358.259,348.069,358.842z
		 M219.05,372.274c-0.027,0.048-0.034,0.103-0.068,0.15c-0.463,0.636-1.243,0.899-1.971,0.731c-0.237-0.054-0.473-0.162-0.683-0.314
		c-0.212-0.155-0.385-0.343-0.514-0.557c-0.379-0.637-0.368-1.461,0.095-2.097c0.462-0.635,1.248-0.904,1.968-0.737
		c0.244,0.057,0.475,0.165,0.688,0.319C219.364,370.354,219.556,371.439,219.05,372.274z M718.292,261.698
		c-0.03,0.077-0.081,0.134-0.125,0.207c-0.028,0.03-0.041,0.072-0.069,0.103c-0.076,0.092-0.171,0.16-0.271,0.218l-0.006,0.004
		c-0.111,0.068-0.226,0.106-0.352,0.132c-0.068,0.009-0.127,0.039-0.198,0.039c-0.604,0-1.1-0.496-1.1-1.1
		c0-0.241,0.091-0.451,0.218-0.63c0.202-0.279,0.512-0.474,0.882-0.474c0.607,0,1.103,0.493,1.103,1.104
		C718.374,261.439,718.338,261.572,718.292,261.698z"/>
</g>
<g id="guides" display="none">
</g>
</svg>
