<?xml version="1.0" encoding="UTF-8" standalone="no"?>
<!-- Created with Inkscape (http://www.inkscape.org/) -->

<svg
   xmlns:dc="http://purl.org/dc/elements/1.1/"
   xmlns:cc="http://creativecommons.org/ns#"
   xmlns:rdf="http://www.w3.org/1999/02/22-rdf-syntax-ns#"
   xmlns:svg="http://www.w3.org/2000/svg"
   xmlns="http://www.w3.org/2000/svg"
   xmlns:sodipodi="http://sodipodi.sourceforge.net/DTD/sodipodi-0.dtd"
   xmlns:inkscape="http://www.inkscape.org/namespaces/inkscape"
   id="svg3336"
   version="1.1"
   inkscape:version="0.91 r13725"
   xml:space="preserve"
   width="375"
   height="162.5"
   viewBox="0 0 375 162.5"
   sodipodi:docname="logo-footer-en.svg"><metadata
     id="metadata3342"><rdf:RDF><cc:Work
         rdf:about=""><dc:format>image/svg+xml</dc:format><dc:type
           rdf:resource="http://purl.org/dc/dcmitype/StillImage" /><dc:title></dc:title></cc:Work></rdf:RDF></metadata><defs
     id="defs3340"><clipPath
       clipPathUnits="userSpaceOnUse"
       id="clipPath3350"><path
         d="M 0,130 460,130 460,0 0,0 0,130 Z"
         id="path3352"
         inkscape:connector-curvature="0" /></clipPath></defs><sodipodi:namedview
     pagecolor="#ffffff"
     bordercolor="#666666"
     borderopacity="1"
     objecttolerance="10"
     gridtolerance="10"
     guidetolerance="10"
     inkscape:pageopacity="0"
     inkscape:pageshadow="2"
     inkscape:window-width="1857"
     inkscape:window-height="768"
     id="namedview3338"
     showgrid="false"
     inkscape:zoom="3.0695652"
     inkscape:cx="238.30737"
     inkscape:cy="78.969547"
     inkscape:window-x="1967"
     inkscape:window-y="152"
     inkscape:window-maximized="0"
     inkscape:current-layer="g3344" /><g
     id="g3344"
     inkscape:groupmode="layer"
     inkscape:label="logo-footer-en"
     transform="matrix(1.25,0,0,-1.25,0,162.5)"><g
       id="g3346"
       transform="translate(-3.2,0)"><g
         id="g3348"
         clip-path="url(#clipPath3350)"><g
           id="g3354"
           transform="translate(28.6065,60.5118)"><path
             d="m 0,0 c 0,0 0.4,4.1 0.4,4.2 2,10.5 6.6,15.2 10,15.2 3,0 4.8,-3 4.8,-7.9 C 15.2,2.9 11.8,-7.1 4.3,-8.8 1.5,-8.6 -0.2,-5.6 -0.2,-1 -0.1,-1 0,0 0,0 M 14.9,32.6 C 1.1,33.7 -14.7,24.3 -18.3,4.4 l -0.6,-5 0,-0.6 c 0.1,-11.9 7.7,-20.1 19.2,-21 8,-0.6 15.8,2.2 22,8 7.2,6.7 11.5,16.5 11.5,26.3 0.1,14 -10.1,19.8 -18.9,20.5"
             style="fill:#00539b;fill-opacity:1;fill-rule:nonzero;stroke:none"
             id="path3356"
             inkscape:connector-curvature="0" /></g><g
           id="g3358"
           transform="translate(165.8065,60.5118)"><path
             d="m 0,0 0.4,4.1 c 2,10.5 6.6,15.2 10,15.2 3,0 4.8,-3 4.8,-7.9 C 15.2,2.8 11.8,-7.2 4.3,-8.9 1.5,-8.7 -0.2,-5.7 -0.2,-1.1 -0.1,-1 0,0 0,0 M 15,32.6 C 5.4,33.4 -5.2,29 -12,19.6 l 2.4,12.3 -0.9,0 -38.1,0 -10.3,-53.2 17.1,0 c 0,0 3.5,18.1 3.7,19.3 l 16.7,0 2.7,13.2 -16.8,0 c 0.2,1.3 1.1,6 1.3,6.9 l 21.2,0 c -2.4,-3.8 -4.3,-8.4 -5.2,-13.7 l -0.6,-5 0,-0.6 c 0.1,-11.9 7.7,-20.1 19.2,-21 8,-0.6 15.8,2.2 22,8 7.2,6.7 11.5,16.5 11.5,26.3 C 34,26.1 23.7,31.9 15,32.6"
             style="fill:#00539b;fill-opacity:1;fill-rule:nonzero;stroke:none"
             id="path3360"
             inkscape:connector-curvature="0" /></g><g
           id="g3362"
           transform="translate(225.1065,71.5118)"><path
             d="m 0,0 -6.8,0 c 0.3,1.4 1.5,7.3 1.7,8.3 l 6.9,0 C 4.4,8.3 5.9,7.1 5.9,4.9 5.8,2.5 3.6,0 0,0 m 24.1,7.5 c 0,8.5 -6,13.3 -16.5,13.3 l -27.3,0 -0.6,0 -10.3,-53.3 17.6,0 c 0,0 3.5,18.8 3.8,19.9 l 3.5,0 c 0.2,-1.1 4,-19.9 4,-19.9 l 19.2,0 c 0,0 -4.8,21.7 -5,22.9 6.8,2.8 11.6,9.7 11.6,17.1"
             style="fill:#00539b;fill-opacity:1;fill-rule:nonzero;stroke:none"
             id="path3364"
             inkscape:connector-curvature="0" /></g><g
           id="g3366"
           transform="translate(268.2065,78.9118)"><path
             d="M 0,0 C 3.2,0.3 5.7,-0.2 7.3,-1.7 9,-3.2 9.8,-5.5 9.8,-8.7 L 9.5,-12.3 C 9,-15.9 6.5,-27.2 -5.2,-26.5 -4.9,-25 -0.2,-1.1 0,0 m 8.3,13.2 -22.5,0 -0.6,0 -10.2,-53 21,0 c 19.5,0 29.1,14.2 31.4,26.4 0.3,1.9 0.5,4 0.5,5.9 0,12.6 -7.7,20.7 -19.6,20.7"
             style="fill:#00539b;fill-opacity:1;fill-rule:nonzero;stroke:none"
             id="path3368"
             inkscape:connector-curvature="0" /></g><g
           id="g3370"
           transform="translate(111.4065,91.6118)"><path
             d="m 0,0 c -12.6,-14 -21.8,-28.6 -21.8,-35.4 l 0,-0.7 0,-0.4 c 0,-1 -0.4,-1.8 -1.1,-2.5 -1.3,-1.3 -3.5,-1.8 -4.5,-1.7 l -0.1,0 c -1.4,0.2 -3.2,0.7 -4.3,1.5 -0.1,0.1 -0.3,0.2 -0.4,0.3 -0.1,0.2 -0.3,0.3 -0.4,0.5 -0.4,0.6 -0.5,1.2 -0.3,1.9 0.7,2.9 -0.4,6.8 -1.2,9.6 l -0.6,2.2 c -0.1,0.7 -0.5,1.6 -1.1,2.6 -0.4,0.8 -1,1.6 -1.5,2.4 -1,1.4 -2.1,2.7 -3.1,3.4 -0.2,0.1 -0.3,0.2 -0.5,0.3 -0.5,0.3 -0.8,1 -0.6,1.7 0.1,0.5 0.5,1 1.1,1.5 0.9,0.7 2.5,1.3 4.9,1.3 1.4,0 2.5,-0.4 3.5,-1.1 2.4,-1.6 3.6,-4.6 4.2,-6.3 0.4,-1.1 0.7,-1.6 1.3,-1.7 l 0.4,-0.1 0.4,0.4 c 0.1,0.2 0.2,0.3 0.3,0.5 6,8.5 11.1,14.9 15.2,19.7 C -3.4,7.7 0.7,11 2,12 2.4,11.7 2.8,11.4 2.8,11.4 l 1.3,1.5 c 0,0 0.7,0.6 0.9,0.8 0.1,0 0.2,0.1 0.2,0.1 0,0 0,0.1 0.1,0.2 l 0.4,0.4 0.6,0.7 c 0.1,0.1 0.2,0.2 0.2,0.3 0.1,0.1 0.7,0.6 0.7,0.6 l 1.1,1 c 0,0 0.4,0.4 0.5,0.6 l 1.4,1.2 0.5,0.4 0.1,0.1 c 0,0 0.2,0.2 0.3,0.3 l -1.2,-3 c 0,0 1.8,1.4 2.6,2 0.2,0.2 0.4,0.3 0.4,0.3 l 0.7,0.5 c 0,0 0.5,0.4 0.6,0.5 l -0.1,-0.1 c 0,0 0.1,0 0.1,0.1 C 14.1,19.7 14,19.5 13.9,19.3 13.8,19.1 13.8,19 13.7,19 l 1.9,0.8 0.6,0.2 c 0,0 0.4,0.4 0.5,0.5 l 0.1,-0.1 c 0.1,-0.1 0.2,-0.2 0.3,-0.2 0.1,0 0.1,-0.1 0.2,-0.2 0,-0.1 0,-0.1 -0.1,-0.2 -0.2,-0.2 -1.3,-1.2 -1.3,-1.2 0,0 -0.1,0 -0.1,-0.1 L 15.3,18 15.8,17.5 c 0.1,-0.1 0.2,-0.2 0.4,-0.2 -1.9,-1.9 -3.8,-3.8 -3.8,-3.8 0,0 0.2,-0.2 0.3,-0.4 C 8.3,8.8 4,4.4 0,0 m 22.2,18.4 c 0,0 -3.3,-1.8 -3.8,-2.2 0.4,0.4 2,1.9 2.2,2 0.2,0.1 0.3,0.4 0.6,0.8 0.3,0.4 0.5,0.7 0.5,0.7 l -1,-0.9 -0.7,-0.3 0.1,0.2 0.8,0.8 0.2,0.2 0.1,0.3 0.2,0.4 -0.8,-0.4 -0.1,-0.1 c -0.1,0.1 -0.2,0.3 -0.3,0.4 l 0.3,0.2 0.3,0.2 0.2,0.7 -0.3,-0.2 -0.4,-0.2 c -0.1,0.1 -0.2,0.1 -0.3,0.2 0,0 0,0.1 0.1,0.2 0.1,0 0.1,0.1 0.1,0.1 l 0.1,0.5 0.2,0.2 0.2,0.4 -0.4,-0.2 c -0.1,0 -0.3,0.1 -0.5,0.1 0.1,0.2 0.9,2.7 0.9,2.7 0,0 -0.5,-0.3 -0.9,-0.6 0.3,0.5 0.5,1.2 0.5,1.2 L 18.6,25 c 0,0 -0.2,-0.1 -0.5,-0.2 0.3,0.4 0.5,0.8 0.5,0.8 L 17.4,26.5 16.2,25.3 16,25.2 c -0.1,-0.1 -0.9,-0.9 -1,-0.9 l -0.6,-0.5 c -0.1,0.1 -0.3,0.3 -0.3,0.3 l -1.5,-1.2 -1.1,-1 -1.2,-1.2 c 0,0 -0.4,-0.4 -0.5,-0.5 C 9.6,20.1 9.2,19.8 9.2,19.8 L 7.8,18.6 7.7,18.5 7.3,18.1 C 7.3,18.1 7.2,18 7,17.9 6.8,18.1 6.6,18.3 6.6,18.3 L 5,17.1 C 4.9,17 3.8,16 3.8,16 L 3.7,15.9 3.3,15.1 2.9,14.7 2.2,14.1 1.7,13.7 C 1.4,13.5 -6.6,8.4 -22,-12.4 l -5.1,13.2 -0.4,0 -19.6,0 5.5,-12.5 c -0.9,-0.8 -1.2,-1.6 -1.3,-2 -0.4,-1.4 0.2,-2.8 1.3,-3.4 1.9,-1 5.1,-5.9 5.4,-7.7 l 0.1,-0.3 -0.4,-0.4 -22,-26.8 16.5,0 9.4,12 c 0.8,-0.5 1.7,-0.9 2.6,-1.2 0.8,-0.5 1.7,-0.8 2.5,-1 l 0.2,-0.5 3.6,-9.3 20,0 -11.8,27.3 c 1.6,3.1 3.7,6.6 6.3,10.2 L 2.2,-0.9 c 4.6,4.8 9.7,9.7 15.5,14.2 l -3,-2.1 c 0.1,-0.2 3.9,3.7 7.5,7.2"
             style="fill:#00539b;fill-opacity:1;fill-rule:nonzero;stroke:none"
             id="path3372"
             inkscape:connector-curvature="0" /></g><g
           id="g3374"
           transform="translate(79.2065,52.7118)"><path
             d="M 0,0 C -0.1,0.2 -0.3,0.3 -0.4,0.5 -0.8,1.1 -0.9,1.7 -0.7,2.4 0,5.3 -1.1,9.2 -1.9,12 l -0.6,2.2 c -0.1,0.7 -0.5,1.6 -1.1,2.6 -0.4,0.8 -1,1.6 -1.5,2.4 -1,1.4 -2.1,2.7 -3.1,3.4 -0.2,0.1 -0.3,0.2 -0.5,0.3 -0.5,0.3 -0.8,1 -0.6,1.7 0.1,0.5 0.5,1 1.1,1.5 0.9,0.7 2.5,1.3 4.9,1.3 1.4,0 2.5,-0.4 3.5,-1.1 2.4,-1.6 3.6,-4.6 4.2,-6.3 0.4,-1.1 0.7,-1.6 1.3,-1.7 l 0.4,-0.1 0.4,0.4 c 0.1,0.2 0.2,0.3 0.3,0.5 6,8.5 11.1,14.9 15.2,19.7 6.8,7.8 10.9,11.1 12.2,12.1 0.4,-0.3 0.8,-0.6 0.8,-0.6 l 1.3,1.5 c 0,0 0.7,0.6 0.9,0.8 0.1,0 0.2,0.1 0.2,0.1 0,0 0,0.1 0.1,0.2 l 0.4,0.4 0.6,0.7 c 0.1,0.1 0.2,0.2 0.2,0.3 0.1,0.1 0.7,0.6 0.7,0.6 l 1.1,1 c 0,0 0.4,0.4 0.5,0.6 l 1.4,1.2 0.5,0.4 0.1,0.1 c 0,0 0.2,0.2 0.3,0.3 l -1.2,-3 c 0,0 1.8,1.4 2.6,2 0.2,0.2 0.4,0.3 0.4,0.3 l 0.7,0.5 c 0,0 0.5,0.4 0.6,0.5 l -0.1,-0.1 c 0,0 0.1,0 0.1,0.1 C 46.3,58.6 46.2,58.4 46.1,58.2 46,58 46,57.9 45.9,57.9 l 1.9,0.8 0.6,0.2 c 0,0 0.4,0.4 0.5,0.5 L 49,59.3 c 0.1,-0.1 0.2,-0.2 0.3,-0.2 0.1,0 0.1,-0.1 0.2,-0.2 0,-0.1 0,-0.1 -0.1,-0.2 -0.2,-0.2 -1.3,-1.2 -1.3,-1.2 0,0 -0.1,0 -0.1,-0.1 L 47.5,56.9 48,56.4 c 0.1,-0.1 0.2,-0.2 0.4,-0.2 -1.9,-1.9 -3.8,-3.8 -3.8,-3.8 0,0 0.2,-0.2 0.3,-0.4 C 40.5,48 36.2,43.6 32.2,39.2 19.6,25.2 10.4,10.6 10.4,3.8 l 0,-0.7 0,-0.4 C 10.4,1.7 10,0.9 9.3,0.2 8,-1.1 5.8,-1.6 4.8,-1.5 l -0.1,0 C 3.3,-1.3 1.5,-0.8 0.4,0 0.3,-0.2 0.1,-0.1 0,0"
             style="fill:#ffc425;fill-opacity:1;fill-rule:nonzero;stroke:none"
             id="path3376"
             inkscape:connector-curvature="0" /></g><g
           id="g3378"
           transform="translate(281.6065,25.2118)"><path
             d="m 0,0 c 0,-7.8 -6.3,-14.1 -14.1,-14.1 l -117,0 c -7.8,0 -14.1,6.3 -14.1,14.1 0,7.8 6.3,14.1 14.1,14.1 l 117,0 C -6.3,14.1 0,7.8 0,0"
             style="fill:#00539b;fill-opacity:1;fill-rule:nonzero;stroke:none"
             id="path3380"
             inkscape:connector-curvature="0" /></g><g
           id="g3382"
           transform="translate(279.4065,27.5118)"><path
             d="m 0,0 c 0,-7.8 -6.3,-14.1 -14.1,-14.1 l -117,0 c -7.8,0 -14.1,6.3 -14.1,14.1 0,7.8 6.3,14.1 14.1,14.1 l 117,0 C -6.3,14.1 0,7.8 0,0"
             style="fill:#ffc425;fill-opacity:1;fill-rule:nonzero;stroke:none"
             id="path3384"
             inkscape:connector-curvature="0" /></g><g
           id="g3386"
           transform="translate(213.1065,107.3118)"><path
             d="m 0,0 c -1.4,0.6 -2.5,0.9 -3.7,0.9 -2.6,0 -4.2,-1.3 -4.2,-3.2 0,-4 5.6,-3.3 5.6,-5.1 0,-0.6 -0.6,-1 -1.6,-1 -1.2,0 -2.2,0.4 -3.8,1.4 l 0,-2.4 c 1.1,-0.6 2.1,-1.1 4,-1.1 2.5,0 4.2,1.2 4.2,3.4 0,3.9 -5.6,3.4 -5.6,5.1 0,0.6 0.6,0.9 1.6,0.9 0.9,0 1.9,-0.3 3.5,-1 L 0,0 Z"
             style="fill:#00539b;fill-opacity:1;fill-rule:nonzero;stroke:none"
             id="path3388"
             inkscape:connector-curvature="0" /></g><path
           d="m 217.607,97.012 -2.4,0 0,7.5 2.4,0 0,-7.5 z m 0.1,9.9 c 0,-0.7 -0.6,-1.3 -1.3,-1.3 -0.7,0 -1.3,0.6 -1.3,1.3 0,0.7 0.6,1.3 1.3,1.3 0.7,0 1.3,-0.6 1.3,-1.3"
           style="fill:#00539b;fill-opacity:1;fill-rule:nonzero;stroke:none"
           id="path3390"
           inkscape:connector-curvature="0" /><g
           id="g3392"
           transform="translate(221.9065,103.4118)"><path
             d="m 0,0 c 0.7,0.9 1.5,1.2 2.4,1.2 1.2,0 2.7,-0.7 2.7,-2.9 l 0,-4.7 -2.3,0 0,4.5 c 0,1.1 -0.5,1.5 -1.2,1.5 -0.6,0 -1,-0.3 -1.6,-1.2 l 0,-4.8 -2.4,0 0,7.5 L 0,1.1 0,0 Z"
             style="fill:#00539b;fill-opacity:1;fill-rule:nonzero;stroke:none"
             id="path3394"
             inkscape:connector-curvature="0" /></g><g
           id="g3396"
           transform="translate(235.6065,97.3118)"><path
             d="m 0,0 c -0.9,-0.3 -1.7,-0.5 -2.5,-0.5 -2.6,0 -4.3,1.5 -4.3,3.9 0,2.3 1.8,3.9 4.2,3.9 0.8,0 1.7,-0.2 2.5,-0.5 l 0,-1.7 C -0.7,5.4 -1.4,5.6 -2,5.6 -3.4,5.6 -4.3,4.8 -4.3,3.4 -4.3,2.1 -3.4,1.2 -2.1,1.2 -1.5,1.2 -1,1.3 0,1.7 L 0,0 Z"
             style="fill:#00539b;fill-opacity:1;fill-rule:nonzero;stroke:none"
             id="path3398"
             inkscape:connector-curvature="0" /></g><g
           id="g3400"
           transform="translate(242.5065,101.6118)"><path
             d="M 0,0 C -0.1,1 -0.7,1.6 -1.6,1.6 -2.5,1.6 -3.1,1 -3.2,0 L 0,0 Z m 1.9,-3.8 c -1.3,-1 -2.8,-1 -3.3,-1 -2.6,0 -4.3,1.5 -4.3,3.9 0,2.3 1.6,3.9 3.9,3.9 2.2,0 4,-1.5 3.9,-4.3 l -5.4,0 c 0.1,-1.3 1,-2.1 2.5,-2.1 0.9,0 1.7,0.3 2.8,1.1 L 1.9,-3.8 Z"
             style="fill:#00539b;fill-opacity:1;fill-rule:nonzero;stroke:none"
             id="path3402"
             inkscape:connector-curvature="0" /></g><path
           d="m 255.307,97.012 -2.4,0 0,11 2.4,0 0,-11 z"
           style="fill:#00539b;fill-opacity:1;fill-rule:nonzero;stroke:none"
           id="path3404"
           inkscape:connector-curvature="0" /><g
           id="g3406"
           transform="translate(263.0065,106.1118)"><path
             d="m 0,0 c -0.7,0 -1.3,-0.7 -1.3,-1.7 0,-1 0.5,-1.7 1.3,-1.7 0.7,0 1.2,0.7 1.2,1.6 C 1.2,-0.6 0.7,0 0,0 m 0.1,-5.1 c -2,-0.6 -3.8,1.2 -3.8,3.4 0,2.2 1.6,3.8 3.7,3.8 2.1,0 3.6,-1.6 3.6,-3.9 0,-1.4 -0.4,-2.6 -1.5,-4.3 l -1.9,-3.2 -2.7,0 2.6,4.2 z"
             style="fill:#00539b;fill-opacity:1;fill-rule:nonzero;stroke:none"
             id="path3408"
             inkscape:connector-curvature="0" /></g><g
           id="g3410"
           transform="translate(272.0065,106.6118)"><path
             d="m 0,0 c -0.6,0 -1,-0.6 -1,-1.5 0,-1 0.4,-1.6 1.1,-1.6 0.6,0 1,0.6 1,1.6 C 1,-0.6 0.6,0 0,0 m 0,-4.7 c -0.8,0 -1.2,-0.7 -1.2,-1.7 0,-1.1 0.5,-1.8 1.3,-1.8 0.7,0 1.2,0.7 1.2,1.7 -0.1,1.2 -0.6,1.8 -1.3,1.8 m 2,0.9 c 1.1,-0.6 1.7,-1.5 1.7,-2.7 0,-2 -1.5,-3.3 -3.7,-3.3 -2.2,0 -3.7,1.3 -3.7,3.3 0,1.3 0.6,2.2 1.7,2.7 -1,0.6 -1.4,1.3 -1.4,2.4 0,1.8 1.3,3 3.4,3 2.4,0 3.4,-1.6 3.4,-3 0,-1.1 -0.5,-1.8 -1.4,-2.4"
             style="fill:#00539b;fill-opacity:1;fill-rule:nonzero;stroke:none"
             id="path3412"
             inkscape:connector-curvature="0" /></g><g
           id="g3414"
           transform="translate(279.0065,101.5118)"><path
             d="M 0,0 2.4,0 2.4,3 0,0 Z m 4.8,0 0.7,0 0,-1.8 -0.7,0 0,-2.7 -2.4,0 0,2.7 -4.3,0 0,1.8 5.2,6.7 1.6,0 0,-6.7 -0.1,0 z"
             style="fill:#00539b;fill-opacity:1;fill-rule:nonzero;stroke:none"
             id="path3416"
             inkscape:connector-curvature="0" /></g><g
           id="g3418"
           transform="translate(153.1065,22.0118)"><path
             d="m 0,0 5.4,0 0,-3.8 -9.9,0 0,17.3 4.5,0 L 0,0 Z"
             style="fill:#00539b;fill-opacity:1;fill-rule:nonzero;stroke:none"
             id="path3420"
             inkscape:connector-curvature="0" /></g><g
           id="g3422"
           transform="translate(164.5065,31.7118)"><path
             d="m 0,0 0,-2.9 5.1,0 0,-3.8 -5.1,0 0,-3 5.4,0 0,-3.8 -9.9,0 0,17.3 9.9,0 L 5.4,0 0,0 Z"
             style="fill:#00539b;fill-opacity:1;fill-rule:nonzero;stroke:none"
             id="path3424"
             inkscape:connector-curvature="0" /></g><g
           id="g3426"
           transform="translate(180.2065,30.2118)"><path
             d="m 0,0 0,0 -1.9,-5.5 3.7,0 L 0,0 Z m -3.1,-9 -1.2,-3 -4.8,0 6.7,17.3 4.9,0 6.5,-17.3 -4.8,0 -1.1,3 -6.2,0 z"
             style="fill:#00539b;fill-opacity:1;fill-rule:nonzero;stroke:none"
             id="path3428"
             inkscape:connector-curvature="0" /></g><g
           id="g3430"
           transform="translate(195.1065,27.8118)"><path
             d="M 0,0 0.4,0 C 1.9,0 3.5,0.3 3.5,2.2 3.5,4.1 1.8,4.4 0.4,4.4 L 0,4.4 0,0 Z m 10,-9.6 -5.6,0 -4.3,6.7 0,-6.7 -4.5,0 0,17.3 6.7,0 c 3.4,0 6,-1.6 6,-5.3 C 8.3,0 7,-2.1 4.5,-2.5 L 10,-9.6 Z"
             style="fill:#00539b;fill-opacity:1;fill-rule:nonzero;stroke:none"
             id="path3432"
             inkscape:connector-curvature="0" /></g><g
           id="g3434"
           transform="translate(206.3065,35.6118)"><path
             d="m 0,0 4.5,0 8.3,-10.6 0,10.6 4.5,0 0,-17.3 -4.5,0 -8.3,10.6 0,-10.6 -4.5,0 L 0,0 Z"
             style="fill:#00539b;fill-opacity:1;fill-rule:nonzero;stroke:none"
             id="path3436"
             inkscape:connector-curvature="0" /></g><path
           d="m 231.007,18.212 -4.5,0 0,17.3 4.5,0 0,-17.3 z"
           style="fill:#00539b;fill-opacity:1;fill-rule:nonzero;stroke:none"
           id="path3438"
           inkscape:connector-curvature="0" /><g
           id="g3440"
           transform="translate(234.0065,35.6118)"><path
             d="m 0,0 4.5,0 8.3,-10.6 0,10.6 4.5,0 0,-17.3 -4.5,0 -8.3,10.6 0,-10.6 -4.5,0 L 0,0 Z"
             style="fill:#00539b;fill-opacity:1;fill-rule:nonzero;stroke:none"
             id="path3442"
             inkscape:connector-curvature="0" /></g><g
           id="g3444"
           transform="translate(271.6065,27.9118)"><path
             d="m 0,0 c 0,-2.5 -0.2,-4.7 -1.8,-6.9 -1.7,-2.4 -4.3,-3.4 -7.2,-3.4 -5.5,0 -9.2,3.7 -9.2,9.2 0,5.6 3.8,9.3 9.4,9.3 3.6,0 6.3,-1.6 7.8,-4.9 L -5.3,1.5 c -0.6,1.7 -1.9,2.8 -3.8,2.8 -3,0 -4.5,-2.8 -4.5,-5.5 0,-2.7 1.6,-5.4 4.6,-5.4 2,0 3.5,1 3.6,3 l -3.7,0 0,3.5 L 0,0 Z"
             style="fill:#00539b;fill-opacity:1;fill-rule:nonzero;stroke:none"
             id="path3446"
             inkscape:connector-curvature="0" /></g><g
           id="g3448"
           transform="translate(296.3065,90.7118)"><path
             d="M 0,0 0.6,0 C 0.8,0 0.9,0 1,-0.1 1.1,-0.2 1.1,-0.3 1.1,-0.4 1.1,-0.7 0.9,-0.9 0.5,-0.9 l -0.7,0 L 0,0 Z m 1.1,-1.4 c 0.3,0.1 0.4,0.2 0.6,0.4 0.1,0.2 0.2,0.4 0.2,0.6 C 1.9,-0.2 1.8,0 1.7,0.1 1.6,0.3 1.5,0.4 1.3,0.4 1.2,0.5 1,0.5 0.7,0.5 l -1.2,0 -0.6,-3.4 0.6,0 0.2,1.4 0.7,0 0.3,-1.4 0.7,0 -0.3,1.5 z M 2.4,1 C 1.8,1.6 1.1,1.9 0.3,1.9 -0.5,1.9 -1.2,1.6 -1.8,1 -2.4,0.4 -2.7,-0.3 -2.7,-1.1 c 0,-0.8 0.3,-1.5 0.9,-2.1 0.6,-0.6 1.3,-0.9 2.1,-0.9 0.8,0 1.5,0.3 2.1,0.9 0.6,0.6 0.9,1.3 0.9,2.1 C 3.2,-0.3 3,0.4 2.4,1 M 2,-2.9 C 1.5,-3.4 1,-3.6 0.3,-3.6 c -0.7,0 -1.2,0.2 -1.7,0.7 -0.5,0.5 -0.7,1.1 -0.7,1.8 0,0.7 0.2,1.3 0.7,1.7 0.5,0.5 1,0.7 1.7,0.7 C 1,1.3 1.5,1.1 2,0.6 2.5,0.1 2.7,-0.5 2.7,-1.1 2.7,-1.8 2.5,-2.4 2,-2.9"
             style="fill:#00539b;fill-opacity:1;fill-rule:nonzero;stroke:none"
             id="path3450"
             inkscape:connector-curvature="0" /></g></g></g></g></svg>